<svg width="288" height="288" xmlns="http://www.w3.org/2000/svg" xmlns:xlink="http://www.w3.org/1999/xlink" xml:space="preserve" overflow="hidden"><defs><clipPath id="clip0"><rect x="81" y="48" width="288" height="288"/></clipPath></defs><g clip-path="url(#clip0)" transform="translate(-81 -48)"><path d="M334.14 156.39C331.925 157.789 329.378 158.576 326.76 158.67 324.15 159.06 321.81 159.75 319.35 160.23 317.328 160.901 315.21 161.236 313.08 161.22 310.86 160.68 309.9 157.83 307.74 156.93 309.24 155.82 309.6 155.19 308.64 153.54 307.081 151.587 305.288 149.833 303.3 148.32 300.6 145.86 297.06 145.32 295.83 141.63 295.49 139.869 294.936 138.157 294.18 136.53 293.22 134.91 291.54 134.25 290.46 132.9 288.24 130.11 289.53 125.73 288.06 122.49 287.25 120.69 285.9 120.18 284.7 118.8 283.5 117.42 283.71 116.31 283.23 114.54 281.64 110.608 279.765 106.798 277.62 103.14 276.87 101.43 272.31 96.06 273.18 94.14 273.78 92.79 275.25 95.91 275.7 96.63 276.63 98.22 276.96 100.02 279.15 100.2 278.192 97.2468 277.401 94.242 276.78 91.2 276.18 88.53 276.39 89.1 273.78 88.71 272.61 88.5 271.62 87.78 270.48 87.51 267.69 86.88 265.98 88.26 263.49 89.01 261.094 89.4567 258.618 89.142 256.41 88.11 252.03 86.73 247.2 86.82 243.09 84.63 240.84 83.4 240.09 81.84 237.09 82.17 235.05 82.41 231.93 83.73 231.48 85.98 231.03 88.23 232.83 89.52 230.25 91.08 227.67 92.64 225.18 89.67 222.66 88.86 220.74 88.23 218.43 88.47 216.87 87.06 215.97 86.28 216.12 85.02 215.34 84.21 213.968 83.3523 212.438 82.7811 210.84 82.53 208.752 82.4367 206.676 82.176 204.63 81.75 203.13 81.15 198.42 79.35 198.3 77.61 198.18 75.87 201.84 75.06 201.3 72.39 201.3 71.7 199.41 70.38 199.47 69.63 199.53 68.88 201.51 68.19 200.94 66.78 198.63 67.5 198.24 65.46 195.78 65.7 195.18 65.7 193.71 66.69 193.17 66.81 191.784 66.9663 190.386 66.9663 189 66.81 187.336 66.9059 185.681 67.1265 184.05 67.47 182.691 67.5357 181.33 67.4248 180 67.14 177.073 67.2232 174.165 67.6358 171.33 68.37 168.863 68.8688 166.486 69.7387 164.28 70.95 162.48 71.73 160.77 73.05 159 73.71 156.435 74.0239 153.838 73.9632 151.29 73.53 150.374 73.6374 149.446 73.5136 148.59 73.17 147.42 72.63 147 70.89 145.59 71.4 144.18 71.91 143.43 75.9 142.59 77.01 141.178 78.4734 139.47 79.6188 137.58 80.37 135.728 81.5367 134.307 83.274 133.53 85.32 133.016 85.9644 132.601 86.6826 132.3 87.45 131.73 89.4 132.9 91.08 132.3 93.03 131.7 94.98 128.58 97.38 126.72 98.64 124.86 99.9 122.28 99.93 120.72 101.85 119.94 102.84 119.85 104.07 118.92 105.06 117.99 106.05 117.36 105.84 116.85 106.47 115.92 107.64 115.92 109.47 115.29 110.67 114.41 112.124 113.406 113.499 112.29 114.78 110.498 117.029 109.08 119.551 108.09 122.25 107.79 123.9 108.6 124.53 109.29 125.85 109.957 126.916 110.272 128.165 110.19 129.42 110.647 131.754 110.908 134.122 110.97 136.5 110.288 139.597 109.282 142.613 107.97 145.5 107.25 147.63 108.21 147.09 108.84 149.19 109.26 150.66 108.66 151.32 108.84 152.79 109.2 156.06 111.21 155.22 112.98 156.69 113.67 157.29 114.63 159.18 115.32 159.93 117.437 161.715 119.224 163.857 120.6 166.26 121.249 168.701 122.75 170.828 124.83 172.26 126.93 173.67 129.06 175.02 131.07 176.58 132.788 178.205 134.727 179.579 136.83 180.66 140.19 182.04 142.56 180 145.83 179.19 148.866 178.456 152.034 178.456 155.07 179.19 157.399 179.854 159.897 179.551 162 178.35 166.53 176.46 174.15 172.74 179.19 174.6 181.98 175.65 181.98 178.08 183.48 180.03 184.98 181.98 185.82 181.35 187.8 181.17 189.186 180.882 190.589 180.682 192 180.57 194.55 180.57 193.05 180.72 195 181.83 198 183.69 198.3 186.09 197.61 189.57 197.435 191.98 197.043 194.37 196.44 196.71 195.36 199.26 194.4 199.11 196.11 201.9 197.728 204.348 199.609 206.612 201.72 208.65 203.883 210.899 205.45 213.652 206.28 216.66 207.06 218.91 209.46 221.73 209.52 224.1 209.52 225 208.8 225.87 208.8 226.5 208.943 227.837 209.351 229.132 210 230.31 211.397 232.528 211.397 235.352 210 237.57 208.186 239.849 206.786 242.428 205.86 245.19 204.33 250.62 203.16 255 206.28 260.19 207.87 262.74 209.28 265.44 210.6 268.05 212.244 270.871 213.162 274.057 213.27 277.32 213.45 279.48 214.2 281.52 214.5 283.65 214.84 286.211 215.611 288.696 216.78 291 217.98 293.13 220.14 294.39 221.25 296.58 222.36 298.77 223.68 302.01 224.97 304.65 225.51 305.79 226.26 306.42 226.2 307.83 226.2 308.46 224.94 310.17 224.97 310.59 225.567 312.758 226.932 314.634 228.81 315.87 232.35 318.18 236.46 314.97 240.39 314.37 242.97 313.98 245.58 314.97 248.1 314.37 250.585 313.915 253.01 313.18 255.33 312.18 260.299 309.402 264.44 305.354 267.33 300.45 270.06 295.83 274.83 292.92 274.38 286.83 274.38 285.21 273.45 285.06 274.38 283.47 275.07 282.45 277.05 281.85 278.1 281.37 280.68 280.26 282.3 280.02 282.84 277.02 283.263 273.68 282.765 270.288 281.4 267.21 280.77 265.41 280.05 265.17 280.92 263.28 281.79 261.39 284.16 260.67 285.48 259.56 287.18 257.725 289.071 256.076 291.12 254.64 293.854 253.7 296.344 252.163 298.41 250.14 300.87 247.14 300.39 245.46 299.94 241.92 299.55 238.92 300.75 234.54 299.52 231.78 298.29 229.02 296.52 227.67 295.95 224.37 295.77 222.99 296.64 220.56 296.34 219.51 296.04 218.46 294.39 217.8 294.27 215.97 294.09 213.39 297.27 208.26 298.59 206.16 300.245 204.194 302.029 202.34 303.93 200.61 306.007 197.895 308.284 195.338 310.74 192.96 313.32 190.71 316.41 189.24 319.02 186.96 323.604 182.87 327.335 177.915 330 172.38 331.888 169.458 333.495 166.364 334.8 163.14 334.86 162.51 336.36 154.56 334.14 156.39ZM268.74 225C268.02 226.11 263.76 219.3 263.28 218.43 261.944 215.089 261.58 211.439 262.23 207.9 263.97 210.9 263.82 214.77 265.23 217.5 265.83 218.79 269.82 223.35 268.74 225ZM277.29 201.96C276.84 203.43 277.77 204.24 275.7 204.51 274.18 204.76 272.63 204.76 271.11 204.51 269.79 203.73 270.72 198.66 271.11 197.64 271.92 195.78 272.94 195.87 274.59 195.42 277.38 194.67 278.19 195.99 280.8 196.8 279.195 198.18 277.984 199.96 277.29 201.96ZM278.76 237.96C278.52 234.96 278.43 231.42 278.43 228.39 280.53 228.39 281.43 233.67 281.67 235.23 281.91 236.79 281.1 238.23 281.28 239.64 281.46 241.05 282.48 242.43 282.33 243.72 279.66 243.93 279 240.6 278.76 238.05Z"/><path d="M327.3 241.44C325.91 243.641 324.247 245.657 322.35 247.44 320.198 248.669 317.927 249.674 315.57 250.44 312.972 251.78 311.585 254.688 312.18 257.55 312.759 259.279 313.181 261.056 313.44 262.86 313.076 264.618 312.317 266.27 311.22 267.69 309.03 271.5 310.38 273.27 310.92 277.26 311.46 281.25 312.93 281.73 316.11 283.26 319.29 282.18 321.63 281.94 322.95 278.7 324.27 275.46 325.35 271.2 326.52 267.51 327.952 263.952 329.115 260.292 330 256.56 330.42 253.74 330.54 251.07 330.99 248.31L333 249C333.367 245.526 332.643 242.024 330.93 238.98 328.32 235.86 328.56 239.64 327.3 241.44Z"/></g></svg>