<svg width="288" height="288" xmlns="http://www.w3.org/2000/svg" xmlns:xlink="http://www.w3.org/1999/xlink" xml:space="preserve" overflow="hidden"><defs><clipPath id="clip0"><rect x="897" y="41" width="288" height="288"/></clipPath></defs><g clip-path="url(#clip0)" transform="translate(-897 -41)"><path d="M1174.41 106.61C1174.07 105.875 1173.33 105.415 1172.52 105.44L1172.01 105.44C1169.92 105.438 1167.88 106.123 1166.22 107.39 1165.85 107.742 1165.39 107.999 1164.9 108.14 1164.09 108.32 1163.28 108.71 1162.44 108.92 1159.95 109.937 1157.22 110.218 1154.58 109.73 1153.59 109.244 1152.39 109.596 1151.82 110.54 1151.62 110.95 1151.14 111.144 1150.71 110.99 1150.3 110.897 1149.87 110.996 1149.54 111.26 1149.04 111.591 1148.46 111.797 1147.86 111.86 1145.78 112.129 1143.86 113.116 1142.43 114.65 1142.19 114.86 1141.86 115.25 1141.68 115.22 1140.39 114.95 1139.88 116.09 1139.01 116.57L1139.01 116.57 1138.35 118.82 1136.91 119.21C1136.22 119.66 1136.91 120.26 1136.37 120.71 1135.83 121.16 1136.37 121.82 1136.37 122.36 1134.33 122.12 1133.37 122.54 1131.6 124.55 1131.95 124.716 1132.33 124.808 1132.71 124.82 1132.92 124.82 1132.71 125.15 1132.41 125.09 1132.66 125.812 1132.27 126.595 1131.55 126.841 1131.49 126.862 1131.42 126.878 1131.36 126.89 1130.42 127.092 1129.62 127.681 1129.14 128.51 1128.9 128.93 1128.3 129.11 1127.91 129.41 1127.52 129.71 1127.73 129.71 1127.64 129.83L1128.36 131.24 1127.01 133.43C1126.55 133.398 1126.09 133.398 1125.63 133.43 1124.89 133.477 1124.32 134.119 1124.37 134.863 1124.37 134.936 1124.38 135.009 1124.4 135.08 1124.45 135.89 1125.14 136.508 1125.95 136.46 1125.96 136.46 1125.96 136.46 1125.96 136.46 1126.47 136.46 1127.01 136.1 1127.49 136.19 1129.08 136.4 1130.01 137.87 1131.45 138.41 1131.45 138.41 1131.45 138.41 1131.45 138.41L1131 140 1134 141.02C1134.25 141.078 1134.5 141.078 1134.75 141.02 1136.6 140.675 1138.51 140.675 1140.36 141.02 1140.69 141.02 1141.08 141.02 1141.11 140.54 1140.42 140.09 1139.67 139.64 1138.98 139.16 1137.47 138.111 1136.34 136.593 1135.77 134.84 1134.99 132.904 1135.48 130.69 1137 129.26 1137.44 128.685 1137.83 128.072 1138.17 127.43L1137 126.74C1137.78 126.788 1138.56 126.788 1139.34 126.74 1139.82 126.74 1140.39 126.41 1140.21 125.72 1140.03 125.03 1140.21 125.09 1140.72 125.09 1141.62 125.09 1141.8 124.37 1142.25 123.86 1142.7 123.35 1142.52 122.45 1143.51 122.27 1144.13 122.175 1144.65 121.749 1144.86 121.16 1145.29 120.037 1146.31 119.242 1147.5 119.09 1148.47 119.122 1149.38 118.582 1149.81 117.71 1150.11 116.96 1150.62 116.75 1151.19 116.39 1153.67 114.784 1156.41 113.636 1159.29 113 1163.22 112.22 1166.97 110.87 1170.84 110 1171.85 109.732 1172.78 109.216 1173.54 108.5 1174.17 108.08 1174.71 107.48 1174.41 106.61Z"/><path d="M958.77 209.36C960.39 208.76 960.39 208.76 961.44 210.47L960.45 212.81C962.07 213.71 963.6 212.81 965.07 212.81 964.77 214.97 964.77 214.97 966.63 216.26 966.556 216.765 966.456 217.266 966.33 217.76 966.169 218.261 965.979 218.752 965.76 219.23L962.25 219.53C962.49 220.1 962.76 220.61 962.97 221.15 963.48 222.023 963.186 223.143 962.313 223.653 962.245 223.693 962.174 223.729 962.1 223.76 961.71 224 961.29 224.12 960.93 224.36 960.671 224.582 960.44 224.834 960.24 225.11 961.35 225.35 962.28 225.47 963.24 225.74 964.37 226.274 965.639 226.442 966.87 226.22 966.63 227.27 965.85 227.48 964.92 227.45 964.231 227.283 963.502 227.437 962.94 227.87 961.943 228.718 961.1 229.733 960.45 230.87L960.45 230.87C961.697 230.525 963.013 230.525 964.26 230.87 964.734 229.682 966.031 229.047 967.26 229.4 967.854 229.52 968.466 229.52 969.06 229.4 971.014 228.999 973.006 228.818 975 228.86 976.356 228.952 977.67 228.368 978.51 227.3L976.59 226.52C976.866 226.059 977.188 225.627 977.55 225.23 977.97 224.81 978.54 224.54 978.93 224.09 979.576 223.589 979.82 222.725 979.53 221.96 979.191 221.232 978.472 220.757 977.67 220.73 977.333 220.672 976.987 220.672 976.65 220.73 976.26 220.73 975.9 221.18 975.36 220.73 975.625 219.942 975.503 219.075 975.03 218.39 974.834 218.005 974.673 217.604 974.55 217.19 974.113 215.883 973.174 214.804 971.94 214.19 971.449 213.86 971.055 213.404 970.8 212.87 970.509 212.337 970.277 211.774 970.11 211.19 969.689 209.736 968.41 208.695 966.9 208.58 966.51 208.58 966 208.82 965.73 208.25 967.259 206.383 968.465 204.274 969.3 202.01 967.696 201.584 966.024 201.482 964.38 201.71 963.99 201.71 963.57 201.71 963.24 201.71 963.045 200.959 963.361 200.169 964.02 199.76 964.59 199.31 965.37 198.98 965.55 197.96 963.75 197.51 962.1 198.41 960.45 197.96 960.12 198.65 959.91 199.19 959.64 199.73 959.37 200.27 959.28 200.57 958.95 200.75 958.317 200.997 958.004 201.71 958.251 202.343 958.271 202.393 958.294 202.443 958.32 202.49 958.562 203.055 958.562 203.695 958.32 204.26 958.32 204.68 958.11 205.1 957.99 205.52 957.87 205.94 957.69 206.21 957.48 206.69L959.04 206.33C959.01 207.44 958.89 208.37 958.77 209.36Z"/><path d="M1008 91.55 1009.44 90.74 1010.04 92.96C1009.8 93.44 1009.02 94.1 1009.23 94.46 1009.44 94.82 1010.49 95.09 1010.97 95.45 1011.42 95.8469 1011.85 96.2675 1012.26 96.71 1013.5 97.8083 1015.4 97.6931 1016.49 96.4526 1016.7 96.2165 1016.87 95.9492 1017 95.66 1017 95.27 1017.27 94.88 1017.39 94.52 1018.23 94.52 1018.92 94.94 1019.4 94.13 1019.4 94.13 1019.67 94.13 1019.82 94.13L1019.82 95.54C1021.29 96.14 1022.07 94.82 1023.21 94.4L1023.42 96.68C1022.4 96.7478 1021.39 96.9392 1020.42 97.25 1018.74 98.1821 1016.85 98.6483 1014.93 98.6 1014.93 99.38 1014.93 99.95 1015.68 100.25 1017.77 99.9074 1019.89 99.7169 1022.01 99.68L1023.42 99.68 1023.42 99.95 1022.07 99.59C1021.77 99.86 1021.5 100.31 1021.14 100.37 1020.4 100.529 1019.78 101.03 1019.46 101.72L1017.69 101.72C1017.15 101.72 1016.55 101.09 1016.01 102.08 1016.25 102.41 1016.43 102.98 1016.82 103.19 1018.27 104.218 1020.06 104.658 1021.83 104.42 1021.59 105.02 1021.11 105.32 1021.26 105.83 1021.95 106.49 1022.76 107.36 1023.99 106.94 1024.51 106.042 1024.94 105.098 1025.28 104.12 1025.61 102.786 1026.63 101.731 1027.95 101.36 1028.49 101.03 1028.19 100.04 1028.34 99.47 1028.49 98.9 1028.55 98.63 1028.76 98.57 1030.17 98.15 1030.02 96.83 1030.32 95.87 1031.07 95.45 1031.73 95.03 1032.42 94.73 1033.11 94.43 1033.8 94.49 1034.46 94.25 1035.12 94.01 1035.99 94.43 1036.74 93.59L1029.54 90.89C1029.54 89.78 1029.54 88.76 1028.16 88.58 1027.53 88.58 1027.44 89.6 1026.51 89.21L1026.66 87.23C1026.15 86.96 1025.55 86.3 1025.13 86.42 1023.96 86.72 1023.21 85.7 1022.13 85.7L1020.75 87.41C1021.01 88.1762 1021.22 88.9577 1021.38 89.75 1021.38 90.56 1022.34 91.16 1022.19 92.12 1020.6 91.7 1020.12 90.44 1019.49 89.3 1018.86 88.16 1018.47 87.5 1017.33 87.41 1016.01 88.67 1016.01 88.67 1015.62 90.11L1012.05 88.46C1012.65 87.17 1014.12 88.22 1014.84 87.17 1012.76 86.6579 1010.59 86.7095 1008.54 87.32 1008.03 87.5 1008 87.74 1007.85 87.95 1006.56 89.36 1006.56 89.39 1007.67 90.95 1007.55 91.46 1007.79 91.46 1008 91.55ZM1019.73 101.9 1021.47 101.63C1020.75 102.41 1020.21 101.93 1019.67 101.9Z"/><path d="M956.22 223.25C956.592 222.544 956.855 221.785 957 221 957 219.56 956.85 218 956.76 216.68L958.5 214.91C958.311 213.648 957.672 212.497 956.7 211.67L954.6 212C953.79 210.95 952.89 212 952.08 212 951.27 212 950.7 212.69 950.58 213.8 950.46 214.91 950.28 215.48 949.08 215.6 948.57 215.63 948.06 215.63 947.55 215.6 946.59 215.6 946.32 215.87 946.62 216.83 946.62 217.19 946.86 217.4 946.62 217.76 946.409 218.127 946.247 218.52 946.14 218.93L948.48 219.86C948 220.82 947.64 221.69 947.16 222.5 946.504 223.264 945.986 224.137 945.63 225.08L948.36 226.31C949.619 225.913 950.835 225.39 951.99 224.75 953.338 224.09 954.757 223.587 956.22 223.25Z"/><path d="M1028.67 86C1028.67 86.3 1028.67 86.75 1028.67 87.08 1029.68 87.8177 1030.97 88.0703 1032.18 87.77L1036.32 87.35C1036.65 87.35 1037.04 87.35 1037.07 87.92 1036.47 88.16 1035.84 88.49 1035.21 88.7 1034.58 88.91 1033.77 88.46 1032.93 88.88 1034.21 89.7701 1035.76 90.1841 1037.31 90.05 1038.94 89.8118 1040.61 90.0191 1042.14 90.65 1043.26 91.1957 1044.58 91.1159 1045.62 90.44 1045.91 90.242 1046.26 90.1373 1046.61 90.14 1047.98 90.3476 1049.34 89.6765 1050 88.46 1050.21 88.07 1050.87 87.92 1051.32 87.68 1051.77 87.44 1052.43 87.14 1052.94 86.81 1053.45 86.48 1053.24 85.7 1052.79 85.49 1052.49 85.3367 1052.16 85.2353 1051.83 85.19 1050.35 85.1054 1048.89 84.8846 1047.45 84.53 1046.2 84.0956 1044.82 84.2852 1043.73 85.04 1043.37 85.34 1042.62 85.04 1041.99 85.19 1042.02 84.8909 1042.02 84.5891 1041.99 84.29 1041.99 84.08 1041.99 83.75 1041.72 83.66 1041.5 83.5571 1041.25 83.5571 1041.03 83.66 1040.58 84.26 1040.19 84.92 1039.62 85.85 1039.09 85.55 1038.53 85.2794 1037.97 85.04 1037.62 84.8204 1037.21 84.7058 1036.8 84.71 1036.01 84.7556 1035.24 84.5216 1034.61 84.05 1033.95 83.63 1033.26 83.3 1032.54 82.88 1032.54 84.2 1031.16 84.44 1030.71 85.31 1029.76 84.8834 1028.69 84.8297 1027.71 85.16 1028.07 85.58 1028.52 85.76 1028.67 86Z"/><path d="M1040.4 101.54 1041.12 103.25C1042.76 102.714 1044.18 101.661 1045.17 100.25 1043.53 100.133 1042.1 99.0989 1041.48 97.58L1040.34 97.58 1039.14 97.58C1038.6 95.6 1038.15 95.24 1036.47 95.48 1035.9 95.6294 1035.36 95.8514 1034.85 96.14 1035.36 97.25 1035.36 97.25 1037.13 97.82L1036.23 98.57C1036.31 98.7422 1036.41 98.9036 1036.53 99.05L1037.16 99.47C1036.95 100.67 1036.05 101.21 1036.29 102.29Z"/><path d="M1116.39 150.68C1117.99 150.749 1119.47 149.882 1120.2 148.46L1118.7 147.59C1118.38 147.44 1118.05 147.329 1117.71 147.26 1116.66 147.03 1115.59 147.552 1115.13 148.52 1114.7 149.146 1114.85 150.006 1115.48 150.44 1115.74 150.624 1116.07 150.709 1116.39 150.68Z"/><path d="M1148.28 145.76C1148.48 145.932 1148.74 146.019 1149 146 1149.3 146 1149.75 145.82 1149.84 145.61 1149.91 145.293 1149.81 144.963 1149.57 144.74 1148.55 143.99 1147.44 143.33 1146.36 142.64 1146.19 142.607 1146.02 142.607 1145.85 142.64 1145.7 142.692 1145.56 142.762 1145.43 142.85 1144.97 143.25 1144.91 143.951 1145.31 144.415 1145.44 144.564 1145.6 144.676 1145.79 144.74 1146.69 144.887 1147.54 145.236 1148.28 145.76Z"/><path d="M1071.39 84.86C1070.16 83.75 1069.08 84.35 1068.06 84.59 1067.73 84.59 1067.19 84.74 1067.46 85.46 1068.8 85.5302 1070.13 85.3262 1071.39 84.86Z"/><path d="M1161.54 147.74C1161.03 147.74 1160.55 147.41 1160.04 147.29 1158.75 147.05 1157.49 146.84 1156.2 146.66L1152.39 146 1150.5 147.44 1152.36 150.2C1152.36 150.44 1152.36 150.53 1152.18 150.59 1151.75 151.255 1151.05 151.695 1150.26 151.79 1149.18 151.79 1149.39 153.05 1148.64 153.26 1148.24 153.381 1147.81 153.381 1147.41 153.26 1146.96 153.05 1146.93 152.57 1147.08 152.12 1147.23 151.67 1147.35 151.58 1147.44 151.34 1146.81 150.68 1146.24 150.38 1145.46 150.68 1145.04 150.808 1144.63 150.958 1144.23 151.13 1143.37 151.674 1142.44 152.107 1141.47 152.42 1140.35 152.51 1139.23 152.51 1138.11 152.42 1136.61 152.263 1135.17 153.036 1134.48 154.37L1132.71 154.37C1131.93 154.37 1131.18 154.22 1130.4 154.1 1130.4 154.1 1130.4 153.83 1130.4 153.68L1131.69 153.05C1131.66 152.667 1131.61 152.287 1131.54 151.91 1131.36 151.1 1131 150.83 1130.28 151.13 1129.7 151.289 1129.16 151.564 1128.69 151.94 1128.38 152.422 1128.15 152.948 1128 153.5 1126.1 152.724 1123.95 152.937 1122.24 154.07 1121.13 154.73 1119.9 155.21 1118.76 155.78L1114.86 157.67 1113.93 160.52C1113.13 160.816 1112.31 161.028 1111.47 161.15 1110.45 161.402 1109.36 161.229 1108.47 160.67 1107.6 159.98 1106.85 159.2 1106.01 158.39 1106.79 156.35 1108.77 156.29 1110.48 155.81 1110.48 155.48 1110.48 155.18 1110.48 155 1109.6 153.686 1108.13 152.881 1106.55 152.84L1102.71 152.84C1105.17 154.85 1103.16 156.77 1102.89 158.63 1105.11 161.09 1105.11 161.9 1102.89 164.39 1101.38 163.57 1099.71 163.08 1098 162.95 1096.96 163.956 1095.71 164.715 1094.34 165.17 1093.33 165.644 1092.38 166.249 1091.52 166.97 1091.08 167.305 1090.99 167.931 1091.31 168.38 1091.73 168.92 1092.27 169.4 1092.63 169.97 1092.83 170.345 1092.91 170.778 1092.84 171.2 1092.84 171.65 1092.3 171.8 1091.79 171.77 1091.28 171.74 1090.59 171.77 1089.99 171.77 1089.1 171.467 1088.19 171.256 1087.26 171.14 1085.94 171.14 1085.52 170.09 1084.56 169.76L1083.06 169.28 1081.92 170.63C1082.6 172.112 1084.17 172.976 1085.79 172.76L1086 174.59C1085.24 175.238 1084.2 175.463 1083.24 175.19 1082.05 174.998 1080.94 174.478 1080.03 173.69 1079.48 173.317 1078.86 173.08 1078.2 173 1077.3 172.73 1076.55 172.28 1076.55 171.26 1076.55 170.24 1075.74 169.19 1075.47 168.26 1076.55 165.8 1076.4 165.26 1074.15 164.18 1074.15 164.18 1073.97 164.18 1073.91 164.18 1072.65 163.28 1071.39 162.38 1070.19 161.42 1069.65 161.09 1069.49 160.388 1069.82 159.852 1069.85 159.802 1069.88 159.754 1069.92 159.71 1070.24 159.785 1070.55 159.917 1070.82 160.1 1071.49 160.898 1072.45 161.395 1073.49 161.48 1074.08 161.604 1074.66 161.775 1075.23 161.99 1076.88 162.5 1078.53 163.01 1080.21 163.43 1081.89 163.85 1082.76 163.88 1083.99 164.27 1086.68 165.07 1089.58 164.711 1092 163.28 1092.95 162.687 1093.81 161.959 1094.55 161.12 1095.04 160.592 1095.15 159.812 1094.82 159.17 1094.49 158.48 1094.25 157.73 1094.01 157.07 1093.06 156.402 1092.06 155.82 1091.01 155.33 1088.74 154.405 1086.55 153.291 1084.47 152 1083.14 151.185 1081.73 150.492 1080.27 149.93 1078.3 149.415 1076.3 149.074 1074.27 148.91 1073.97 148.91 1073.61 149.09 1073.28 149.18 1072.95 149.27 1072.65 149.18 1072.62 149.18 1072.02 147.89 1070.49 148.61 1069.62 147.8 1069.62 147.8 1069.32 147.62 1069.23 147.47 1069.2 147.332 1069.2 147.188 1069.23 147.05 1069.8 147.05 1070.43 147.38 1071.06 146.66 1070.36 146.287 1069.61 146.005 1068.84 145.82L1067.37 146.66 1061.91 146.18C1061.59 145.841 1061.24 145.53 1060.86 145.25 1060.19 144.913 1059.5 144.623 1058.79 144.38 1063.2 144.65 1063.2 144.65 1064.79 143 1063.51 142.137 1062.09 141.516 1060.59 141.17 1059.27 140.69 1059.3 140.66 1058.49 141.74 1058.31 141.95 1058.22 142.19 1058.04 142.37 1057.86 142.55 1057.29 142.37 1057.11 141.95 1057.07 141.752 1057.07 141.548 1057.11 141.35 1057.47 140.9 1057.8 140.63 1057.83 140.36 1057.86 140.09 1057.38 139.67 1056.96 139.64L1055.85 139.64C1055.34 140.519 1054.77 141.37 1054.17 142.19 1053.96 142.46 1053.51 142.52 1053.06 142.73 1052.88 141.98 1052.73 141.44 1052.55 140.75 1051.32 141.636 1050.25 142.733 1049.4 143.99 1049.13 144.35 1048.77 144.62 1048.32 143.99 1048.42 143.404 1048.58 142.831 1048.8 142.28 1049.19 141.691 1049.63 141.139 1050.12 140.63L1047.51 140.24C1046.91 140.87 1046.64 141.98 1045.74 141.65 1044.84 141.32 1044.69 142.22 1044.27 142.58L1043.19 145.07C1041.69 144.02 1040.19 143.12 1038.39 144.02L1039.47 145.25C1037.76 145.181 1036.09 145.809 1034.85 146.99 1034.67 146.646 1034.47 146.315 1034.25 146 1033.85 146.173 1033.42 146.284 1032.99 146.33 1032.54 146.33 1032.51 145.76 1032.3 145.37 1032.09 144.98 1031.43 144.62 1030.53 145.37 1031.31 146.219 1031.31 147.521 1030.53 148.37 1030.17 148.61 1029.81 148.82 1029.45 148.37 1029.09 147.92 1028.13 148.04 1027.47 147.95 1026.58 147.761 1025.68 148.26 1025.37 149.12L1026.21 149.39 1027.11 149.57C1026.84 151.58 1025.52 151.97 1024.11 152.06L1023 151.01 1021.77 151.49 1020.81 149.93C1020.79 150.472 1020.74 151.014 1020.66 151.55 1020.66 152 1020.33 152.45 1020.06 153.14 1021.05 152.981 1022.05 152.891 1023.06 152.87 1024.02 152.87 1025.04 152.27 1026.06 152.87 1025.28 153.68 1024.32 153.08 1023.48 153.47L1022.85 155.39C1021.35 154.76 1020.63 155.93 1019.85 156.53 1019.85 156.68 1019.85 156.92 1019.85 157.01 1018.77 157.94 1017.72 158.9 1016.55 159.74 1015.47 160.5 1014.61 161.536 1014.06 162.74L1014.66 163.43C1012.7 164.648 1011.47 166.763 1011.39 169.07 1010.43 169.07 1009.8 169.28 1009.5 170.21 1009.29 170.81 1009.03 171.392 1008.72 171.95 1007.79 171.671 1006.78 172.007 1006.2 172.79 1005.55 173.485 1004.94 174.216 1004.37 174.98 1004.22 175.351 1004.15 175.749 1004.16 176.15 1003.8 176.15 1003.32 176.15 1003.08 176.54 1002.72 177.012 1002.04 177.1 1001.57 176.735 1001.49 176.679 1001.43 176.613 1001.37 176.54L999.57 179.24C998.7 179.24 997.86 179 997.02 178.94 996.66 178.94 996.36 179.09 996.51 179.63L998.16 180.11C997.32 181.01 996.27 180.47 995.43 180.68 994.41 181.37 993.75 182.66 992.25 182.51 991.999 182.535 991.775 182.68 991.65 182.9 990.986 183.596 990.677 184.557 990.81 185.51 990.96 185.99 990.81 186.8 991.02 186.95 992.19 187.58 990.48 187.7 990.84 188.3 991.151 189.129 991.343 189.997 991.41 190.88L993.24 191.54C992.969 192.704 992.34 193.753 991.44 194.54 991.685 194.613 991.936 194.663 992.19 194.69 992.64 194.69 993.15 194.69 993.24 195.17 993.286 195.579 993.191 195.992 992.97 196.34 992.664 196.688 992.311 196.991 991.92 197.24 991.92 197.57 991.92 197.78 992.16 197.9 993.44 199.052 994.986 199.867 996.66 200.27 997.253 200.384 997.865 200.332 998.43 200.12 999.788 199.708 1001.02 198.954 1002 197.93 1002.72 197.21 1003.35 196.4 1004.58 196.4 1004.94 196.4 1005.36 195.83 1005.69 195.44 1006.02 195.05 1005.69 194.54 1006.53 194.51 1007.06 195.008 1007.52 195.573 1007.91 196.19 1008.42 197.42 1008.24 198.92 1009.56 199.82 1009.77 199.97 1009.71 200.48 1009.83 200.81 1010.07 201.726 1010.39 202.619 1010.79 203.48 1011.45 204.68 1012.26 205.79 1013.04 206.99 1012.96 207.299 1012.83 207.593 1012.65 207.86 1012.44 208.12 1012.2 208.351 1011.93 208.55 1012.82 209.33 1013.42 210.387 1013.64 211.55 1014.27 211.55 1014.78 211.55 1015.26 211.37 1015.67 211.292 1016.07 211.192 1016.46 211.07 1016.71 210.364 1017.07 209.697 1017.51 209.09 1018.1 208.431 1018.97 208.105 1019.85 208.22 1020.44 208.25 1021.03 208.25 1021.62 208.22 1022.88 206.62 1023.58 204.648 1023.6 202.61 1023.78 201.339 1024.02 200.077 1024.32 198.83 1024.47 198.424 1024.73 198.07 1025.07 197.81 1025.48 197.495 1025.92 197.223 1026.39 197 1027.02 196.742 1027.61 196.41 1028.16 196.01 1028.61 195.59 1028.76 194.84 1029.18 194.33 1029.6 193.82 1030.2 193.4 1030.2 192.44 1029.37 191.278 1028.23 190.382 1026.9 189.86 1025.85 189.59 1025.55 188.69 1025.34 187.7 1024.89 185.6 1026.21 183.86 1026.3 181.88 1026.3 181.67 1026.6 181.49 1026.75 181.31 1027.18 180.89 1027.58 180.439 1027.95 179.96 1028.93 178.516 1030.35 177.423 1032 176.84 1034.2 176.041 1036.1 174.598 1037.46 172.7 1037.49 172.612 1037.49 172.518 1037.46 172.43 1037.46 171.59 1036.92 170.78 1037.19 170.3 1037.82 169.07 1038.09 167.51 1039.65 166.85 1040.07 166.7 1040.4 166.22 1040.79 165.83L1044.72 165.83C1045.94 165.8 1047.15 166.146 1048.17 166.82 1048.59 167.1 1048.89 167.529 1049.01 168.02 1049.09 168.718 1049.09 169.422 1049.01 170.12 1047.94 170.268 1046.97 170.828 1046.31 171.68 1045.08 173.143 1043.65 174.434 1042.08 175.52 1041.48 175.993 1040.92 176.514 1040.4 177.08 1040.1 177.38 1039.77 177.89 1039.47 177.89 1038.27 177.89 1038.27 179.03 1037.64 179.54 1037.01 180.05 1037.25 181.25 1037.46 182.15 1038.24 184.005 1038.35 186.075 1037.76 188 1037.4 188.81 1037.76 189.38 1038.78 189.83L1041 191C1041 192.29 1042.11 191.63 1042.62 192.11 1043.13 192.59 1044.18 192.53 1045.05 192.29 1046.79 191.81 1048.59 191.48 1050.33 190.97 1053.07 190.386 1055.85 189.975 1058.64 189.74 1058.91 190.964 1060.07 191.783 1061.31 191.63 1061.65 191.61 1061.99 191.683 1062.3 191.84 1062.66 192.05 1063.02 192.35 1062.75 192.86 1060.57 192.636 1058.39 193.331 1056.75 194.78 1056.3 195.013 1055.79 195.127 1055.28 195.11 1054.58 195.076 1053.89 194.965 1053.21 194.78 1050.13 194.105 1046.91 194.631 1044.21 196.25 1044.07 197.146 1044.19 198.065 1044.57 198.89 1045.05 199.85 1046.16 199.31 1046.64 199.73L1046.64 203.3C1046.63 204.21 1046 204.994 1045.11 205.19 1044.35 205.465 1043.49 205.164 1043.07 204.47 1042.47 203.78 1041.78 203.12 1041.24 202.55 1039.75 202.502 1038.38 203.37 1037.79 204.74 1036.97 206.262 1036.71 208.027 1037.07 209.72 1037.07 210.41 1037.37 211.1 1037.46 211.79 1037.64 212.507 1037.39 213.262 1036.83 213.74L1033.8 213.74C1033.8 214.25 1033.98 214.79 1033.8 215.03 1033.26 215.826 1032.33 216.271 1031.37 216.2 1030.17 216.092 1029.11 215.364 1028.58 214.28 1026.7 214.257 1024.86 214.745 1023.24 215.69 1022.48 216.083 1021.7 216.433 1020.9 216.74 1020.24 216.98 1019.55 217.07 1018.92 217.37 1018.3 217.738 1017.7 218.139 1017.12 218.57L1014.33 216.41 1014.33 216.41C1013.43 215.787 1012.23 215.787 1011.33 216.41 1010.59 216.841 1009.81 217.183 1008.99 217.43 1008.51 217.592 1008 217.592 1007.52 217.43 1007.34 217.43 1007.34 216.83 1007.22 216.44L1004.85 215.66C1004.46 214.97 1004.04 214.31 1003.71 213.62 1003.31 213.069 1003.44 212.3 1003.99 211.903 1004.02 211.884 1004.04 211.867 1004.07 211.85 1004.09 211.44 1004.17 211.036 1004.31 210.65 1004.62 210.045 1005 209.481 1005.45 208.97 1005.96 208.552 1006.5 208.181 1007.07 207.86 1005.33 206.6 1005.3 206.51 1005.81 204.86 1005.89 204.605 1005.98 204.355 1006.08 204.11 1006.26 203.703 1006.08 203.223 1005.68 203.038 1005.67 203.035 1005.67 203.032 1005.66 203.03 1005.26 202.954 1004.84 203.053 1004.52 203.3 1003.95 203.833 1003.42 204.404 1002.93 205.01 1002.21 204.964 1001.49 204.964 1000.77 205.01 1000.56 205.01 1000.44 205.49 1000.26 205.76L1001.07 206.09C1001.46 207.29 1000.05 206.9 999.66 207.65 1000.02 208.91 999.21 210.65 1000.71 211.7 1000.83 211.831 1000.89 212.003 1000.89 212.18 1001.29 214 1001.57 215.844 1001.73 217.7 1001.37 217.94 1001.01 218.12 1000.68 218.39L999.72 219.35C998.49 218.48 997.32 218.27 996.24 219.35 996.06 219.56 995.61 219.5 995.28 219.56 994.415 219.614 993.554 219.714 992.7 219.86 991.8 220.04 991.65 220.52 991.92 221.63 991.97 221.968 991.97 222.312 991.92 222.65L989.7 221.81C989.317 222.745 988.823 223.632 988.23 224.45 987.45 225.29 988.44 226.37 987.6 227.21 985.148 227.567 982.774 228.338 980.58 229.49 980.496 229.936 980.436 230.387 980.4 230.84 980.431 231.851 979.716 232.732 978.72 232.91 977.408 233.195 976.3 234.069 975.72 235.28 974.215 235.543 972.672 235.113 971.52 234.11 971.52 234.11 970.95 234.11 970.59 234.11 971.04 235.34 971.73 236.3 971.1 237.62 969.72 237.62 968.28 238.28 966.9 237.29 966.661 237.185 966.389 237.185 966.15 237.29L962.88 238.01 963.39 240.2C964.68 240.62 965.91 241.07 967.17 241.37 968.304 241.599 969.243 242.391 969.66 243.47 970.214 244.833 971.206 245.973 972.48 246.71 972.79 249.566 972.566 252.455 971.82 255.23 971.683 256.398 970.625 257.234 969.456 257.097 969.343 257.084 969.23 257.061 969.12 257.03 967.059 256.791 964.985 256.671 962.91 256.67 960.24 256.52 957.6 256.1 954.9 256.07 954.48 256.07 954.09 255.77 953.67 255.71 953.336 255.618 952.984 255.618 952.65 255.71 951.57 256.34 950.49 257.03 949.32 257.78 949.53 258.23 949.74 258.68 949.92 259.16 950.157 259.615 950.29 260.117 950.31 260.63 950.207 261.761 950.319 262.901 950.64 263.99 950.775 264.663 950.775 265.357 950.64 266.03 950.414 267.672 949.864 269.253 949.02 270.68 948.796 271.203 948.664 271.762 948.63 272.33L950.37 273.59 950.37 278C951.556 278.341 952.814 278.341 954 278 955.5 277.55 956.34 278 957.24 279.5 957.42 279.8 957.57 280.1 957.72 280.4 958.079 281.06 958.768 281.473 959.52 281.48 961.283 279.897 963.654 279.173 966 279.5 967.282 279.483 968.559 279.333 969.81 279.05 970.319 277.879 971.318 276.99 972.54 276.62 972.85 276.466 973.11 276.226 973.29 275.93L975.6 272.75C975.517 272.551 975.417 272.361 975.3 272.18 974.6 271.122 974.712 269.724 975.57 268.79 976.29 267.83 977.1 266.9 977.76 265.79 978.161 265.108 978.841 264.637 979.62 264.5 981.039 264.082 982.393 263.466 983.64 262.67 984.468 262.297 984.928 261.401 984.75 260.51 984.75 260.27 984.75 260.03 984.57 259.76 984.27 257.99 984.42 257.66 985.92 256.76L987.24 256.1C988.124 256.246 989.015 256.336 989.91 256.37 990.87 256.37 991.44 257.12 992.28 257.33 993.185 257.676 994.208 257.478 994.92 256.82 995.698 256.129 996.591 255.58 997.56 255.2 998.452 254.883 999.262 254.37 999.93 253.7 1000.26 253.34 1000.86 252.89 1001.22 252.98 1002.39 253.29 1003.53 253.691 1004.64 254.18 1005.27 254.45 1005.42 255.05 1005.63 255.65 1006.01 257.076 1006.81 258.358 1007.91 259.34 1009.29 260.39 1010.52 261.62 1011.84 262.73 1012.26 263.156 1012.79 263.466 1013.37 263.63 1014.81 263.958 1016.14 264.627 1017.27 265.58 1018.05 266.09 1018.98 266.39 1019.4 267.38 1019.58 267.673 1019.86 267.896 1020.18 268.01 1022.22 268.76 1022.1 270.68 1022.61 272.24L1021.47 274.13C1021.2 274.13 1021.14 274.34 1021.05 274.34 1018.8 275.185 1016.37 275.413 1014 275 1013.52 274.82 1012.83 275.18 1012.29 275.39 1011.75 275.6 1012.14 275.84 1012.05 276.11L1018.05 279.29C1018.53 279.556 1019.13 279.383 1019.4 278.905 1019.48 278.748 1019.53 278.57 1019.52 278.39 1019.52 278.03 1019.37 277.7 1019.37 277.37 1019.35 276.482 1019.75 275.638 1020.45 275.09L1021.92 275.09 1022.88 274.1C1023.54 273.35 1023.57 272.18 1024.74 271.7 1025.19 271.52 1025.04 270.74 1024.74 270.32 1024.36 269.917 1023.95 269.546 1023.51 269.21 1023.54 268.158 1024.15 267.209 1025.1 266.75 1025.84 266.936 1026.56 267.176 1027.26 267.47 1027.82 267.884 1028.33 268.357 1028.79 268.88 1028.79 268.19 1028.97 267.77 1028.79 267.62 1028.21 266.982 1027.54 266.427 1026.81 265.97 1025.19 265.01 1023.48 264.2 1021.86 263.36L1021.86 261.95C1018.86 262.238 1016.12 260.262 1015.44 257.33 1015.21 256.573 1014.69 255.937 1014 255.56L1012.47 254.57C1011.61 254.092 1011.1 253.153 1011.18 252.17 1011.24 251.171 1011.24 250.169 1011.18 249.17 1012.59 248.78 1013.76 247.7 1015.35 248.21 1015.56 249.17 1014.75 250.28 1016.07 250.85L1017.48 249.68C1018.23 249.809 1018.82 250.398 1018.95 251.15 1019.47 253.674 1021.4 255.671 1023.9 256.28 1024.55 256.511 1025.16 256.824 1025.73 257.21 1026.72 257.87 1027.65 258.68 1028.73 259.25 1030.19 260.04 1031.46 261.123 1032.48 262.43 1032.48 263.39 1032.48 264.35 1032.18 265.43 1031.99 266.29 1032.23 267.19 1032.84 267.83 1033.2 268.201 1033.51 268.614 1033.77 269.06 1034.32 270.143 1035.17 271.04 1036.23 271.64 1036.41 271.64 1036.65 272 1036.62 272.18 1036.44 273.35 1037.25 273.62 1038.09 273.95 1038.09 273.95 1038.27 274.22 1038.36 274.37L1037.31 275.69C1038.22 276.429 1038.76 277.521 1038.81 278.69 1040.07 278.06 1040.91 279.95 1042.26 278.9L1041.84 277.01C1042.95 276.62 1042.68 275.99 1042.35 275.36L1045.11 275.36 1045.65 274.22 1045.65 274.22C1045.47 273.17 1045.11 272.75 1044.27 273.05 1043.5 273.339 1042.63 273.151 1042.05 272.57 1042.05 271.79 1042.23 270.95 1042.35 270.14 1041.84 269.09 1040.67 268.19 1041.69 266.72 1042.11 266.965 1042.55 267.176 1043.01 267.35 1043.42 267.47 1043.86 267.47 1044.27 267.35 1044.51 267.35 1044.66 266.81 1044.72 266.51 1044.78 266.21 1045.23 265.88 1045.65 265.76 1047.58 264.911 1049.8 265.011 1051.65 266.03 1052.6 266.649 1053.83 266.637 1054.77 266 1056.04 264.984 1057.75 264.721 1059.27 265.31 1059.56 265.018 1059.89 264.775 1060.26 264.59 1059.45 264.383 1058.66 264.112 1057.89 263.78 1057.45 263.507 1057.09 263.124 1056.84 262.67 1056.39 261.86 1056 260.99 1055.58 260.12 1056.93 257.12 1056.93 257.12 1058.22 256.37 1057.93 254.204 1059.17 252.125 1061.22 251.36L1061.58 249.23 1065.18 245.57C1066.3 245.19 1067.51 245.19 1068.63 245.57 1068.81 247.01 1069.05 247.28 1070.25 247.22 1071.45 247.16 1072.14 246.86 1073.01 247.73 1072.74 248.9 1071.21 248.63 1070.67 249.77L1072.8 251.03 1073.16 253.16C1073.67 253.16 1074.21 253.16 1074.45 253.16 1075.4 252.54 1076.4 252.018 1077.45 251.6 1078.2 251.197 1079.07 251.049 1079.91 251.18 1080.51 251.18 1080.9 250.94 1080.72 250.1L1079.79 250.1C1078.44 250.494 1077.02 249.718 1076.63 248.366 1076.59 248.246 1076.57 248.124 1076.55 248 1076.41 247.48 1076.63 246.927 1077.09 246.65 1077.31 246.518 1077.54 246.398 1077.78 246.29 1081.25 244.733 1084.95 243.721 1088.73 243.29 1088.73 243.29 1088.97 243.47 1089.12 243.56 1088.23 244.589 1087.09 245.382 1085.82 245.87L1086.39 247.13C1085.28 248.3 1084.8 250.13 1082.91 250.58 1083.87 251.93 1083.87 251.93 1084.86 252.44 1085.85 252.95 1087.14 253.58 1088.22 254.24 1090.32 254.24 1092.39 254.24 1094.49 254.51 1098.75 254.723 1102.94 255.741 1106.82 257.51 1108.29 258.355 1109.84 259.058 1111.44 259.61 1112.27 259.837 1113.13 259.918 1113.99 259.85L1113.99 259.85C1113.53 259.227 1113.24 258.492 1113.15 257.72 1113.37 255.922 1112.43 254.181 1110.81 253.37L1113.54 249.05C1115.33 248.431 1116.99 247.485 1118.43 246.26 1119.97 245.299 1121.62 244.524 1123.35 243.95 1123.84 243.771 1124.39 243.771 1124.88 243.95L1125.45 244.19C1125.6 240.982 1126.32 237.825 1127.55 234.86 1128.42 231.952 1130.22 229.41 1132.68 227.63 1135.31 226.536 1138.15 226.074 1140.99 226.28 1142.15 226.385 1143.31 226.385 1144.47 226.28 1145.37 226.1 1145.37 225.23 1145.37 224.45 1145.34 222.855 1145.15 221.266 1144.8 219.71 1144.39 218.126 1144.46 216.459 1144.98 214.91 1142.96 214.257 1141.64 212.319 1141.77 210.2 1142.28 207.901 1143.31 205.748 1144.77 203.9 1145.4 202.94 1146.03 201.98 1146.63 200.9 1147.23 199.82 1147.98 198.38 1148.64 197.12 1150.14 194.3 1151.64 191.45 1152.93 188.54 1154.29 185.671 1155.29 182.649 1155.93 179.54 1156.16 178.031 1156.29 176.507 1156.32 174.98 1156.27 173.405 1156.07 171.837 1155.72 170.3 1155.09 168.011 1155.61 165.558 1157.13 163.73 1157.85 163.101 1158.61 162.519 1159.41 161.99 1160.47 161.107 1161.41 160.1 1162.23 158.99 1164.14 156.262 1165.27 153.069 1165.5 149.75L1165.5 149.75C1164.11 149.232 1162.78 148.557 1161.54 147.74ZM1004.52 177.23C1004.41 176.954 1004.29 176.684 1004.16 176.42L1007.16 176C1006.74 177.14 1005.69 177.17 1004.52 177.23ZM1007.52 175.85C1007.47 175.501 1007.47 175.149 1007.52 174.8 1007.52 174.8 1007.91 174.62 1008.12 174.56 1008.33 174.5 1008.36 175.1 1008.27 175.19 1008.03 175.495 1007.74 175.767 1007.43 176ZM1026.54 194.39C1026.82 194.555 1027.01 194.827 1027.08 195.14 1027.08 195.44 1026.42 195.74 1026.03 195.53 1025.64 195.32 1024.86 194.84 1024.11 194.42 1024.85 194.094 1025.7 194.083 1026.45 194.39ZM1002.84 204.8 1002.84 204.8C1003.2 204.74 1003.02 204.77 1002.84 204.8ZM1042.23 275C1042.23 275 1042.23 275.42 1042.23 275.66 1041.39 275.526 1040.61 275.151 1039.98 274.58 1041.15 274.01 1041.69 274.1 1042.23 275ZM1069.92 191.63C1069.26 191.554 1068.6 191.554 1067.94 191.63 1067.38 191.917 1066.86 192.269 1066.38 192.68 1066.08 192.393 1065.79 192.082 1065.54 191.75L1062.54 186.95C1062.72 186.611 1062.94 186.298 1063.2 186.02 1063.83 185.515 1064.5 185.044 1065.18 184.61 1066.74 185.51 1068.18 186.35 1069.77 187.37 1070.37 187.79 1070.64 188.6 1071.15 189.32Z"/><path d="M932.49 168.17C931.59 167.9 932.25 166.49 931.14 166.49 930.93 165.44 929.94 166.16 929.43 165.74 929.032 165.31 928.553 164.964 928.02 164.72 927.18 164.51 927.27 165.5 926.85 165.86 926.43 166.22 926.58 166.13 926.43 166.13 925.516 166.253 924.62 166.485 923.76 166.82 923.34 166.82 922.83 166.52 922.38 166.34L921.57 167C919.59 165.89 919.56 165.89 918.09 167.9L916.26 166.64C916.26 166.97 915.99 167.12 915.99 167.27 915.99 168.5 915.99 168.47 914.76 168.89 914.343 169.07 913.95 169.302 913.59 169.58 912.36 169.01 912.48 168.05 912.72 167.09 912.06 166.55 911.43 166.1 910.86 165.56 910.677 165.304 910.535 165.02 910.44 164.72L910.44 164.72 909 167C908.25 167.24 906.93 165.53 906.48 167.57 906.48 167.96 907.38 167.84 907.05 168.47 906.72 169.1 905.61 168.14 905.34 169.37 906.007 169.372 906.672 169.291 907.32 169.13 908.487 168.755 909.754 168.841 910.86 169.37 910.86 169.37 911.04 169.61 911.13 169.76L910.56 170.6C910.56 171.08 911.37 170.87 911.13 171.38L906.63 172.25 906.63 172.43 909.42 172.64C910.17 173.36 910.8 173.84 911.31 174.38 911.738 174.746 911.789 175.39 911.423 175.818 911.305 175.956 911.152 176.061 910.98 176.12 910.53 176.39 910.02 176.57 909.3 176.9 909.57 176.92 909.84 176.92 910.11 176.9 912.163 176.349 914.354 176.721 916.11 177.92 918.46 179.116 921.268 178.979 923.49 177.56 923.836 177.298 924.235 177.113 924.66 177.02 926.21 176.546 927.733 175.985 929.22 175.34 930.877 174.939 932.385 174.075 933.57 172.85 934.14 172.25 934.65 171.59 935.13 171.02L934.71 169.1C933.995 168.735 933.252 168.424 932.49 168.17Z"/></g></svg>