<svg width="288" height="288" xmlns="http://www.w3.org/2000/svg" xmlns:xlink="http://www.w3.org/1999/xlink" xml:space="preserve" overflow="hidden"><defs><clipPath id="clip0"><rect x="507" y="168" width="288" height="288"/></clipPath></defs><g clip-path="url(#clip0)" transform="translate(-507 -168)"><path d="M667.5 406.5C687 382.5 708.6 352.2 710.7 318L746.7 318C744 362.7 710.7 399 667.5 406.5ZM555.3 318 591.3 318C593.7 352.2 615 382.5 634.5 406.5 591.3 399 558 362.7 555.3 318ZM634.5 217.5C615 241.5 593.4 271.8 591.3 306L555.3 306C558 261.3 591.3 225 634.5 217.5ZM657 318 698.7 318C696.3 348.9 676.2 376.8 657 400.5L657 318ZM645 318 645 400.5C625.8 376.8 605.7 348.9 603.3 318L645 318ZM657 223.5C676.2 247.2 696.3 274.8 698.7 306L657 306 657 223.5ZM645 306 603.3 306C605.7 275.1 625.8 247.2 645 223.5L645 306ZM746.7 306 710.7 306C708.6 271.8 687 241.5 667.5 217.5 710.7 225 744 261.3 746.7 306ZM651 198C588 198 537 249 537 312 537 375 588 426 651 426 714 426 765 375 765 312 765 249 714 198 651 198Z"/></g></svg>