<svg width="288" height="288" xmlns="http://www.w3.org/2000/svg" xmlns:xlink="http://www.w3.org/1999/xlink" xml:space="preserve" overflow="hidden"><defs><clipPath id="clip0"><rect x="81" y="352" width="288" height="288"/></clipPath></defs><g clip-path="url(#clip0)" transform="translate(-81 -352)"><path d="M351.33 413.74C349.66 413.182 347.898 412.947 346.14 413.05 345.164 412.997 344.224 413.422 343.62 414.19 343.383 414.447 343.11 414.669 342.81 414.85 341.881 414.378 340.803 414.292 339.81 414.61L339 413.89 338.64 414.07C337.387 414.965 336.05 415.739 334.65 416.38 334.068 416.552 333.541 416.873 333.12 417.31 332.939 417.607 332.558 417.712 332.25 417.55 333.143 416.344 334.264 415.325 335.55 414.55 336.197 414.136 336.556 413.394 336.48 412.63 336.46 412.343 336.271 412.095 336 412 335.25 412 334.5 412 333.75 412.18 333.443 412.213 333.183 412.425 333.09 412.72 333.031 412.894 332.961 413.064 332.88 413.23L328.32 414.37C328.123 414.415 327.917 414.415 327.72 414.37 327.72 414.37 327.72 414.16 327.45 413.98L328.44 413.56 329.91 413.17C330.36 413.17 330.63 412.75 330.54 412.48 330.45 412.21 330.06 412.15 329.76 412.15 328.32 412.15 326.76 412.15 325.41 412.15 324.06 412.15 322.41 412.48 321.15 412.66 320.106 412.749 319.088 413.034 318.15 413.5 317.67 413.74 317.46 413.5 317.31 412.78L321.63 411.61 322.05 411.61C322.44 411.61 322.86 411.61 323.25 411.61 325.046 411.43 326.854 411.43 328.65 411.61 329.288 411.684 329.932 411.684 330.57 411.61 331.495 411.381 332.439 411.24 333.39 411.19 334.309 411.082 335.149 410.619 335.73 409.9 334.5 409.15 333 409.42 331.68 408.97 331.154 408.882 330.616 408.882 330.09 408.97 330.09 408.64 330.45 408.34 330.09 407.98 329.807 407.766 329.434 407.709 329.1 407.83L329.1 407.83C327.38 408.205 325.6 408.205 323.88 407.83 323.641 407.801 323.399 407.801 323.16 407.83 322.003 407.784 320.846 407.936 319.74 408.28 318.753 408.476 317.742 408.527 316.74 408.43 316.994 408.073 317.412 407.87 317.85 407.89 318.503 407.901 319.156 407.851 319.8 407.74 320.942 407.575 322.097 407.514 323.25 407.56 324.69 407.56 326.25 407.56 327.6 407.56 327.976 407.496 328.341 407.375 328.68 407.2 328.453 407.055 328.212 406.935 327.96 406.84 326.98 406.592 325.966 406.511 324.96 406.6 323.79 406.9 322.86 405.94 321.72 406.09 321.57 406.105 321.42 406.105 321.27 406.09L319.35 406.09C317.929 405.705 316.435 405.674 315 406 314.814 406.058 314.616 406.058 314.43 406 313.23 405.7 312.06 406.27 310.86 406 310.86 406 310.56 406 310.5 406.21 310.36 406.43 310.082 406.519 309.84 406.42 308.88 405.97 308.07 406.57 307.02 406.72 307.56 407.62 308.55 407.14 309.21 407.59L306.78 408.19 307.05 409.09 305.34 408.19 305.34 407.77C304.444 407.658 303.536 407.658 302.64 407.77 302.143 407.726 301.661 407.572 301.23 407.32 300.713 406.972 300.037 406.972 299.52 407.32 298.998 407.636 298.368 407.723 297.78 407.56 297.307 407.432 296.802 407.569 296.46 407.92 296.46 408.28 296.7 408.58 297.15 408.58 297.6 408.58 298.35 408.58 298.95 408.58 300.645 408.564 302.337 408.745 303.99 409.12 304.83 409.3 304.92 409.42 304.83 410.47 304.032 409.931 303.116 409.591 302.16 409.48 301.98 409.63 302.16 410.02 301.77 410.02 301.05 409.24 301.05 409.21 300.15 409.21L296.82 409.21C296.64 409.21 296.4 409.21 296.37 409.57L298.08 410.38C298.242 410.497 298.383 410.638 298.5 410.8 297.66 411.04 297.63 411.1 297.33 410.8 296.63 410.23 295.792 409.857 294.9 409.72 294.21 409.51 293.88 409.72 292.95 410.02 293.244 410.492 293.723 410.819 294.27 410.92 294.856 411.038 295.422 411.24 295.95 411.52 296.335 411.73 296.786 411.783 297.21 411.67 297.21 411.91 297.21 412.12 297.36 412.36 297.51 412.6 297.69 412.75 297.36 413.11 297.13 413.126 296.9 413.126 296.67 413.11 295.972 413.063 295.308 412.789 294.78 412.33 294.543 412.172 294.278 412.06 294 412 292.584 411.735 291.204 411.302 289.89 410.71 288.915 410.437 287.9 410.336 286.89 410.41 287.37 411.58 287.4 411.55 288.06 411.97 288.72 412.39 288.84 412.18 288.96 412.72L287.73 413.23 287.73 413.23 284.52 412.33 284.52 412.33C284.19 412.33 283.83 412.33 283.62 412.69 283.562 412.881 283.459 413.056 283.32 413.2L282.36 414.01 282.18 414.01C281.97 413.71 282.18 413.44 282.18 413.17 282.487 412.383 282.099 411.496 281.311 411.188 281.014 411.072 280.689 411.052 280.38 411.13L279.66 411.28C278.796 411.5 277.911 411.631 277.02 411.67 276.012 411.776 275.011 411.936 274.02 412.15 273.781 412.228 273.55 412.328 273.33 412.45 274.05 412.9 274.8 413.17 274.89 414.01 274.5 413.86 274.08 413.86 273.78 413.44 273.575 413.231 273.315 413.085 273.03 413.02 271.895 412.668 270.661 412.844 269.67 413.5L270.3 414.55C269.67 414.94 270.12 415.45 270.06 415.87 269.656 416.21 269.086 416.27 268.62 416.02 268.144 415.731 267.575 415.634 267.03 415.75 265.92 416.2 264.66 416.14 263.73 417.04 263.425 417.37 263.028 417.6 262.59 417.7 261.739 417.971 260.923 418.344 260.16 418.81 259.92 418.81 259.68 419.05 259.71 419.41 259.977 419.765 260.408 419.958 260.85 419.92 261.285 419.971 261.716 420.051 262.14 420.16 262.59 420.16 262.98 419.8 263.43 420.16L263.7 422.26C262.998 423.212 261.883 423.77 260.7 423.76 259.261 423.608 257.813 423.946 256.59 424.72 256.417 424.825 256.222 424.887 256.02 424.9 255.387 425.02 254.765 425.19 254.16 425.41 253.47 425.74 252.75 425.41 252.12 425.77L251.97 425.77C250.95 426.04 250.86 426.13 250.8 427.33 251.779 428.099 253.007 428.483 254.25 428.41 254.25 428.41 254.61 428.41 254.64 428.41 254.82 429.04 255.36 428.41 255.66 428.74 255.96 429.07 255.84 429.37 256.14 429.46 256.44 429.55 257.28 429.04 257.79 429.16 258.419 429.325 259.081 429.325 259.71 429.16 259.89 429.16 260.07 428.95 260.25 428.95 260.548 428.905 260.852 428.905 261.15 428.95 261.443 429.003 261.638 429.284 261.585 429.578 261.581 429.599 261.576 429.62 261.57 429.64 261.254 429.96 260.819 430.133 260.37 430.12 259.68 430.12 258.96 430.12 258.27 430.12 258.03 430.12 257.64 430.12 257.58 430.3 257.52 430.48 256.95 430.66 256.59 430.6 255.583 430.388 254.535 430.492 253.59 430.9 253.517 430.98 253.456 431.071 253.41 431.17L254.34 431.92 255.42 431.59C255.496 431.998 255.879 432.275 256.29 432.22L257.79 432.22C257.97 432.22 258.21 432.22 258.27 432.58 257.7 432.85 256.95 432.76 256.47 433.3 257.491 434.186 258.808 434.658 260.16 434.62L260.16 433.87C260.67 433.57 261.03 434.38 261.48 433.87 261.671 433.733 261.909 433.679 262.14 433.72 262.38 433.72 262.5 434.14 262.68 434.35 263.199 434.222 263.711 434.061 264.21 433.87 264.57 433.72 264.81 433.6 265.17 433.87 265.53 434.14 265.65 433.87 265.83 433.87 266.103 433.57 266.536 433.474 266.91 433.63L268.08 433.84C268.869 433.954 269.65 434.114 270.42 434.32 271.68 434.71 272.91 435.25 274.17 435.7 274.624 435.803 274.932 436.226 274.89 436.69 274.89 437.5 275.28 437.86 275.94 438.13 276.505 438.299 276.999 438.647 277.35 439.12 277.558 439.324 277.802 439.487 278.07 439.6 278.179 440.236 278.381 440.853 278.67 441.43 279 441.97 278.85 442.72 279.45 443.14 279.602 443.269 279.698 443.452 279.72 443.65 279.799 444.135 280.098 444.555 280.53 444.79 280.878 445.015 280.978 445.479 280.753 445.827 280.695 445.916 280.619 445.992 280.53 446.05 280.378 446.178 280.206 446.279 280.02 446.35 280.38 447.01 280.38 447.01 280.02 447.34 279.897 447.431 279.767 447.511 279.63 447.58L279.63 447.58 280.17 448.15 279.6 448.54C279.368 448.668 279.284 448.96 279.412 449.193 279.456 449.271 279.521 449.336 279.6 449.38 280.134 449.66 280.746 449.755 281.34 449.65 281.52 449.65 281.82 449.47 281.82 449.35 281.82 448.6 282.66 448.6 282.93 448.12 283.375 448.221 283.73 448.553 283.86 448.99L283.86 448.99C284.1 448.75 284.28 448.81 284.43 448.99 284.58 449.17 283.56 449.47 283.62 450.1 283.68 450.73 284.37 450.1 284.7 449.8L284.7 449.8 285.66 449.29C285.957 449.869 286.287 450.43 286.65 450.97 287.159 451.432 287.397 452.122 287.28 452.8 286.691 452.828 286.107 452.682 285.6 452.38 284.46 451.759 283.177 451.449 281.88 451.48 281.67 451.48 281.46 451.66 281.22 451.75 281.94 452.5 281.94 452.47 282.51 452.59 282.959 452.624 283.398 452.746 283.8 452.95 284.689 453.525 285.747 453.778 286.8 453.67 287.13 453.67 287.46 453.67 287.73 453.67 288.24 454.69 286.83 455.11 287.13 456.01L287.28 456.01C287.52 456.01 287.82 456.01 287.82 456.28 287.82 456.55 287.61 456.61 287.34 456.61 287.07 456.61 286.68 456.61 286.65 457.15 286.633 457.37 286.633 457.59 286.65 457.81 286.128 458.06 285.542 458.145 284.97 458.05 284.37 458.05 284.31 458.05 284.07 458.89 284.07 458.89 284.07 459.13 284.07 459.13 283.2 459.4 281.91 461.74 282.36 462.43L283.65 462.91C283.65 463.24 283.05 463.24 283.17 463.66 283.29 464.08 282.51 463.84 282.54 464.5 283.516 465.695 284.342 467.004 285 468.4L285 468.4C284.82 468.85 284.64 469.3 285.21 469.72 285.629 469.088 286.272 468.637 287.01 468.46 287.346 468.353 287.714 468.46 287.94 468.73 287.94 468.91 287.94 469.18 287.94 469.39L287.43 469 286.26 470.62C285.925 471.053 285.925 471.657 286.26 472.09 286.65 472.84 287.49 473.02 287.94 473.68L287.94 474.76C288.274 475.014 288.624 475.245 288.99 475.45 289.35 475.63 289.26 476.35 289.95 476.11L289.95 477.16 290.43 477.16 291.15 477.85C291.916 478.677 293.125 478.919 294.15 478.45 294.36 478.45 294.72 478.45 295.02 478.45L295.02 478.15 295.02 478.15C295.02 478.15 295.02 478.36 295.02 478.39 295.38 478.87 295.59 479.29 296.16 479.5 296.73 479.71 296.55 480.13 296.67 480.46L297.9 480.94 297.9 480.94C298.11 480.64 298.35 480.76 298.56 480.94L298.56 480.94C299.01 480.94 299.46 480.76 299.4 480.1 299.372 479.961 299.372 479.819 299.4 479.68 299.61 479.41 299.91 479.17 299.4 478.81 298.89 478.45 299.4 478.63 299.4 478.6 299.97 478.3 299.85 477.64 300.15 477.22 299.94 476.98 299.94 476.83 300.15 476.65 300.36 476.47 300.54 476.32 300.51 476.23 300.48 476.14 300.75 475.3 300.27 474.97 299.79 474.64 299.97 474.37 300.27 474.01 300.378 473.732 300.69 473.594 300.968 473.701 300.976 473.704 300.983 473.707 300.99 473.71 301.145 473.719 301.296 473.665 301.41 473.56 301.62 473.56 301.62 473.26 301.41 473.11 301.39 473.001 301.39 472.889 301.41 472.78L302.37 472.78C302.13 471.79 303.39 471.85 303.57 471.04L303.57 470.47C303.3 470.17 302.79 470.47 302.67 469.93 303 469.779 303.32 469.609 303.63 469.42 303.812 469.277 303.844 469.013 303.7 468.83 303.68 468.804 303.656 468.78 303.63 468.76 303.63 468.76 303.48 468.76 303.39 468.58 303.3 468.4 302.94 468.28 303.03 467.98 303.12 467.68 303.48 467.68 303.78 467.65L304.56 467.65 304.71 467.44 304.71 467.14C304.71 466.27 304.71 466.21 305.64 466.21 306.286 466.305 306.945 466.2 307.53 465.91L308.34 464.26 308.94 464.26C308.94 464.98 308.25 465.43 308.34 466.09 308.52 466.09 308.67 466.09 308.7 466.09 309.304 465.475 310.119 465.111 310.98 465.07 311.222 465.059 311.449 464.951 311.61 464.77 311.946 464.402 312.404 464.167 312.9 464.11 313.236 464.029 313.546 463.864 313.8 463.63 314.479 463.13 315.025 462.47 315.39 461.71 315.84 460.756 316.633 460.006 317.61 459.61 317.61 459.61 317.61 459.61 317.82 459.31L317.31 457.9 318.3 458.71C318.962 459.186 319.818 459.299 320.58 459.01 321.21 458.8 321.75 458.35 322.47 458.59 322.47 458.59 322.65 458.59 322.77 458.59L326.97 457.57C327.566 457.448 328.123 457.18 328.59 456.79 328.98 456.411 329.413 456.079 329.88 455.8 331.2 455.05 332.55 454.36 333.9 453.61 332.884 453.555 331.877 453.384 330.9 453.1 329.449 452.769 327.941 452.769 326.49 453.1 326.49 453.1 326.25 453.28 326.13 453.34 325.5 453.73 325.35 453.73 324.33 453.34L326.91 452.62 326.91 452.29 325.89 452.29C326.158 452.003 326.574 451.908 326.94 452.05 326.94 451.78 327.3 451.81 327.63 451.78 328.018 451.746 328.401 451.666 328.77 451.54 328.969 451.421 329.033 451.163 328.914 450.964 328.878 450.905 328.829 450.855 328.77 450.82 328.577 450.683 328.346 450.61 328.11 450.61 327.39 450.61 326.67 450.88 325.95 451.03L325.95 451.03 325.17 451.72 324.36 452.5C324.36 452.2 324.09 452.02 324.12 451.9 324.15 451.78 324.48 451.3 324.57 450.97 324.66 450.64 324.93 450.19 325.41 450.4 326.312 450.695 327.294 450.62 328.14 450.19 328.38 450.19 328.53 449.77 328.77 449.47 328.478 449.332 328.177 449.212 327.87 449.11 327.45 449.11 327.06 449.11 326.67 449.11 326.28 449.11 326.07 449.11 325.95 448.93 325.406 448.329 324.713 447.884 323.94 447.64 324.12 447.64 324.18 447.43 324.27 447.43 324.866 447.485 325.426 447.739 325.86 448.15 326.282 448.584 326.877 448.804 327.48 448.75 328.148 448.678 328.814 448.897 329.31 449.35 329.458 449.484 329.65 449.559 329.85 449.56 330.63 449.56 330.93 450.19 331.17 450.79 331.465 451.671 332.312 452.248 333.24 452.2 333.416 452.145 333.565 452.028 333.66 451.87 333.66 451.72 333.66 451.45 333.93 451.42 334.2 451.39 334.47 452.38 335.25 451.99 335.198 451.079 335.057 450.174 334.83 449.29L333.9 449.53C334.05 448.81 333.09 448.57 333.36 447.76 332.306 447.131 331.202 446.589 330.06 446.14 330.06 445.75 330.06 445.36 329.64 445.21 329.278 445.046 328.862 445.046 328.5 445.21 328.193 445.421 327.787 445.421 327.48 445.21L329.61 444.43C330.24 444.19 330.54 444.28 330.69 444.97 330.799 445.52 331.185 445.973 331.71 446.17 332.43 446.5 333.18 446.77 333.93 447.04 333.93 447.04 333.93 447.04 334.17 447.04L333.78 446.47 334.14 446.14 333 445.24C333.366 445.315 333.737 445.365 334.11 445.39 334.256 445.379 334.384 445.286 334.44 445.15 334.489 445.045 334.489 444.925 334.44 444.82 333.511 444.477 332.608 444.066 331.74 443.59 330.915 443.174 329.931 443.232 329.16 443.74 328.972 443.9 328.744 444.004 328.5 444.04L326.43 444.22C326.43 444.22 326.04 444.43 326.01 444.04 326.82 444.04 327.54 443.44 328.41 443.65 328.508 443.677 328.612 443.677 328.71 443.65 329.31 443.32 329.94 443.02 330.54 442.66 331.14 442.3 330.96 442.21 331.2 442.12 331.44 442.03 331.59 442.6 331.86 442.78 332.668 443.375 333.647 443.691 334.65 443.68 334.748 443.708 334.852 443.708 334.95 443.68 335.642 443.253 336.447 443.043 337.26 443.08L337.26 442.06 336 441.28C335.768 441.19 335.512 441.19 335.28 441.28 335.06 441.428 334.762 441.368 334.614 441.148 334.591 441.115 334.573 441.078 334.56 441.04 334.38 440.71 334.56 440.47 334.98 440.32 335.508 440.648 336.133 440.785 336.75 440.71 337.26 440.71 337.41 440.35 337.59 439.99 338.28 439.99 339 440.68 339.69 439.75 339.49 439.551 339.257 439.388 339 439.27L337.2 439C336.99 438.49 337.2 437.95 336.66 437.68L336.93 437.26C336.93 436.99 336.33 437.05 336.42 436.63 336.81 436.63 337.2 436.63 337.56 436.81 337.997 436.917 338.427 437.047 338.85 437.2 339.36 436.75 339.15 436.24 338.85 435.7 338.55 435.16 337.83 434.74 336.99 434.65 337.35 434.29 337.95 434.65 338.04 433.93 337.23 433.69 336.36 433.93 335.61 433.72L334.74 432.61 334.32 432.97 334.08 432.7C334.08 432.46 333.84 432.25 334.08 432.01 334.32 431.77 334.56 431.59 334.86 431.8 335.286 432.088 335.844 432.088 336.27 431.8 337.103 431.326 338.104 431.249 339 431.59 339.427 431.728 339.871 431.808 340.32 431.83 340.517 431.826 340.702 431.739 340.83 431.59 341.071 431.248 341.071 430.792 340.83 430.45 340.62 430.18 340.26 430.12 339.78 430.45L339.42 430.6C339.015 430.379 338.594 430.188 338.16 430.03 337.662 429.873 337.322 429.412 337.32 428.89L339.69 429.1C339.27 428.8 339.12 428.62 338.97 428.59 338.82 428.56 337.8 428.35 337.23 428.17 336.813 427.966 336.31 428.138 336.106 428.555 336.1 428.567 336.095 428.578 336.09 428.59L335.76 429.07 334.95 428.83 335.67 427.42C335.965 426.895 336.206 426.343 336.39 425.77 336.69 424.72 336.66 424.72 337.71 424.6L338.19 424.6C338.19 424.39 338.19 424.09 338.49 423.97 338.961 423.684 339.192 423.125 339.06 422.59 339.06 421.96 339.33 421.3 340.41 421.36L341.01 421.36C341.702 421.399 342.327 420.949 342.51 420.28 342.312 420.242 342.108 420.242 341.91 420.28 341.46 420.28 341.01 420.28 340.56 420.28 339.67 420.134 338.775 420.507 338.25 421.24 337.86 421.24 337.62 420.97 337.74 420.58 337.86 420.19 338.1 419.65 338.79 419.86 339.15 419.32 339.69 419.35 340.26 419.41L343.26 419.59C343.898 419.626 344.51 419.331 344.88 418.81 344.668 418.673 344.435 418.572 344.19 418.51L342.39 418.51C341.918 418.474 341.469 418.296 341.1 418 341.67 417.76 342.12 417.58 342.6 417.43 342.826 417.372 343.064 417.372 343.29 417.43 344.517 417.692 345.791 417.62 346.98 417.22 347.228 417.185 347.465 417.093 347.67 416.95 347.798 416.694 347.889 416.421 347.94 416.14 349.487 416.027 350.972 415.487 352.23 414.58 352.107 414.156 351.762 413.833 351.33 413.74ZM288 413.59C288 413.59 287.73 413.29 287.58 413.14 287.775 413.182 287.966 413.242 288.15 413.32 288.15 413.32 288.15 413.32 288.15 413.53 288.15 413.74 288 413.62 288 413.59ZM330.3 446.23C330 446.47 329.7 446.68 329.25 446.23 329.562 446.075 329.928 446.075 330.24 446.23Z"/><path d="M219.66 413.89C220.03 413.614 220.49 413.486 220.95 413.53 221.141 413.568 221.324 413.639 221.49 413.74 221.49 414.16 220.8 414.04 220.86 414.61L223.86 414.04 224.28 414.04C224.419 414.015 224.561 414.015 224.7 414.04 223.432 414.15 222.242 414.702 221.34 415.6 221.64 415.6 221.88 415.93 222.15 415.9 224.245 415.949 226.337 415.696 228.36 415.15 228.745 415.059 229.136 414.998 229.53 414.97 229.53 414.97 229.17 415.33 228.96 415.48 228.75 415.63 228.96 415.63 228.81 415.72L229.17 415.72 230.16 415.72C229.875 415.955 229.488 416.024 229.14 415.9 228.96 416.5 228.33 416.5 227.94 416.89 227.55 417.28 227.4 417.16 227.52 417.73 228.51 417.73 229.53 417.94 230.52 417.94 231.165 417.977 231.777 417.654 232.11 417.1L234.6 417.1C234.6 417.61 233.76 417.31 233.61 417.85 235.258 417.809 236.888 417.505 238.44 416.95 238.717 416.825 238.963 416.641 239.16 416.41 239.936 415.537 241.001 414.972 242.16 414.82L242.7 414.67 242.7 415C242.49 415 242.34 415 242.13 415 242.13 415.51 241.44 415.45 241.11 415.72 240.78 415.99 240.42 416.11 240.39 416.62 241.41 416.62 242.46 416.38 243.39 416.89 242.918 417.014 242.436 417.094 241.95 417.13 241.32 417.13 240.69 417.31 240.03 417.43 240.03 417.43 240.03 417.43 240.03 417.61L240.72 417.88C239.537 418.225 238.32 418.436 237.09 418.51 235.95 418.78 234.72 418.75 233.49 419.05 233.791 419.533 234.262 419.886 234.81 420.04 235.14 420.04 235.5 420.25 235.62 420.61 235.74 420.97 236.34 421.27 236.85 421.33 237.36 421.39 237.69 421.33 238.08 421.33 237.158 421.97 235.919 421.896 235.08 421.15 234.139 420.481 233.134 419.909 232.08 419.44 231.802 419.327 231.509 419.256 231.21 419.23 230.25 419.23 229.32 419.23 228.21 419.23 227.972 419.188 227.728 419.188 227.49 419.23 227.316 419.357 227.278 419.601 227.405 419.775 227.429 419.807 227.457 419.836 227.49 419.86 227.49 419.86 227.85 419.86 228.03 420.07 228.21 420.28 228.03 420.07 228.03 420.25 228.03 420.43 227.49 420.4 227.67 420.85 227.957 420.986 228.259 421.086 228.57 421.15 229.22 421.238 229.816 421.558 230.25 422.05 230.719 422.495 231.209 422.915 231.72 423.31 231.72 423.31 231.72 423.49 231.72 423.58L230.7 423.58C230.7 423.76 230.88 423.88 230.94 423.88L233.43 424.3C233.88 424.412 234.357 424.336 234.75 424.09L235.32 423.94C235.14 424.57 235.14 424.57 234.96 424.6 234.78 424.63 234.09 424.6 233.7 424.78L234.18 425.59C232.798 424.87 231.268 424.479 229.71 424.45 228.194 424.207 226.675 424.861 225.81 426.13 225.635 426.315 225.635 426.605 225.81 426.79 225.99 426.79 226.17 427.03 226.35 427 226.53 426.97 227.52 426.67 228 427.27 228.335 427.198 228.665 427.108 228.99 427 229.29 427 229.44 426.52 229.83 426.49 229.83 427.24 229.35 427.48 229.02 427.9 229.148 428.427 229.531 428.855 230.04 429.04 230.573 429.159 231.127 429.159 231.66 429.04 231.93 429.04 232.17 429.04 232.44 429.04 232.71 429.04 232.44 428.83 232.44 428.74 232.74 428.05 232.77 428.02 233.73 427.51 233.34 428.35 233.46 428.5 232.59 429.19L231.75 429.19C232.02 429.55 231.75 429.46 231.75 429.61 231.232 429.678 230.708 429.678 230.19 429.61 229.38 429.61 228.54 429.61 227.97 428.65 227.4 427.69 225.93 427.45 224.46 428.23 224.717 428.523 224.938 428.845 225.12 429.19 225.33 429.64 226.08 429.19 226.2 429.94 225.93 430.09 225.6 430.45 225.36 430.39 224.294 430.419 223.256 430.741 222.36 431.32 222.326 431.549 222.326 431.781 222.36 432.01 222.424 432.23 222.549 432.427 222.72 432.58 222.944 432.72 223.239 432.653 223.38 432.43L223.86 431.89 224.37 432.88 225.42 432.88C225.6 432.88 225.81 432.67 225.96 432.73 226.11 432.79 226.89 432.73 227.37 432.73 227.855 432.815 228.328 432.955 228.78 433.15 229.079 433.18 229.381 433.18 229.68 433.15 229.68 433.15 229.68 433.15 229.89 433.15L229.89 432.61C230.346 432.794 230.864 432.738 231.27 432.46 231.93 432.97 232.71 432.46 233.43 432.85 234.15 433.24 234.09 432.85 234.39 432.28 234.39 432.28 234.39 432.07 234.12 432.07L234.12 432.07 234.39 432.07C234.81 432.43 235.14 432.88 235.8 432.67 236.05 432.633 236.303 432.71 236.49 432.88 236.67 433.06 236.67 433.39 236.79 433.69 237.87 433.39 239.04 433.51 239.79 432.67 239.893 432.566 240.035 432.512 240.18 432.52 240.96 432.79 241.17 432.16 241.56 431.8 241.11 430.99 241.08 430.96 240.57 431.17 240.06 431.38 240.21 431.38 240.03 431.44 239.85 431.5 239.4 431.2 239.34 430.87 239.28 430.54 239.04 430 238.53 430.18 238.095 430.27 237.645 430.27 237.21 430.18 236.711 430.135 236.209 430.135 235.71 430.18 235.47 430.166 235.23 430.166 234.99 430.18 234.99 430.18 234.78 430.18 234.78 430.03 234.764 429.921 234.764 429.81 234.78 429.7 235.38 429.7 234.78 429.04 235.26 429.04 236.676 429.69 238.261 429.879 239.79 429.58 240.238 429.523 240.663 429.347 241.02 429.07 241.117 428.955 241.207 428.835 241.29 428.71L240.93 427.45C241.098 427.412 241.272 427.412 241.44 427.45 242.248 427.72 243.122 427.72 243.93 427.45 244.11 427.45 244.32 427.45 244.53 427.45 244.74 427.45 244.53 427.45 244.53 427.27 244.53 427.09 243.9 427.27 243.99 426.73 244.08 426.19 245.04 426.73 245.34 426.28L244.62 425.59 245.28 425.59C245.53 425.604 245.78 425.604 246.03 425.59 246.162 425.538 246.263 425.427 246.3 425.29 246.3 425.14 246.3 424.87 246.06 424.81 245.794 424.691 245.51 424.62 245.22 424.6 244.98 424.6 244.65 424.6 244.5 424.6 243.584 424.092 242.499 423.983 241.5 424.3 241.5 424.3 241.5 424.3 241.29 424.12 241.68 423.64 242.37 424.12 242.76 423.73 242.55 423.37 241.89 423.4 241.92 422.77 242.127 422.584 242.348 422.413 242.58 422.26 242.73 422.26 243.09 422.26 243.09 422.26 243.09 422.26 243.51 422.65 243.78 422.59 244.138 422.431 244.529 422.359 244.92 422.38 246.277 422.518 247.647 422.365 248.94 421.93 248.922 421.69 248.922 421.45 248.94 421.21L248.94 421.21C249.945 421.568 251.053 421.492 252 421 252.24 421 252.66 420.82 252.66 420.73 252.66 419.98 253.44 420.19 253.65 419.74L253.14 419.32 254.4 419.11C254.4 419.11 254.4 418.87 254.4 418.75 255.187 418.66 255.919 418.3 256.47 417.73 256.605 417.587 256.768 417.475 256.95 417.4L261.39 415.21C261.87 415 262.41 414.91 262.95 414.73 263.49 414.55 263.43 414.58 263.25 414.13L261.36 414.34 256.71 415.15C256.71 414.85 257.1 414.79 257.37 414.7 258.3 414.37 259.35 414.49 260.16 413.74 260.344 413.674 260.546 413.674 260.73 413.74 261.84 413.74 262.86 412.84 264.03 413.26 264.03 413.26 264.24 413.26 264.33 413.26 266.069 412.82 267.736 412.133 269.28 411.22 269.28 411.22 269.28 411.04 269.28 410.89 269.065 410.711 268.822 410.569 268.56 410.47 268.045 410.353 267.524 410.262 267 410.2 266.813 410.246 266.617 410.246 266.43 410.2 266.161 410.076 265.917 409.902 265.71 409.69 265.484 409.475 265.273 409.245 265.08 409 264.537 409.114 263.973 409.061 263.46 408.85 263.46 408.85 263.25 408.85 263.19 408.85 262.32 409.21 261.3 408.85 260.43 409.33 259.885 409.65 259.227 409.716 258.63 409.51 258.93 409.09 259.59 409.27 259.68 408.73 258.093 408.543 256.527 408.211 255 407.74 254.16 407.74 253.17 407.47 252.54 408.37L251.73 407.77C250.92 408.01 249.99 407.77 249.36 408.43L249.6 409.03C249.135 409.03 248.687 408.86 248.34 408.55 247.905 408.207 247.364 408.026 246.81 408.04L243.96 408.04 243.09 408.04 245.37 409.69C245.37 409.69 245.37 409.69 245.37 409.87 245.37 410.05 245.07 409.87 244.98 409.87 244.436 409.638 243.913 409.357 243.42 409.03 242.995 408.671 242.444 408.498 241.89 408.55 241.094 408.646 240.287 408.574 239.52 408.34 239.138 408.226 238.724 408.304 238.41 408.55L238.41 409.39C237.66 409.39 237.15 408.79 236.46 409.06L236.91 409.87C236.37 410.17 236.07 409.87 235.68 409.87 235.453 409.816 235.217 409.816 234.99 409.87 234.99 410.5 234.15 410.14 233.94 410.68 234.083 410.79 234.233 410.891 234.39 410.98 234.95 411.2 235.52 411.38 236.1 411.52 236.501 411.574 236.844 411.836 237 412.21L233.58 411.31 233.82 412.12C233.64 412.12 233.43 412.12 233.37 412.12 232.599 411.275 231.514 410.786 230.37 410.77 230.19 410.77 230.01 410.59 229.83 410.56 229.65 410.53 229.11 410.56 228.99 410.92 228.87 411.28 228.57 411.31 228.27 411.37 227.97 411.43 227.67 411.37 227.49 411.7 227.82 412.09 228.33 411.85 228.72 412.03 229.11 412.21 229.02 412.36 228.72 412.69 228.05 412.264 227.228 412.155 226.47 412.39 226.286 412.459 226.084 412.459 225.9 412.39 224.991 411.924 223.897 412.017 223.08 412.63 222.68 412.915 222.185 413.034 221.7 412.96 220.568 412.837 219.432 413.148 218.52 413.83 219 413.95 219.3 414.16 219.66 413.89ZM256.59 415.27C256.131 415.483 255.625 415.575 255.12 415.54 255.518 415.176 256.089 415.071 256.59 415.27ZM254.22 418.51 254.4 418.51C254.413 418.579 254.413 418.651 254.4 418.72L254.25 418.54C254.25 418.54 254.19 418.54 254.22 418.51ZM252.69 408.34 252.42 408.34 252.42 408.34Z"/><path d="M252.66 449.83C251.58 448.39 250.32 448.78 249.09 449.56L248.22 449.14 248.22 448.45C247.937 448.554 247.646 448.634 247.35 448.69 247.05 448.69 247.11 449.32 246.69 449.11 246.48 448.36 247.02 448.15 247.47 447.85 247.92 447.55 247.47 447.67 247.47 447.49L246.18 447.22C246.18 446.62 246.18 446.05 245.4 445.96 244.612 445.834 243.839 445.634 243.09 445.36 242.216 445.124 241.283 445.363 240.63 445.99L240.96 446.59C240.48 446.59 240.06 446.59 239.94 447.28 239.972 447.378 239.972 447.482 239.94 447.58 239.94 447.58 239.94 447.58 239.67 447.58L239.67 446.53 238.38 446.32C238.057 446.798 237.611 447.182 237.09 447.43 236.786 447.297 236.648 446.943 236.781 446.64 236.784 446.633 236.787 446.627 236.79 446.62L237.45 445.15C237.21 444.67 237.12 444.1 236.79 443.83 236.438 443.566 236.175 443.199 236.04 442.78 235.931 442.373 235.562 442.089 235.14 442.09 234.197 441.987 233.243 442.1 232.35 442.42L229.89 443.44 230.04 443.83C229.59 443.83 229.56 444.34 229.23 444.52 228.9 444.7 228.75 445.03 228.9 445.51 229 445.847 229.299 446.087 229.65 446.11 229.98 446.11 230.04 446.38 230.07 446.65 230.1 446.92 228.99 446.8 228.9 447.49 228.81 448.18 229.44 448.36 230.04 448.45 230.64 448.54 230.61 448.84 230.46 449.08 230.34 449.307 230.062 449.4 229.83 449.29 229.205 449.086 228.632 448.748 228.15 448.3 227.569 447.884 227.278 447.173 227.4 446.47 227.46 446.177 227.37 445.873 227.16 445.66 227.16 445.45 226.98 445.21 226.86 445 227.209 444.429 227.589 443.878 228 443.35 228.508 442.864 229.05 442.413 229.62 442 228.597 441.605 227.463 441.605 226.44 442 225.492 442.13 224.593 442.502 223.83 443.08 222.9 443.71 222.75 444.85 222.09 445.66 221.43 446.47 221.82 446.86 221.67 447.49 221.579 448.087 221.579 448.693 221.67 449.29 222.466 449.672 223.338 449.867 224.22 449.86 224.847 449.885 225.439 450.154 225.87 450.61 225.422 450.857 224.899 450.931 224.4 450.82 224.061 450.791 223.719 450.791 223.38 450.82 223.08 450.82 222.75 450.82 222.69 451.33 223.611 452.639 225.276 453.198 226.8 452.71 226.928 452.737 227.05 452.788 227.16 452.86 227.63 453.474 228.422 453.746 229.17 453.55 229.418 453.505 229.672 453.505 229.92 453.55 230.742 453.764 231.592 453.846 232.44 453.79 232.777 453.732 233.122 453.732 233.46 453.79 234.018 454.014 234.641 454.014 235.2 453.79L235.2 453.79C235.566 453.354 236.161 453.188 236.7 453.37 237.294 453.446 237.877 453.587 238.44 453.79 238.954 453.971 239.516 453.971 240.03 453.79 240.03 453.07 240.03 453.07 238.89 452.35L239.76 451.84C240.12 452.14 240.39 452.44 240.69 452.68 240.99 452.92 241.05 452.95 241.2 452.92 242.07 452.74 241.98 453.49 242.16 453.85L243.33 454.3C243.48 455.02 244.11 455.2 244.71 455.44 244.927 455.541 245.129 455.673 245.31 455.83 245.484 455.957 245.522 456.201 245.395 456.375 245.371 456.408 245.343 456.436 245.31 456.46L244.05 456.85 244.05 457.3C244.504 457.334 244.954 457.195 245.31 456.91 245.735 456.657 246.227 456.542 246.72 456.58L247.47 457.81 248.43 457.6 248.64 458.47 249.81 458.89C250.28 459.864 250.691 460.866 251.04 461.89 250.26 462.19 250.05 463.03 249.39 463.48 248.73 463.93 247.95 464.2 247.62 464.8 247.8 465.64 248.82 465.64 248.73 466.48 248.269 466.657 247.798 466.807 247.32 466.93 246.212 467.246 245.038 467.246 243.93 466.93 243.27 466.72 242.58 466.63 242.19 467.47 242.19 467.47 241.92 467.65 241.8 467.71 241.41 467.872 241.185 468.284 241.26 468.7 241.26 469.15 241.62 469.36 242.04 469.54 243.173 470.003 244.469 469.794 245.4 469L246.78 469.33C246.78 469.33 246.96 469.33 247.05 469.18L247.05 468.43C247.533 468.662 248.035 468.853 248.55 469 248.896 469.031 249.217 469.192 249.45 469.45 250.064 470.35 250.997 470.983 252.06 471.22 252.27 471.22 252.45 471.55 252.6 471.7L252.18 472.6 253.68 473.23C254.108 473.485 254.592 473.629 255.09 473.65 255.388 473.661 255.669 473.79 255.87 474.01 256.547 474.688 257.437 475.111 258.39 475.21 259.211 475.388 260.022 475.608 260.82 475.87L261.33 475.87C261.414 475.539 261.282 475.192 261 475 260.177 474.203 259.26 473.508 258.27 472.93 257.623 472.511 257.063 471.971 256.62 471.34 257.52 471.07 258.06 471.88 258.75 471.73 258.9 471.73 259.11 471.73 259.26 472 260.348 472.792 261.582 473.363 262.89 473.68 263.076 473.487 263.21 473.249 263.28 472.99 263.286 472.712 263.235 472.437 263.13 472.18L264 472C264 471.49 263.76 471.19 263.55 470.89 263.34 470.59 262.74 470.08 262.68 469.39 262.552 468.888 262.116 468.526 261.6 468.49 261.068 468.356 260.575 468.099 260.16 467.74 259.8 467.44 259.62 466.9 259.29 466.54 258.96 466.18 258.54 465.97 258.15 465.64 258.053 465.532 257.972 465.411 257.91 465.28 257.91 465.28 257.91 465.1 257.91 464.98 257.91 464.86 258.72 465.52 259.11 464.98L258.42 463.93C259.14 464.26 259.47 463.51 260.04 463.51 260.726 464.37 261.712 464.938 262.8 465.1 262.8 465.49 262.5 465.88 262.8 466.18 263.1 466.48 263.52 467.02 263.97 467.2 264.42 467.38 264.9 467.77 265.53 467.5L265.53 466 266.55 466C266.875 465.734 267.159 465.421 267.39 465.07 267.39 464.77 267.39 464.35 267.39 463.69 268.32 464.44 269.04 463.24 269.07 463.21 269.1 463.18 269.07 463.21 269.07 463.21 268.649 462.699 267.971 462.477 267.33 462.64 266.892 462.698 266.448 462.698 266.01 462.64L266.01 461.86 264.51 461.86C264.51 460.69 264.51 460.69 263.34 460.36 263.15 460.337 262.978 460.24 262.86 460.09 262.732 459.872 262.47 459.773 262.23 459.85 261.753 459.97 261.247 459.871 260.85 459.58 260.203 459.257 259.581 458.886 258.99 458.47 258.692 458.292 258.368 458.16 258.03 458.08L257.1 457.84C257.077 457.641 257.077 457.44 257.1 457.24 257.25 457.06 257.55 456.94 257.61 456.73 257.67 456.52 257.61 456.22 257.61 455.86 258.402 456.101 259.248 456.101 260.04 455.86 259.674 455.451 259.149 455.221 258.6 455.23 258.067 455.301 257.526 455.185 257.07 454.9 257.64 454.21 258.48 454.36 259.2 454.09 259.037 453.514 258.58 453.068 258 452.92 257.43 453.22 257.16 453.88 256.41 453.88L256.59 453.1 254.91 453.43C255.42 452.56 256.62 453.01 257.1 452.05 256.529 451.538 255.73 451.367 255 451.6 254.85 451.6 254.52 451.6 254.49 451.6 254.13 451 253.8 451.6 253.5 451.6L253.5 450.4 252.48 450.88 251.28 450.61C251.82 450.34 252.48 450.52 252.66 449.83ZM229.92 450.1 229.05 450.1C229.53 449.89 229.68 449.77 229.83 449.77 229.98 449.77 230.04 449.77 230.13 449.98 230.22 450.19 229.98 450.1 229.92 450.1ZM236.76 451.81C237.3 451.33 237.3 451.33 237.87 451.81ZM252.96 451.81C253.179 451.776 253.401 451.776 253.62 451.81L252.87 452.47C252.57 452.11 252.78 451.9 252.96 451.81ZM253.17 462.22C253.751 462.749 254.451 463.129 255.21 463.33 255.622 463.372 255.962 463.675 256.05 464.08 255.9 464.53 255.51 464.62 255.09 464.59 254.394 464.514 253.694 464.684 253.11 465.07L252.33 463.42ZM251.1 451C251.172 450.913 251.253 450.832 251.34 450.76 251.354 450.87 251.354 450.98 251.34 451.09Z"/><path d="M200.43 454.48C200.537 454.149 200.893 453.968 201.224 454.075 201.295 454.098 201.361 454.133 201.42 454.18 201.84 454.45 202.29 454.18 202.68 454.45 203.07 454.72 203.16 454.45 203.13 454.03 203.1 453.61 203.13 453.34 202.74 453.28 201.801 452.97 200.88 452.609 199.98 452.2 198.784 451.936 197.72 451.256 196.98 450.28 197.386 449.475 197.215 448.5 196.56 447.88 196.424 447.678 196.323 447.455 196.26 447.22 195.99 446.38 195.69 445.54 195.42 444.67 195.267 444.602 195.125 444.511 195 444.4 194.274 443.879 193.404 443.596 192.51 443.59 191.58 443.59 191.28 443.77 191.43 444.64 191.472 444.887 191.542 445.129 191.64 445.36 191.91 446.26 192.18 447.16 192.48 448.03L192.3 448.27C191.67 448.81 191.31 448.78 191.04 448.12 190.787 447.684 190.614 447.207 190.53 446.71 190.433 446.161 190.09 445.686 189.6 445.42 189.198 445.124 188.766 444.872 188.31 444.67 188.07 444.67 187.77 444.43 187.53 444.67 188.22 445.27 188.22 445.27 188.22 445.93 187.734 445.927 187.25 445.988 186.78 446.11 186.348 446.372 185.843 446.488 185.34 446.44L185.97 445.24C185.19 445 184.53 444.76 183.84 444.58 183.518 444.475 183.172 444.475 182.85 444.58 182.58 444.58 182.4 445.06 182.19 445.33 181.77 445.457 181.337 445.537 180.9 445.57 180.9 445.39 180.9 445.27 180.9 445.21 180.9 445.15 181.65 444.16 181.17 443.59 180.69 443.02 180.15 443.29 179.61 443.44L176.91 444.31C175.895 444.688 174.952 445.236 174.12 445.93L174.42 446.68C173.88 447.1 173.1 447.31 173.1 448.3L174.9 448.66 174.9 449.29 178.68 448.81C178.346 449.224 177.88 449.51 177.36 449.62L175.47 450.04C175.036 450.06 174.642 450.297 174.42 450.67 174.97 451.376 175.838 451.759 176.73 451.69 177.027 451.63 177.333 451.63 177.63 451.69 178.524 451.841 179.436 451.841 180.33 451.69 181.017 451.6 181.713 451.6 182.4 451.69 183.098 451.796 183.782 451.977 184.44 452.23 184.68 452.23 185.01 452.23 184.98 452.77 184.368 453.14 183.637 453.258 182.94 453.1 181.265 452.785 179.545 452.785 177.87 453.1 177.231 453.108 176.608 453.296 176.07 453.64L176.07 454C176.07 454 176.07 454.21 176.07 454.27 176.854 455.341 178.136 455.931 179.46 455.83L180.81 455.83C181.195 455.881 181.577 455.961 181.95 456.07 181.95 456.34 181.95 456.52 181.95 456.73 182.16 457.87 182.55 458.17 183.66 458.08L185.91 457.9C187.482 457.991 189.051 457.681 190.47 457 190.69 456.878 190.938 456.816 191.19 456.82 192.009 456.899 192.793 456.471 193.17 455.74 193.17 455.56 193.56 455.47 193.8 455.29 194.126 455.87 194.726 456.243 195.39 456.28 195.689 456.287 195.971 456.417 196.17 456.64 196.376 456.925 196.721 457.075 197.07 457.03 197.379 456.995 197.69 456.985 198 457 199.101 457.185 200.231 457.028 201.24 456.55 201.24 456.55 201.24 456.4 201.42 456.31L201 455.32 199.77 455.59C199.77 455.29 199.59 455.05 199.5 454.84 199.41 454.63 200.22 455.02 200.43 454.48ZM199.26 454.69 199.26 454.69 199.08 454.69Z"/><path d="M213 420.01 211.53 419.8C211.2 419.8 210.84 419.59 210.54 419.8 210.736 420.782 211.686 421.424 212.67 421.24L213 421.24C213 421.69 212.13 421.45 212.1 422.02 212.7 422.38 213.27 422.68 213.9 422.17 214.03 422.095 214.19 422.095 214.32 422.17 214.8 422.62 215.19 422.17 215.67 422.17 216.217 422.094 216.772 422.094 217.32 422.17 217.715 422.186 218.108 422.246 218.49 422.35 218.49 422.35 218.49 422.35 218.49 422.5L218.01 422.5 217.32 422.5 218.37 422.92C217.803 423.003 217.232 423.053 216.66 423.07 215.885 422.996 215.114 423.246 214.53 423.76L215.79 424.87C216.15 424.87 216.54 424.87 216.93 424.87 217.32 424.87 217.65 425.05 218.34 425.23L216.9 425.56C216.9 425.74 216.9 425.86 217.08 425.89 217.916 426.347 218.858 426.575 219.81 426.55 220.058 426.635 220.331 426.519 220.44 426.28 220.68 425.8 221.01 426.1 221.34 426.28 221.67 426.46 221.34 426.28 221.52 426.13L221.52 425.86 221.52 425.26 222.81 426.31C223.2 426.61 223.59 426.46 223.71 425.95 223.726 425.72 223.726 425.49 223.71 425.26L224.55 425.26C224.73 424.69 223.92 424.09 224.55 423.61 225 423.79 224.55 424.54 225.3 424.6 225.882 424.086 226.515 423.633 227.19 423.25 227.994 423.125 228.761 422.828 229.44 422.38 229.17 422.14 228.99 421.9 228.78 421.69 228.57 421.48 227.85 421.9 227.58 421.36L225.99 421.36C226.002 421.25 226.002 421.14 225.99 421.03 226.23 419.92 225.99 419.77 225.03 419.56 225.03 419.56 224.88 419.56 224.82 419.38 224.76 419.2 224.82 419.38 224.82 419.38 224.82 419.38 224.82 419.23 224.82 419.14 224.82 419.05 224.82 418.45 224.43 418.42 224.161 418.391 223.889 418.391 223.62 418.42L223.62 419.29C222.54 419.47 222.51 418.6 222.27 418.06 222.101 418.039 221.929 418.039 221.76 418.06 220.753 418.095 219.785 417.676 219.12 416.92L217.95 415.75C217.829 415.59 217.676 415.457 217.5 415.36 216.574 414.892 215.522 414.734 214.5 414.91 214.86 415.18 215.46 414.91 215.58 415.63 214.59 415.63 213.72 416.23 212.58 416.02L212.58 416.02C212.481 416.123 212.391 416.233 212.31 416.35 212.267 416.435 212.267 416.535 212.31 416.62 212.62 416.772 212.92 416.943 213.21 417.13 213.21 417.13 213.45 417.4 213.69 417.67L211.44 417.67C211.44 417.67 211.44 417.67 211.23 417.85L211.23 418.42 210.81 418.42 209.94 418.6C210.497 418.805 211.068 418.966 211.65 419.08 212.2 419.111 212.75 419.111 213.3 419.08 213.392 419.422 213.274 419.786 213 420.01ZM213.15 421.42 213.84 421.15C213.72 421.57 213.45 421.51 213.18 421.42Z"/><path d="M163.41 448C164.336 448.26 165.123 448.874 165.6 449.71 165.99 450.4 166.38 450.43 167.1 450.04 167.729 449.536 168.515 449.271 169.32 449.29 169.65 449.29 170.04 449.02 170.25 448.93L171.03 446.86C171.724 446.843 172.355 446.453 172.68 445.84 172.86 445.547 173.135 445.324 173.46 445.21 174.889 444.482 176.374 443.87 177.9 443.38 178.2 443.38 178.5 443.08 179.1 442.81L176.37 440.98C175.505 440.293 174.299 440.233 173.37 440.83 173.243 440.871 173.107 440.871 172.98 440.83 171.84 440.26 170.58 440.17 169.47 439.6 169.236 439.526 168.984 439.526 168.75 439.6 167.25 439.75 165.75 439.96 164.28 440.14 164.28 440.14 164.28 440.14 164.04 440.32 163.77 441.19 164.67 441.43 164.97 442 164.55 442.96 163.44 443.53 163.62 444.73 162.99 445.12 163.08 445.99 162.48 446.44 162.097 446.651 161.93 447.113 162.09 447.52 162.48 447.64 162.93 448 163.41 448Z"/><path d="M217.47 436.93 218.1 438.28C218.273 438.728 218.776 438.952 219.225 438.779 219.261 438.765 219.296 438.749 219.33 438.73 219.519 438.686 219.701 438.616 219.87 438.52 221.25 439.84 222.57 439.09 223.86 438.52L224.25 439.54 224.91 439.54 230.91 439.54C231.656 439.611 232.374 439.235 232.74 438.58 233.07 438.91 233.31 439.3 233.64 439.39 234.16 439.568 234.713 439.629 235.26 439.57 236.079 439.473 236.891 439.323 237.69 439.12L237.69 438.31 237.69 438.31C237.69 438.04 237.69 437.86 237.87 437.68 238.05 437.5 238.68 437.41 238.62 436.81 238.1 436.301 237.424 435.984 236.7 435.91 236.539 435.901 236.384 435.849 236.25 435.76 235.345 435.22 234.251 435.099 233.25 435.43 233.101 435.458 232.949 435.458 232.8 435.43 231.507 435.407 230.219 435.599 228.99 436 228.84 436 228.63 436 228.57 436 227.94 436.81 227.22 436.39 226.53 436 226.227 435.909 225.903 435.909 225.6 436 225.261 436.108 224.906 436.159 224.55 436.15 224.239 436.086 223.937 435.986 223.65 435.85 223.14 436.33 222.84 436.36 222.72 435.85 222.6 435.34 221.85 434.74 221.07 434.65L220.08 434.65 219.54 433.78 222 433.78C222 433.63 221.85 433.51 221.76 433.51 221.1 433.24 220.26 433.33 219.9 432.49 219.515 432.401 219.124 432.341 218.73 432.31 217.92 432.31 217.14 432.31 216.36 432.49 216.149 432.558 215.954 432.671 215.79 432.82 216.12 433.54 216.84 433.93 217.29 434.56 217.74 435.19 218.04 435.52 217.29 436.63 217.47 436.72 217.5 436.84 217.47 436.93Z"/><path d="M177.51 434.02C177.27 434.02 177.06 434.29 177.3 434.68L178.77 434.83C177.96 435.34 177.03 435.13 176.28 435.61 176.28 435.61 176.49 435.85 176.55 435.85L178.17 435.85C178.186 436.098 177.999 436.312 177.751 436.329 177.741 436.33 177.73 436.33 177.72 436.33L176.37 436.33C176.01 436.33 175.68 436.48 175.65 437.02 175.99 437.177 176.356 437.268 176.73 437.29 177.174 437.201 177.634 437.335 177.96 437.65 178.16 437.816 178.45 437.816 178.65 437.65 178.85 437.484 179.14 437.484 179.34 437.65 179.94 438.07 180.33 437.65 180.75 437.32 181.17 436.99 181.23 436.87 181.56 436.51L181.86 437.71C182.511 437.464 183.205 437.351 183.9 437.38 184.62 437.53 185.28 437.14 186 437.38 185.656 437.909 185.035 438.19 184.41 438.1 183.228 438.161 182.077 438.5 181.05 439.09 181.126 439.211 181.229 439.314 181.35 439.39 182.258 439.919 183.348 440.039 184.35 439.72 185.19 439.51 185.97 439.21 186.78 438.94 187.41 438.1 188.52 438.64 189.27 438.1 189.387 438.008 189.519 437.936 189.66 437.89 189.81 437.89 190.02 437.89 190.11 437.89 190.89 438.37 191.76 437.89 192.57 438.1 193.712 438.386 194.872 437.706 195.18 436.57 195.18 436.33 195.42 436.15 195.51 435.91 195.622 435.565 195.515 435.186 195.24 434.95 194.87 434.697 194.428 434.57 193.98 434.59 193.44 434.59 193.44 435.07 193.11 435.25 192.391 435.122 191.7 434.869 191.07 434.5 190.858 434.46 190.719 434.256 190.759 434.044 190.767 434.004 190.78 433.966 190.8 433.93 190.8 433.93 190.8 433.57 190.8 433.51 190.23 433.15 190.35 432.43 190.02 431.98 189.15 431.98 189.15 431.98 187.56 433.51L189.06 434.17 188.67 435.19 189.3 435.43C189.6 435.43 189.87 435.7 189.78 436.06 189.69 436.42 189.45 436.39 189.18 436.39L186 436C185.55 434.86 184.35 434.59 183.57 433.81 183.57 433.66 183.12 433.66 182.88 433.63L182.13 433.63C181.777 433.693 181.418 433.554 181.2 433.27 180.531 432.578 179.454 432.489 178.68 433.06 178.5 433.21 178.44 433.51 178.29 433.63 178.042 433.782 177.781 433.913 177.51 434.02ZM178.8 435.88 178.23 435.88 178.8 435.88Z"/><path d="M205.89 448.99C206.225 449.503 206.913 449.647 207.427 449.312 207.477 449.278 207.525 449.241 207.57 449.2 207.734 449.024 207.866 448.821 207.96 448.6 208.884 448.744 209.814 448.377 210.39 447.64 210.57 447.19 210.39 446.68 210.66 446.2 210.93 445.72 210.66 445.51 210.27 445.33 209.88 445.15 209.91 445.33 209.76 445.33 209.471 444.993 209.126 444.708 208.74 444.49 208.343 444.363 207.926 444.312 207.51 444.34 207.85 443.798 208.37 443.394 208.98 443.2 208.98 442.87 208.98 442.51 209.31 442.42 209.64 442.33 209.55 442.15 209.52 442.09 209.49 442.03 209.31 441.7 209.16 441.7 208.661 441.67 208.16 441.67 207.66 441.7L207.66 441.7 207.66 441.7 207.66 441.7C207.203 442.061 206.602 442.184 206.04 442.03 205.383 441.863 204.708 441.783 204.03 441.79 203.34 441.79 203.25 441.79 203.04 442.69L203.31 442.69 203.04 442.69C202.924 442.549 202.716 442.529 202.576 442.644 202.559 442.658 202.544 442.673 202.53 442.69 202.53 442.93 202.53 443.05 202.77 443.17L203.04 443.17C203.79 443.17 204.15 443.65 204.48 444.25 204.396 444.702 204.035 445.051 203.58 445.12 203.094 445.273 202.564 445.146 202.2 444.79 201.943 444.546 201.649 444.344 201.33 444.19 200.99 444.063 200.61 444.22 200.46 444.55 200.284 444.77 200.319 445.091 200.539 445.267 200.57 445.292 200.604 445.313 200.64 445.33 201.36 445.66 201.81 446.5 202.83 446.47 203.25 446.47 203.73 446.86 204.12 447.16 204.819 447.654 205.419 448.275 205.89 448.99Z"/><path d="M281.76 508.69C282.122 508.352 282.426 507.957 282.66 507.52L281.88 507.52C281.49 506.92 281.88 506.44 282.12 505.93 281.96 505.79 281.777 505.678 281.58 505.6 281.184 505.525 280.776 505.525 280.38 505.6 279.664 505.828 278.88 505.644 278.34 505.12L278.34 504.16 276.96 504.64C276.78 504.04 277.2 503.77 277.44 503.38 277.68 502.99 277.8 502.78 277.95 502.48 278.1 502.18 278.52 502.03 278.31 501.73 278.1 501.43 278.58 501.19 278.31 500.89 277.734 500.852 277.179 501.113 276.84 501.58 276.138 502.509 275.544 503.516 275.07 504.58 274.89 505.12 274.8 505.84 274.41 506.17 273.966 506.557 273.705 507.112 273.69 507.7 273.69 507.7 273.45 508 273.3 508.15 273.115 508.305 272.944 508.475 272.79 508.66 272.733 508.794 272.733 508.946 272.79 509.08 272.868 509.205 273.003 509.283 273.15 509.29 273.69 509.29 274.23 509.29 274.77 509.29 275.31 509.29 275.88 509.44 276.42 509.44 276.96 509.44 277.59 509.17 278.04 509.44 278.49 509.71 279.06 509.44 279.54 509.44 280.02 509.44 279.69 509.44 279.75 509.62L279.75 509.95 279.75 509.95C280.101 509.88 280.436 509.748 280.74 509.56 281.054 509.241 281.395 508.949 281.76 508.69Z"/><path d="M236.28 470.59 235.08 470.59C235.378 469.943 235.094 469.177 234.447 468.879 234.361 468.84 234.272 468.81 234.18 468.79 233.756 468.631 233.345 468.441 232.95 468.22 232.56 468.04 232.29 467.65 231.78 467.56 231.363 467.432 230.968 467.24 230.61 466.99L229.86 467.29C229.68 466.84 229.56 466.48 229.41 466.12 229.226 465.825 228.837 465.734 228.542 465.919 228.531 465.925 228.521 465.932 228.51 465.94 228.294 466.144 228.138 466.404 228.06 466.69 227.88 467.92 227.73 469.15 227.58 470.5 227.31 470.89 226.47 470.8 226.38 471.64L228.63 471.43 229.02 473.02C229.5 472.84 229.92 472.81 230.1 472.6 230.67 471.88 231.63 471.64 232.05 470.8 232.47 469.96 232.56 470.17 233.1 470.47 233.378 470.582 233.649 470.712 233.91 470.86 234.12 471.04 234.27 471.34 234.51 471.46 234.75 471.58 235.74 471.82 236.43 472.03L237.24 471.34C237.163 470.879 236.746 470.552 236.28 470.59Z"/><path d="M169.17 434.53 169.98 433.87C170.201 434.113 170.402 434.374 170.58 434.65 170.77 434.897 171.097 434.993 171.39 434.89 171.703 434.816 171.909 434.519 171.87 434.2 171.87 433.93 171.87 433.6 172.2 433.48L172.53 433.78 172.89 433.96C173.032 433.799 173.162 433.629 173.28 433.45 173.292 433.32 173.292 433.19 173.28 433.06 173.565 432.599 173.919 432.184 174.33 431.83 174.458 431.802 174.592 431.802 174.72 431.83L174.72 433C175.62 433.45 175.8 433.51 176.01 433 176.209 432.599 176.589 432.32 177.03 432.25 177.282 432.182 177.524 432.081 177.75 431.95L177.51 431.05 177.51 431.05C177.51 430.33 177.51 430.33 178.26 429.67 177.995 429.308 177.594 429.07 177.15 429.01 176.97 429.01 176.52 429.01 176.52 429.22 176.52 429.79 176.04 429.79 175.65 429.79 175.26 429.79 174.84 429.79 174.45 429.79 173.816 429.764 173.184 429.867 172.59 430.09 171.39 430.69 170.52 431.77 169.26 432.28 168.863 432.809 168.241 433.12 167.58 433.12 167.311 433.183 167.05 433.274 166.8 433.39L167.13 434.65C167.745 434.265 168.514 434.22 169.17 434.53Z"/><path d="M205.62 432.67C205.043 432.235 204.247 432.235 203.67 432.67 203.67 432.67 203.67 432.85 203.67 433L204.63 433.3 204.63 434.38C203.988 434.339 203.391 434.035 202.98 433.54 202.686 433.08 202.128 432.862 201.6 433 201.573 433.108 201.573 433.222 201.6 433.33 202.021 433.806 202.137 434.48 201.9 435.07L202.23 435.07 202.23 435.07 201.93 435.07C201.72 435.07 201.51 434.92 201.36 435.07 201.023 435.264 200.768 435.573 200.64 435.94L203.46 435.94 204.63 435.79C204.63 435.79 204.63 435.79 204.93 435.97L204.18 436.75 204.42 437.83C205.535 437.982 206.665 437.982 207.78 437.83 208.23 437.2 207.78 436.27 208.8 436.06 208.786 435.971 208.786 435.879 208.8 435.79 208.8 435.61 208.62 435.4 208.8 435.25 209.044 434.49 208.922 433.659 208.47 433 207.814 432.606 206.978 432.679 206.4 433.18 205.95 433 205.77 432.79 205.62 432.67Z"/><path d="M197.76 424C197.76 424 198.03 424 198.15 424.21L199.02 425.02C199.02 425.2 199.02 425.44 198.84 425.56 198.711 425.705 198.523 425.782 198.33 425.77L196.68 425.77C196.86 426.07 196.92 426.28 197.04 426.37 197.521 426.651 198.098 426.716 198.63 426.55 199.079 426.338 199.58 426.265 200.07 426.34 200.815 426.603 201.592 426.764 202.38 426.82 202.79 426.842 203.161 427.068 203.37 427.42 203.61 427.81 203.88 428.2 204.39 428.23 204.879 428.275 205.371 428.275 205.86 428.23 206.139 428.126 206.282 427.815 206.177 427.535 206.153 427.47 206.117 427.411 206.07 427.36 205.86 427.15 205.59 427 205.38 426.76 205.208 426.596 205.11 426.368 205.11 426.13 205.128 425.506 204.652 424.978 204.03 424.93 203.43 424.93 202.89 424.93 202.62 424.24 202.35 423.55 201.93 423.82 201.54 423.94 201.13 424.049 200.729 424.189 200.34 424.36 200.13 423.37 199.38 423.04 198.48 422.86 197.591 422.769 196.693 422.862 195.84 423.13 195.84 423.13 195.66 423.43 195.48 423.7 196.38 423.49 196.92 424.3 197.76 424Z"/><path d="M245.67 560.41C245.34 560.41 245.07 559.9 244.74 559.78 243.444 559.257 242.191 558.635 240.99 557.92 240.498 557.674 239.972 557.503 239.43 557.41 238.89 557.23 238.44 556.72 237.87 556.57 235.895 555.998 233.786 556.093 231.87 556.84 231.593 556.953 231.339 557.116 231.12 557.32 230.888 557.533 230.872 557.893 231.085 558.125 231.096 558.138 231.108 558.149 231.12 558.16 231.788 557.866 232.439 557.535 233.07 557.17 233.541 556.896 234.088 556.78 234.63 556.84 235.17 556.84 235.26 557.2 235.32 557.62 236.069 557.694 236.805 557.865 237.51 558.13 238.452 558.567 239.472 558.811 240.51 558.85 240.692 559.828 241.59 560.505 242.58 560.41L242.58 560.41C242.801 560.524 242.887 560.796 242.773 561.016 242.769 561.024 242.764 561.032 242.76 561.04 242.606 561.253 242.436 561.454 242.25 561.64 243.57 561.64 244.65 561.64 245.76 561.64 246.368 561.675 246.969 561.506 247.47 561.16 247.219 560.936 246.948 560.735 246.66 560.56 246.39 560.47 246 560.53 245.67 560.41Z"/><path d="M256.68 563.5C256.056 563.315 255.475 563.01 254.97 562.6 254.518 562.317 254.021 562.114 253.5 562 252.854 561.94 252.203 562.001 251.58 562.18 250.98 562.18 250.38 561.7 249.66 561.97 249.87 562.33 250.11 562.6 250.29 562.93 250.453 563.301 250.593 563.682 250.71 564.07 249.75 564.79 248.76 564.07 247.71 564.07 248.34 564.61 248.34 564.61 248.52 564.61L250.92 564.61C251.318 564.592 251.706 564.732 252 565 252.15 565.18 252.27 565.42 252.63 565.33 252.735 565.245 252.826 565.144 252.9 565.03 253.092 564.593 253.593 564.382 254.04 564.55 254.225 564.61 254.425 564.61 254.61 564.55 255.224 564.326 255.885 564.264 256.53 564.37 256.71 564.37 256.95 564.37 257.1 564.37 257.25 564.37 257.37 564.01 257.31 563.92 257.154 563.712 256.932 563.564 256.68 563.5Z"/><path d="M236.82 442.69C236.82 442.84 236.82 442.99 236.82 443.23 237.72 443.74 237.72 443.74 237.9 444.07 238.5 445.15 238.77 445.3 239.88 445 240.73 444.716 241.639 444.654 242.52 444.82 243.041 444.955 243.589 444.955 244.11 444.82 244.11 444.82 244.11 444.82 244.11 444.64 244.11 444.46 244.11 444.43 244.11 444.37 243.409 443.196 242.174 442.444 240.81 442.36 239.671 442.441 238.527 442.34 237.42 442.06 237 442 237 442.21 236.82 442.69Z"/><path d="M212.22 436C211.615 436.423 211.112 436.977 210.75 437.62 211.665 438.206 212.683 438.614 213.75 438.82 214.303 438.969 214.895 438.87 215.37 438.55 215.37 438.22 215.37 437.86 215.37 437.53 215.067 436.308 213.831 435.563 212.608 435.866 212.475 435.899 212.345 435.944 212.22 436Z"/><path d="M209.1 426.67C209.34 426.67 209.61 426.67 209.64 427.09L209.13 427.39 209.88 428.02C210.87 427.72 211.92 428.02 212.88 427.3 212.802 427.075 212.742 426.844 212.7 426.61 212.7 425.86 212.7 425.8 212.07 425.77 211.63 425.744 211.204 425.599 210.84 425.35 210.02 424.877 209.086 424.638 208.14 424.66 208.14 424.66 207.9 424.81 207.78 424.9 207.69 425.89 208.02 426.55 209.1 426.67Z"/><path d="M215.76 431.89C215.644 431.72 215.475 431.594 215.28 431.53L211.89 430.93C211.385 430.811 210.857 430.998 210.54 431.41 210.54 432.25 211.32 432.58 211.83 432.94 212.631 433.364 213.536 433.552 214.44 433.48 214.967 433.468 215.466 433.241 215.82 432.85 215.98 432.544 215.957 432.174 215.76 431.89Z"/><path d="M185.43 429.61C186.21 429.31 187.23 429.61 187.71 428.74 187.53 428.23 186.84 428.74 186.78 428.05 186.72 427.36 187.86 428.05 188.13 427.42 188.13 427.42 188.13 427.42 188.13 427.42 186.405 427.283 184.67 427.497 183.03 428.05 183.03 428.05 183.03 428.2 182.79 428.35L183.06 429.22C183.81 429.43 184.5 430 185.43 429.61Z"/><path d="M244.26 458.8C243.404 458.987 242.8 459.754 242.82 460.63 242.797 461.193 243.235 461.668 243.798 461.69 243.862 461.693 243.926 461.69 243.99 461.68 244.346 461.693 244.702 461.642 245.04 461.53 246.21 461.11 246.39 460.81 246.24 459.82 246.24 459.55 246.24 459.31 246.24 459.04 245.632 458.719 244.927 458.633 244.26 458.8Z"/><path d="M281.7 454.99 281.97 455.77C282.3 455.77 282.66 455.77 282.99 455.77 283.424 455.675 283.846 455.534 284.25 455.35 284.472 455.252 284.645 455.068 284.73 454.84 284.73 454.57 284.55 454.42 284.31 454.3 283.945 454.158 283.602 453.966 283.29 453.73 282.82 453.361 282.261 453.123 281.67 453.04 281.319 452.83 280.881 452.83 280.53 453.04 280.23 453.31 280.53 453.61 280.53 453.88 280.53 454.15 280.53 454.42 280.35 454.75Z"/><path d="M185.37 426.31C185.37 426.31 185.37 426.31 185.52 426.31 186.037 426.145 186.593 426.145 187.11 426.31 187.648 426.37 188.192 426.37 188.73 426.31 188.73 426.31 188.94 426.16 189 426.04 189.06 425.92 189 425.8 189 425.77 188.389 425.073 187.424 424.802 186.54 425.08 185.58 425.47 184.56 425.62 183.54 425.92L183.03 426.16 183.03 426.46C183.775 426.165 184.594 426.113 185.37 426.31Z"/><path d="M196.8 443.74C197.25 443.02 197.13 442.51 196.32 442.21 196.102 442.079 195.854 442.007 195.6 442L193.98 442.24C193.71 442.24 193.56 442.48 193.59 442.6L195.51 444.61C196.034 444.493 196.495 444.182 196.8 443.74Z"/><path d="M116.16 486.19C115.71 486.19 115.11 486.19 114.9 486.58 114.69 486.97 113.82 486.58 113.58 487.15L113.58 487.45C113.76 487.78 113.91 488.11 114.36 488.23 114.752 488.328 115.167 488.227 115.47 487.96L117 487C117 486.19 116.55 486.16 116.16 486.19Z"/><path d="M146.25 487C146.169 486.574 146.119 486.143 146.1 485.71 145.32 485.71 144.57 484.87 143.91 485.92L145.2 487.54 145.2 487.54C145.508 487.696 145.744 487.965 145.86 488.29 146.05 488.735 146.271 489.166 146.52 489.58 146.744 489.137 146.744 488.613 146.52 488.17 146.401 487.787 146.311 487.396 146.25 487Z"/><path d="M224.22 416.35 223.62 416.35C223.44 416.35 223.23 416.35 223.26 416.77 223.84 417.113 224.482 417.338 225.15 417.43 225.445 417.506 225.755 417.506 226.05 417.43 226.643 417.148 227.165 416.738 227.58 416.23Z"/><path d="M215.25 429.25C215.43 429.25 215.55 428.92 215.88 428.5 214.456 428.318 213.014 428.318 211.59 428.5 211.59 428.5 211.38 428.68 211.26 428.8 211.14 428.92 211.47 429.13 211.59 429.16 212.798 429.385 214.033 429.415 215.25 429.25Z"/><path d="M232.44 473.59 231.96 474.31C231.66 474.82 231.96 475.18 232.44 475.21 232.92 475.24 232.77 475.21 232.86 475.21 232.95 475.21 233.88 474.61 234.36 474.28 234.84 473.95 234.75 473.98 234.6 473.59 234 473.29 233.22 473.71 232.44 473.59Z"/><path d="M199.86 435.19C199.86 435.19 200.34 435.19 200.67 435.01L200.13 433.63C199.287 433.435 198.403 433.552 197.64 433.96 198.33 434.62 199.29 434.5 199.86 435.19Z"/><path d="M150.99 493.18C150.738 491.876 149.97 490.729 148.86 490 149.67 492.25 149.67 492.25 150.99 493.18Z"/><path d="M282.78 509.14C282.065 509.218 281.53 509.831 281.55 510.55 281.85 510.55 282.12 510.55 282.27 510.79 282.459 511.061 282.826 511.14 283.11 510.97L283.35 510.34C283.438 510.126 283.508 509.905 283.56 509.68 283.14 509.59 282.78 509.59 282.78 509.14Z"/><path d="M264.69 504.55C266.37 505.96 267.21 506.26 268.35 505.84 267.294 505.039 266.014 504.588 264.69 504.55Z"/><path d="M151.32 495.31 150.51 495.13 149.67 495.13C149.563 495.745 149.805 496.369 150.3 496.75 150.69 497.14 151.11 496.93 151.53 496.75 151.02 496.36 151.56 495.82 151.32 495.31Z"/><path d="M151.53 496.75 151.53 496.75 150.87 497.62 151.44 497.89C151.526 497.741 151.587 497.579 151.62 497.41 151.635 497.19 151.635 496.97 151.62 496.75Z"/><path d="M197.22 430C196.44 429.58 196.14 428.65 195.03 428.44 195.131 429.139 195.496 429.772 196.05 430.21 196.44 430.6 196.65 430.54 197.22 430Z"/><path d="M221.55 429.34C221.19 429.13 220.77 429.01 220.38 428.83L219.78 429.01C219.6 429.01 219.51 429.55 219.78 429.67 220.257 430.109 220.933 430.258 221.55 430.06 221.749 429.941 221.813 429.683 221.694 429.484 221.658 429.425 221.609 429.375 221.55 429.34Z"/><path d="M172.71 435.82C173.13 435.82 173.43 436.09 173.7 436.03 174.421 435.749 174.944 435.112 175.08 434.35 174.134 434.526 173.288 435.05 172.71 435.82Z"/><path d="M147.54 488.92C148.2 489.52 149.01 489.25 149.7 489.43L150 490 149.73 488.59C148.95 488.02 148.29 488.38 147.54 488.92Z"/><path d="M206.43 419.92C205.853 419.568 205.11 419.655 204.63 420.13L206.61 421.03C206.872 420.71 206.826 420.237 206.506 419.975 206.482 419.955 206.456 419.936 206.43 419.92Z"/><path d="M241.26 564.46C242.04 565.57 242.94 565.24 243.9 565.06 243 564.31 243 564.31 241.26 564.46Z"/><path d="M238.53 476.65C238.857 476.359 239.051 475.947 239.07 475.51 239.067 475.245 238.849 475.033 238.584 475.036 238.535 475.037 238.486 475.045 238.44 475.06 238.217 475.152 238.036 475.323 237.93 475.54 237.75 476.02 237.96 476.38 238.53 476.65Z"/><path d="M259.95 564.4C259.95 564.4 259.71 564.58 259.74 564.67 259.77 564.76 259.74 564.97 259.98 564.97 260.409 565.015 260.841 565.015 261.27 564.97 261.48 564.97 261.63 564.73 261.81 564.61L261.81 564.28Z"/><path d="M147 485.53C146.949 486.308 147.137 487.083 147.54 487.75 147.72 487.45 148.02 487.18 147.99 487 147.96 486.82 147.66 485.86 147 485.53Z"/><path d="M196.95 437.23C196.95 437.44 197.34 437.59 197.52 437.71L198.06 437.71C198.285 437.654 198.423 437.427 198.367 437.202 198.347 437.12 198.302 437.046 198.24 436.99 198.104 436.857 197.94 436.754 197.76 436.69 197.37 436.51 196.83 436.9 196.95 437.23Z"/><path d="M197.34 432.64C197.34 432.64 197.34 432.85 197.34 432.91 197.783 433.367 198.49 433.443 199.02 433.09 198.696 432.602 198.134 432.327 197.55 432.37 197.461 432.444 197.389 432.536 197.34 432.64Z"/><path d="M181.92 428.11C181.516 427.87 181.095 427.659 180.66 427.48 180.428 427.392 180.168 427.509 180.08 427.742 180.071 427.764 180.065 427.787 180.06 427.81 180.496 428.398 181.321 428.531 181.92 428.11Z"/><path d="M265.47 512.05 266.94 512.47C266.94 512.47 267.12 512.47 267.21 512.47L267.54 511.9 266.52 512.08C266.22 512.05 265.92 511.66 265.47 512.05Z"/><path d="M245.13 423.25C245.66 423.574 246.298 423.672 246.9 423.52 246.27 422.89 246.27 422.89 245.13 423.25Z"/><path d="M248.82 460C248.31 459.67 247.77 459.28 247.02 459.79 247.521 460.221 248.233 460.304 248.82 460Z"/><path d="M235.23 497.47C235.698 497.798 236.249 497.985 236.82 498.01 236.13 497.17 236.13 497.17 235.23 497.47Z"/><path d="M208.14 441.07C207.21 441.07 207.21 441.07 206.67 441.55L207.69 441.55C207.87 441.49 208.23 441.43 208.14 441.07Z"/><path d="M202.5 428.17 201.27 427.93C201.06 427.93 200.91 427.93 201 428.35 201.497 428.558 202.066 428.49 202.5 428.17Z"/><path d="M180.6 431.86 181.71 431.86C180.87 431.41 180.66 431.44 180.6 431.86Z"/><path d="M239.49 457C240.18 457 240.45 456.46 240.78 455.83 239.7 456.4 239.7 456.4 239.49 457Z"/><path d="M240.93 472.21C241.11 472.63 241.35 472.87 241.8 472.75 241.871 472.641 241.871 472.5 241.8 472.39 241.68 472 241.35 472 240.93 472.21Z"/><path d="M220.83 431.92C220.65 431.92 220.83 432.49 221.25 432.52 221.67 432.55 221.49 432.52 221.7 432.28 221.91 432.04 221.49 431.89 221.37 431.83 221.186 431.766 220.983 431.8 220.83 431.92Z"/><path d="M270.78 513.07C271.23 513.07 271.41 512.89 271.41 512.44L270.69 512.44Z"/><path d="M241.59 553.69C241.633 553.564 241.633 553.426 241.59 553.3 241.59 553.3 241.59 553.06 241.23 552.82 241.154 553.005 241.094 553.195 241.05 553.39 241.091 553.523 241.176 553.64 241.29 553.72 241.389 553.759 241.501 553.748 241.59 553.69Z"/><path d="M117 484.96C116.67 484.96 116.61 485.14 116.46 485.29 116.31 485.44 116.46 485.29 116.46 485.29 116.46 485.29 116.64 485.29 116.73 485.29 116.82 485.29 117.27 485.29 117.21 484.93 117.15 484.57 117 484.99 117 484.96Z"/><path d="M228 424 228.57 423.82C228.21 423.73 228.21 423.73 228 424Z"/><path d="M237.54 454.54C237.614 454.653 237.706 454.754 237.81 454.84 237.81 454.84 237.81 454.84 238.05 454.84L237.81 454.54C237.81 454.54 237.66 454.51 237.54 454.54Z"/><path d="M242.79 455.68C242.79 455.68 242.79 455.95 243 455.95 243.21 455.95 243.24 455.95 243.33 455.77 243.42 455.59 243.33 455.53 243.33 455.53Z"/><path d="M246.54 457.96 246.21 457.72C246.21 457.72 246.21 457.9 246.21 457.93 246.21 457.96 246.39 458.11 246.48 458.2Z"/><path d="M230.19 466C230.19 466 230.19 465.76 230.19 465.76L229.89 465.76C229.874 465.839 229.874 465.921 229.89 466 229.89 466 230.13 466 230.19 466Z"/><path d="M231.57 465.49C231.57 465.49 231.57 465.49 231.57 465.31 231.522 465.184 231.462 465.064 231.39 464.95 231.379 465.08 231.379 465.21 231.39 465.34 231.39 465.34 231.51 465.46 231.57 465.49Z"/><path d="M231.45 464.95 231.48 464.98 231.48 464.95 231.45 464.95Z"/><path d="M210.21 444.28C210.21 444.28 210.21 444.1 210.03 444.1 209.85 444.1 210.03 444.1 209.79 444.1L210.06 444.37Z"/><path d="M274.68 501.22 276.3 500.89C277.073 500.695 277.771 500.278 278.31 499.69 278.404 499.418 278.404 499.122 278.31 498.85 278.204 498.416 278.204 497.964 278.31 497.53 278.52 496.9 278.31 496.51 277.65 496.18 277.176 495.852 276.533 495.93 276.15 496.36L276 496C276 495.07 276 494.92 275.04 494.89L274.35 494.89C274.394 494.594 274.604 494.349 274.89 494.26 275.07 494.26 275.4 494.26 275.34 493.81 274.989 493.562 274.57 493.426 274.14 493.42 273.844 493.414 273.559 493.308 273.33 493.12 273.044 492.833 272.655 492.671 272.25 492.67L270.78 492.37C270.855 491.788 270.554 491.223 270.03 490.96L268.2 489.73C267.93 488.83 268.74 488.65 269.1 488.08 268.02 487.84 268.23 486.97 268.05 486.28 267.87 485.59 266.91 485.71 266.88 484.87 266.88 484.63 266.37 484.57 266.4 484.09 266.43 483.61 266.01 483.43 265.8 483.1 265.59 482.77 265.02 482.08 264.66 481.54L263.61 480.16C263.012 480.778 262.614 481.562 262.47 482.41 262.47 482.8 262.23 483.28 261.78 483.52 260.857 484.216 259.849 484.791 258.78 485.23L257.4 484C257.228 483.835 257.007 483.73 256.77 483.7 256.431 483.656 256.089 483.656 255.75 483.7 255.686 482.888 255.545 482.085 255.33 481.3 255.116 480.296 255.21 479.25 255.6 478.3 255.33 478.3 255 478.48 254.91 478.3 254.82 478.12 253.77 477.94 253.23 477.76 252.69 477.58 251.76 477.55 251.76 476.56 251.76 476.56 251.76 476.41 251.58 476.32 250.71 475.482 249.693 474.81 248.58 474.34L247.89 474.58C247.535 474.754 247.145 474.846 246.75 474.85 245.7 474.7 244.71 474.46 243.75 474.25 243.413 474.173 243.073 474.113 242.73 474.07 242.217 474.026 241.725 474.283 241.47 474.73 241.247 475.149 241.333 475.666 241.68 475.99L242.16 476.56 241.65 478.24C242.28 478.93 242.22 479.89 242.7 480.67L240.81 483.49C240.81 483.64 240.81 483.76 240.81 483.82L242.04 484.69C243.049 485.295 243.716 486.34 243.84 487.51 243.888 488.327 244.181 489.111 244.68 489.76 244.107 489.82 243.58 490.099 243.21 490.54 242.365 491.662 241.19 492.491 239.85 492.91L238.95 493.33C239.1 493.69 239.22 493.99 239.37 494.29 239.53 494.537 239.643 494.811 239.7 495.1 239.827 496.353 240.151 497.578 240.66 498.73 240.441 499.005 240.259 499.307 240.12 499.63 240.072 499.958 240.072 500.292 240.12 500.62L239.31 500.38 238.59 501.07C238.067 501.171 237.544 500.897 237.33 500.41 237.11 499.901 236.717 499.486 236.22 499.24 236.004 499.113 235.812 498.951 235.65 498.76 235.23 498.22 234.84 497.65 234.42 497.05 234.42 496.33 234.78 495.58 234.42 494.89 234.182 494.387 234.182 493.803 234.42 493.3 234.464 493.082 234.464 492.858 234.42 492.64 234.039 492.259 233.518 492.053 232.98 492.07L230.88 492.07C230.435 492.077 229.995 491.984 229.59 491.8 228.585 491.238 227.518 490.795 226.41 490.48 226.023 490.376 225.677 490.157 225.42 489.85 224.657 488.934 223.594 488.317 222.42 488.11 221.983 488.029 221.558 487.888 221.16 487.69 220.412 487.373 219.568 487.373 218.82 487.69 218.4 487.69 217.92 488.14 217.35 487.69 217.093 486.398 216.638 485.153 216 484L213.99 484C213.81 483.73 213.48 483.43 213.48 483.13 213.192 481.604 213.469 480.026 214.26 478.69 214.461 478.403 214.622 478.09 214.74 477.76 215.048 477.035 215.474 476.366 216 475.78 216.27 475.42 216.69 475.18 216.93 474.82 217.17 474.46 217.95 474.49 217.74 473.77 217.902 473.689 218.073 473.628 218.25 473.59 218.73 473.59 219.24 473.59 219.72 473.38 219.934 473.288 220.091 473.098 220.14 472.87 220.14 472.632 220.042 472.404 219.87 472.24 219.63 472.06 219.3 472 219.09 471.82 218.88 471.64 219.09 471.52 218.85 471.37 219.63 471.37 220.38 471.88 221.13 471.37L221.79 470.32 222.75 470.5C223.657 470.674 224.577 470.268 225.06 469.48 225.33 469.06 225.72 468.73 226.02 468.34 226.32 467.95 226.32 467.83 226.47 467.65L226.08 467.02C226.65 466.24 227.67 465.85 227.97 464.8 227.749 464.678 227.538 464.537 227.34 464.38 227.231 464.243 227.168 464.075 227.16 463.9 227.16 463.9 227.37 463.69 227.49 463.69L229.2 463.69C229.77 464.77 230.73 464.32 231.6 464.26L231 463 232.44 464.02C233.282 463.614 234.085 463.132 234.84 462.58 235.439 462.282 235.804 461.658 235.77 460.99 235.02 460.24 234.06 459.55 233.94 458.29L235.62 457.75C235.62 457.75 235.62 457.51 235.8 457.39L235.11 456.85 235.38 456.58C235.467 456.476 235.548 456.365 235.62 456.25 234.09 455.74 234.09 455.74 233.49 454.75L231.24 454.36C230.566 454.195 229.855 454.27 229.23 454.57 228.72 455.53 229.23 456.04 229.95 456.52 229.95 457.36 229.11 457.33 228.66 457.66 228.596 458.068 228.495 458.47 228.36 458.86 228.208 459.164 228.017 459.447 227.79 459.7 227.79 459.7 227.61 459.7 227.52 459.7L226.95 458.83C226.56 459.28 226.56 459.67 226.95 459.97 227.315 460.212 227.443 460.687 227.25 461.08L226.14 461.77C225.697 461.438 225.276 461.077 224.88 460.69 224.59 460.424 224.365 460.096 224.22 459.73 224.22 459.28 223.92 458.71 224.7 458.56 224.7 458.56 224.88 458.35 224.88 458.2 224.927 457.692 224.712 457.194 224.31 456.88L222.9 455.92C222.429 456.094 222.086 456.505 222 457 222 457.57 222 458.23 221.25 458.56 220.869 458.56 220.56 458.252 220.559 457.871 220.559 457.86 220.56 457.85 220.56 457.84 220.658 457.102 220.389 456.363 219.84 455.86L220.23 455.2C219.75 455.2 219.27 454.78 218.94 454.9 218.61 455.02 217.8 454.9 217.29 454.48 216.78 454.06 217.29 454.33 217.29 454.15L217.95 453.67 217.62 452.98 218.61 452.98 216.57 451C216.597 450.731 216.597 450.459 216.57 450.19 216.53 449.953 216.438 449.727 216.3 449.53 215.7 449.02 215.28 448.27 214.35 448.27 214.118 448.266 213.933 448.076 213.936 447.844 213.938 447.698 214.016 447.565 214.14 447.49 214.675 447.076 215.141 446.58 215.52 446.02L214.92 445.06C215.499 444.836 216.141 444.836 216.72 445.06 217.45 445.333 218.27 445.026 218.64 444.34 219.24 443.56 219.93 442.81 220.53 442.03 220.53 442.03 220.53 441.76 220.53 441.55 219.885 441.281 219.187 441.168 218.49 441.22 218.109 441.34 217.701 441.34 217.32 441.22 215.989 440.756 214.541 440.756 213.21 441.22 213.021 441.315 212.84 441.425 212.67 441.55L213.12 442.27 212.1 442.27C212.1 443.14 212.1 443.92 212.1 444.73 212.137 444.978 212.229 445.213 212.37 445.42 213.24 446.98 213.21 447.61 212.13 448.87L212.13 449.71C210.9 449.71 210.87 449.71 210.6 450.67 210.589 450.85 210.589 451.03 210.6 451.21L211.2 451.96 210.6 453.01C210.849 453.686 211.389 454.215 212.07 454.45 212.581 454.615 213.102 454.745 213.63 454.84 214.17 454.84 214.68 455.35 215.28 455.29 215.454 455.344 215.551 455.529 215.497 455.703 215.464 455.807 215.383 455.888 215.28 455.92 215.05 455.936 214.82 455.936 214.59 455.92L213.99 457.09C214.56 457.51 214.68 456.49 215.25 456.82L215.43 457.84C214.47 458.53 213.81 459.64 212.43 459.49 212.13 459.85 212.01 460.15 212.22 460.51 212.492 460.896 212.549 461.393 212.37 461.83L211.35 461.59C210.909 461.516 210.611 461.099 210.685 460.657 210.686 460.648 210.688 460.639 210.69 460.63 210.69 460.18 210.96 459.7 211.11 459.16 209.97 459.16 209.34 458.35 208.56 457.84L210.72 458.05 211.95 457.18C211.417 456.537 210.835 455.935 210.21 455.38 209.507 454.889 208.765 454.458 207.99 454.09 207.75 454.39 207.42 454.63 207.33 454.93 207.176 455.691 206.543 456.263 205.77 456.34 205.77 456.34 205.77 456.34 205.77 456.58 205.77 456.82 205.77 456.58 205.77 456.58L206.01 456.58C206.973 456.666 207.891 457.031 208.65 457.63L208.65 457.63 208.65 457.63 208.65 457.63C208.333 458.101 207.808 458.391 207.24 458.41L207.06 459.88C206.638 460.057 206.162 460.057 205.74 459.88 204.922 459.61 204.038 459.61 203.22 459.88 201.956 460.223 200.607 460.05 199.47 459.4 199.094 459.14 198.632 459.033 198.18 459.1 197.25 459.34 196.77 458.47 196.02 458.23 195.78 458.23 195.6 457.72 195.42 457.42 195.24 457.12 194.67 456.46 193.86 456.7 192.967 456.999 192.055 457.24 191.13 457.42 190.74 457.42 190.38 457.69 190.38 458.23 190.38 458.77 191.19 458.89 191.61 458.23 191.699 458.207 191.792 458.207 191.88 458.23 192.722 458.345 193.576 458.118 194.25 457.6 194.43 457.6 194.85 457.3 195 457.75 195.15 458.2 194.34 458.14 194.07 458.41 193.612 458.88 192.986 459.149 192.33 459.16 191.883 459.158 191.506 459.495 191.46 459.94 191.64 460.36 191.82 460.69 191.97 461.05 192.12 461.41 192.3 461.86 192.48 462.25L191.49 462.79C190.71 462.46 191.25 461.86 191.22 461.47 190.71 460.84 189.78 461.08 189.48 460.3L187.62 459.49C184.858 460.369 181.902 460.442 179.1 459.7 178.998 459.129 179.378 458.584 179.948 458.481 179.975 458.477 180.003 458.473 180.03 458.47 180.36 458.47 180.75 458.62 180.96 458.23 181.17 457.84 180.96 458.23 180.96 458.23 180.272 457.234 179.054 456.749 177.87 457 176.546 457.229 175.183 457.008 174 456.37 173.376 456.045 172.692 455.851 171.99 455.8 171.333 455.745 170.701 455.517 170.16 455.14 169.035 454.406 167.669 454.138 166.35 454.39 165.48 455.68 165.48 455.68 163.89 455.47 164.009 454.833 163.869 454.173 163.5 453.64 162.99 454.15 162.33 454.39 162.45 455.23 162.45 455.23 162.18 455.59 162.06 455.56 161.668 455.531 161.283 455.44 160.92 455.29 160.345 454.971 159.899 454.462 159.66 453.85 159.345 453.159 158.791 452.605 158.1 452.29 158.1 452.29 157.92 452.29 157.83 452.29L158.1 452.89C157.77 453.22 157.5 453.58 157.17 453.85 156.796 454.253 156.24 454.435 155.7 454.33 154.99 454.185 154.256 454.412 153.75 454.93 153.486 455.232 153.1 455.397 152.7 455.38 152.149 455.384 151.609 455.54 151.14 455.83 151.14 455.83 150.87 455.83 150.75 455.83 150.75 455.08 151.41 454.96 151.95 454.87 152.548 454.871 153.133 454.694 153.63 454.36 154.076 454.001 154.571 453.708 155.1 453.49 154.801 453.46 154.499 453.46 154.2 453.49 153.657 453.346 153.078 453.494 152.67 453.88 152.67 453.88 152.31 453.88 152.13 454.06 151.305 454.257 150.515 454.58 149.79 455.02 149.335 455.375 148.777 455.575 148.2 455.59 147.81 455.35 147.51 454.99 147.36 455.05 146.52 455.44 145.5 455.44 144.78 456.22L145.59 457.45C145.077 457.245 144.544 457.094 144 457 142.493 456.9 141.041 456.391 139.8 455.53 139.125 455.103 138.348 454.865 137.55 454.84 136.096 454.85 134.67 454.444 133.44 453.67 132.961 453.388 132.402 453.272 131.85 453.34 131.445 453.378 131.044 453.449 130.65 453.55 129.874 453.756 129.053 453.703 128.31 453.4 127.796 453.192 127.243 453.1 126.69 453.13 125.999 453.192 125.302 453.1 124.65 452.86L122.64 452.26C122.095 452.155 121.535 452.155 120.99 452.26 120.309 452.396 119.615 452.456 118.92 452.44 118.255 452.484 117.612 452.191 117.21 451.66 116.981 451.217 116.507 450.956 116.01 451 115.523 450.926 115.027 450.926 114.54 451 114.07 451.198 113.525 451.049 113.22 450.64 113.22 450.64 112.89 450.43 112.83 450.37 112.14 450.37 111.99 451.45 111.18 450.85L111.6 450.04 110.01 449.62C109.743 449.775 109.492 449.956 109.26 450.16 108.603 450.799 107.716 451.146 106.8 451.12 106.55 451.135 106.3 451.135 106.05 451.12 105.295 451.056 104.546 451.305 103.98 451.81 103.036 452.499 101.93 452.932 100.77 453.07 100.41 453.64 99.72 453.94 99.45 454.66 99.0427 455.96 97.8108 456.822 96.45 456.76L94.65 456.76C94.5043 456.792 94.3632 456.843 94.23 456.91L93.99 458.14C94.3334 458.555 94.793 458.858 95.31 459.01 96.625 459.399 97.7145 460.325 98.31 461.56 99.2934 461.796 100.299 461.926 101.31 461.95 101.52 462.43 101.13 463.18 102.03 463.21L102.03 463.21C102.271 463.066 102.535 462.965 102.81 462.91 103.47 462.91 103.92 463.21 103.8 463.48 103.68 463.75 103.14 463.78 102.78 463.81L102.78 463.81C102.57 464.17 102.12 464.05 101.91 464.26 101.459 464.656 100.85 464.822 100.26 464.71L99.36 464.71C98.01 464.71 98.01 464.71 97.74 463.36 97.56 463.36 97.35 463.36 97.2 463.36 96.363 463.501 95.5655 463.818 94.86 464.29 94.6632 464.423 94.4364 464.506 94.2 464.53 93.9054 464.592 93.6148 464.672 93.33 464.77 92.85 464.98 92.37 465.25 91.89 465.52 91.6865 465.629 91.4954 465.76 91.32 465.91 91.92 466.66 92.79 466.42 93.48 466.81 93.3859 467.442 93.5847 468.082 94.02 468.55 94.7724 468.956 95.6472 469.073 96.48 468.88 97.6208 468.581 98.8192 468.581 99.96 468.88 100.602 468.275 101.423 467.896 102.3 467.8 102.48 467.8 102.78 467.8 102.93 468.07 103.08 468.34 102.93 468.52 102.93 468.7 102.864 468.817 102.804 468.937 102.75 469.06 102.897 469.4 103.017 469.751 103.11 470.11 103.33 470.647 103.073 471.26 102.537 471.48 102.451 471.515 102.362 471.538 102.27 471.55 101.94 471.55 101.58 471.55 101.22 471.55 100.924 471.554 100.637 471.66 100.41 471.85 99.7419 472.645 98.5679 472.777 97.74 472.15 97.74 472.15 97.74 472.15 97.5 472.15 97.0238 472.396 96.6906 472.852 96.6 473.38 96.561 473.571 96.4545 473.741 96.3 473.86 95.4775 474.42 94.8901 475.264 94.65 476.23 94.89 476.77 95.04 477.4 95.82 477.43 95.82 477.43 96.15 477.61 96.3 477.76 96.5787 478.049 96.998 478.154 97.38 478.03 97.5792 478.005 97.7808 478.005 97.98 478.03 98.1765 478.066 98.3616 478.148 98.52 478.27 98.5612 478.386 98.5612 478.514 98.52 478.63 98.4609 478.759 98.3317 478.841 98.19 478.84 97.74 478.84 97.32 478.6 96.9 478.48 96.6069 478.366 96.2738 478.465 96.09 478.72 95.958 479.006 96.0459 479.345 96.3 479.53L97.92 480.85C98.3816 480.96 98.8555 481.01 99.33 481 99.7879 480.789 100.221 480.527 100.62 480.22 101.013 480.747 101.317 481.335 101.52 481.96 101.1 482.71 101.52 483.37 101.52 484.15L103.2 483.37C103.384 483.301 103.586 483.301 103.77 483.37 104.46 483.73 105.39 483.52 105.84 484.39L106.08 484.39 106.53 483.49 107.34 484.06C108.06 484.06 108.57 483.52 109.32 483.85 108.36 484.72 108.48 485.89 108.21 486.85 107.58 487.33 106.86 487.6 106.56 488.38 106.56 488.38 106.26 488.59 106.08 488.68L105.12 489.1C104.4 489.4 103.77 489.73 103.56 490.57 103.475 490.839 103.189 490.988 102.92 490.903 102.893 490.894 102.866 490.883 102.84 490.87 102.84 490.87 102.57 490.87 102.42 490.69 101.763 490.631 101.11 490.848 100.62 491.29 100.262 491.589 100.11 492.069 100.23 492.52L100.23 492.52C100.468 492.496 100.701 492.435 100.92 492.34 101.302 492.123 101.663 491.872 102 491.59 102.336 491.841 102.774 491.908 103.17 491.77 104.112 491.279 105.124 490.935 106.17 490.75 106.521 490.694 106.828 490.485 107.01 490.18 107.343 489.619 107.864 489.194 108.48 488.98 109.32 488.53 110.4 488.32 110.79 487.24 110.79 487.24 110.94 487.24 111 487.06 111.75 486.569 112.532 486.128 113.34 485.74 114.3 485.38 114.66 484.39 115.5 483.97 115.5 483.97 115.5 483.79 115.5 483.61L114.39 483.04C114.84 482.11 114.9 482.02 115.65 481.66 116.183 481.413 116.624 481.003 116.91 480.49 117.469 479.425 118.352 478.563 119.43 478.03 119.809 477.793 120.243 477.659 120.69 477.64 121.255 477.758 121.738 478.121 122.01 478.63 121.532 478.572 121.048 478.572 120.57 478.63 120.216 478.732 119.873 478.873 119.55 479.05L118.5 481.06C118.481 481.209 118.481 481.361 118.5 481.51L119.28 481.84C119.28 482.44 118.41 482.17 118.44 482.83 118.894 482.89 119.356 482.806 119.76 482.59 120.36 482.23 120.96 481.9 121.53 481.48 121.944 481.144 122.467 480.973 123 481 123.578 481.049 124.086 480.62 124.134 480.042 124.151 479.844 124.111 479.646 124.02 479.47 124.02 479.47 124.02 479.47 123.87 479.23 123.66 478.63 123.87 478.39 124.59 478.48 125.203 478.617 125.845 478.521 126.39 478.21 127.041 478.567 127.654 478.989 128.22 479.47 128.598 479.856 129.188 479.942 129.66 479.68 130.147 480.416 131.002 480.821 131.88 480.73L133.5 480.73C134.005 480.791 134.506 480.881 135 481 135.69 480.43 135.78 481.48 136.29 481.51 136.8 481.54 137.07 481.51 137.46 481.51 137.85 481.51 138.03 481.33 138.33 481.27 138.63 481.21 138.51 481.27 138.66 481.27L138.66 482.14C138.82 482.248 138.991 482.338 139.17 482.41 140.165 482.745 141.054 483.334 141.75 484.12 142.011 484.358 142.317 484.541 142.65 484.66 143.068 484.901 143.582 484.901 144 484.66 144 484.12 143.22 484.03 143.19 483.43 143.855 483.514 144.46 483.859 144.87 484.39 145.08 484.75 145.14 484.69 145.89 484.75 145.89 484.42 145.68 484.09 145.59 483.73 145.572 483.5 145.572 483.27 145.59 483.04L145.83 483.22C146.43 483.97 146.61 485.11 147.78 485.29 147.78 485.29 147.78 485.29 147.96 485.53 148.394 485.948 148.706 486.477 148.86 487.06 148.936 487.498 149.199 487.881 149.58 488.11 149.58 488.11 149.58 488.35 149.73 488.47 149.896 488.538 150.056 488.618 150.21 488.71 150.78 489.25 150.75 489.43 150.03 490L150.03 490 150.03 490 150.03 490C150.316 490.324 150.74 490.491 151.17 490.45L151.17 491.26 151.95 490.63 151.95 491.92 153.12 492.16 153.33 493.12 154.47 493.45C154.126 493.649 154.008 494.09 154.208 494.434 154.215 494.446 154.222 494.458 154.23 494.47 154.38 494.77 154.65 495.04 154.47 495.43 154.441 495.558 154.441 495.692 154.47 495.82L155.31 496.63 156.21 496.42C156.21 497.02 156.21 497.5 156.21 497.98 156.46 498.096 156.721 498.187 156.99 498.25 157.54 498.373 157.978 498.788 158.13 499.33 158.113 499.529 158.113 499.73 158.13 499.93 158.43 500.59 158.76 501.22 159.12 501.88L159.33 501.88 160.35 501.88 161.34 502.96C160.614 503.029 159.881 502.916 159.21 502.63 158.84 502.464 158.459 502.323 158.07 502.21 157.86 502.21 157.56 502.21 157.5 502.48 158.02 503.086 158.627 503.611 159.3 504.04 160.201 504.948 161.285 505.654 162.48 506.11 162.48 506.11 162.69 506.32 162.78 506.41 163.424 507.06 164.33 507.38 165.24 507.28 165.268 507.061 165.268 506.839 165.24 506.62 164.978 506.071 164.517 505.642 163.95 505.42 163.013 505.039 162.439 504.086 162.54 503.08L163.14 503.08C163.14 503.08 163.38 503.08 163.38 503.08 163.38 503.86 164.22 503.95 164.61 504.43 165 504.91 165.36 504.82 165.9 504.85 166.05 505.75 167.13 506.05 167.25 507.07 167.37 508.09 167.73 508.9 166.86 509.8 166.891 509.137 166.701 508.483 166.32 507.94L165 508.24 163.68 508C163.665 508.19 163.665 508.38 163.68 508.57 163.92 509.17 164.25 509.74 164.46 510.34 164.676 510.985 164.837 511.648 164.94 512.32 164.948 512.814 164.898 513.308 164.79 513.79 164.69 515.131 164.5 516.464 164.22 517.78 163.844 518.817 163.844 519.953 164.22 520.99 164.46 521.711 164.46 522.489 164.22 523.21 164.22 523.48 164.07 523.78 164.01 524.08 164.271 524.446 164.512 524.827 164.73 525.22 164.88 525.64 164.88 526.12 165.03 526.54 165.116 526.826 165.258 527.091 165.45 527.32 165.63 527.59 165.99 527.8 166.11 528.1 166.23 528.4 166.77 528.76 167.22 528.88 167.23 528.99 167.23 529.1 167.22 529.21 166.938 529.773 167.166 530.458 167.729 530.74 167.729 530.74 167.73 530.74 167.73 530.74 167.88 530.74 168.06 531.07 168.03 531.19 167.82 531.85 168.27 532.21 168.6 532.63 168.93 533.05 170.13 534.1 170.22 535.3 171.215 535.448 172.179 535.763 173.07 536.23 173.747 536.545 174.39 536.927 174.99 537.37 175.332 537.669 175.591 538.051 175.74 538.48 176.25 539.65 176.85 540.82 177.39 541.99 177.672 542.458 177.913 542.95 178.11 543.46 178.253 543.94 178.561 544.355 178.98 544.63 179.46 544.974 179.921 545.345 180.36 545.74 181.064 546.208 181.254 547.158 180.786 547.862 180.784 547.864 180.782 547.867 180.78 547.87 180.48 547.87 180.15 547.69 179.91 547.87 180.268 548.605 180.942 549.135 181.74 549.31 182.389 549.554 182.997 549.898 183.54 550.33 184.171 550.679 184.509 551.391 184.38 552.1L184.38 552.85C184.89 553.24 185.37 553.6 185.82 553.99 186.27 554.38 187.44 555.04 187.83 555.97 187.83 555.97 187.98 555.97 188.16 555.97L188.76 555.37C188.47 554.938 188.149 554.527 187.8 554.14 187.529 553.958 187.222 553.836 186.9 553.78 186.33 552.43 185.85 551.23 185.37 550.06 185.266 549.888 185.146 549.728 185.01 549.58 184.199 548.84 183.519 547.968 183 547 182.957 546.908 182.896 546.827 182.82 546.76 182.22 545.905 181.525 545.12 180.75 544.42 180.453 544.148 180.227 543.809 180.09 543.43 179.948 542.907 179.838 542.376 179.76 541.84 179.624 541.449 179.773 541.016 180.12 540.79 181.091 540.864 182.015 541.242 182.76 541.87 182.902 542.791 183.239 543.671 183.75 544.45 184.006 544.873 184.091 545.376 183.99 545.86 184.23 545.86 184.5 545.86 184.65 546.1 185.31 546.67 185.76 547.54 186.72 547.78 186.72 547.78 186.96 547.99 186.96 548.11 187.036 548.607 187.366 549.027 187.83 549.22 188.313 549.56 188.764 549.941 189.18 550.36L189.18 551.56C190.19 552.118 191.093 552.849 191.85 553.72 192.75 554.92 193.89 555.91 194.85 557.02 195.015 557.201 195.138 557.416 195.21 557.65 195.45 558.25 195.66 558.85 195.93 559.57 196.2 560.29 195.93 560.41 195.69 560.74 195.45 561.07 195.69 561.76 195.87 562.21 196.184 562.67 196.621 563.034 197.13 563.26 197.548 563.407 197.934 563.631 198.27 563.92 199.029 564.583 199.993 564.965 201 565 201.335 565.059 201.653 565.192 201.93 565.39 203.182 566.307 204.613 566.951 206.13 567.28 206.38 567.339 206.623 567.429 206.85 567.55 207.809 568.037 208.814 568.43 209.85 568.72 210.398 568.945 211.012 568.945 211.56 568.72L212.52 568.3C213.372 567.791 214.457 567.901 215.19 568.57 215.94 569.14 216.63 569.8 217.35 570.43 217.922 571.129 218.699 571.632 219.57 571.87 220.415 571.972 221.236 572.216 222 572.59 222.51 572.781 223.031 572.942 223.56 573.07 224.038 573.22 224.551 573.22 225.03 573.07 225.239 573.043 225.451 573.043 225.66 573.07 226.05 573.49 225.81 574.03 226.23 574.39 226.65 574.75 227.4 575.59 228.03 576.19 228.551 576.591 228.796 577.256 228.66 577.9 228.66 578.62 228.93 578.92 229.59 579.01L229.92 578.41C230.438 579.084 231.106 579.628 231.87 580 232.02 580 232.11 580.33 232.23 580.48 232.35 580.63 232.02 581.11 232.62 581.05 233.22 580.99 233.25 581.47 233.52 581.44 234.84 581.26 235.68 582.19 236.52 582.82 237.36 583.45 237.15 583.36 237.75 582.82L237.36 581.95 238.65 580.78C239.03 580.426 239.62 580.426 240 580.78 240.171 580.873 240.332 580.983 240.48 581.11 240.506 580.753 240.577 580.4 240.69 580.06 240.359 579.938 240.018 579.848 239.67 579.79 239.23 579.676 238.761 579.752 238.38 580 237.865 580.29 237.334 580.55 236.79 580.78 236.372 580.975 235.888 580.975 235.47 580.78 234.99 580.6 234.39 580.78 234.09 580.03 233.79 579.28 233.61 579.55 233.37 579.31 232.743 578.721 232.234 578.019 231.87 577.24 231.69 576.943 231.626 576.591 231.69 576.25 231.99 574.72 232.02 573.25 232.44 571.66 232.604 571.122 232.604 570.548 232.44 570.01 232.02 570.01 231.54 569.83 231.27 569.41 231 568.99 230.34 568.87 229.8 568.78 229.316 568.674 228.814 568.674 228.33 568.78 227.049 568.964 225.754 569.045 224.46 569.02 224.039 569.016 223.622 568.935 223.23 568.78L223.71 568.06C223.89 567.79 224.22 567.49 224.25 567.19 224.37 566.314 224.37 565.426 224.25 564.55 224.206 564.373 224.206 564.187 224.25 564.01L224.97 564.01C225.102 563.693 225.192 563.36 225.24 563.02 225.195 562.006 225.551 561.015 226.23 560.26 226.8 559.57 226.62 559.24 225.63 559.09 225.082 559.031 224.528 559.031 223.98 559.09 223.291 559.207 222.609 559.367 221.94 559.57 220.86 559.84 220.74 559.96 220.62 561.07 220.564 561.769 220.326 562.441 219.93 563.02 219.558 563.513 219.157 563.984 218.73 564.43 217.922 564.051 216.988 564.051 216.18 564.43 215.451 564.629 214.709 564.779 213.96 564.88 213.469 564.567 212.946 564.305 212.4 564.1 211.617 563.9 210.973 563.345 210.66 562.6 210.36 562.06 210.03 561.55 209.7 561.07 208.565 559.641 208.076 557.804 208.35 556 208.395 555.351 208.395 554.699 208.35 554.05 208.35 553.66 208.35 553.24 208.35 552.85 208.382 552.558 208.508 552.284 208.71 552.07 209.224 551.706 209.345 550.994 208.981 550.481 208.98 550.48 208.98 550.48 208.98 550.48 208.741 549.976 208.648 549.415 208.71 548.86 208.937 547.521 209.94 546.447 211.26 546.13 211.965 546.003 212.572 545.561 212.91 544.93 212.91 544.72 212.91 544.51 213.15 544.27 213.511 544.521 213.989 544.521 214.35 544.27 214.896 543.893 215.594 543.814 216.21 544.06 216.832 544.375 217.568 544.375 218.19 544.06L219.15 544.66C219.928 545.275 221.045 545.197 221.73 544.48 221.73 544.48 221.73 544.21 221.73 544.12 221.73 544.03 220.8 544.12 220.71 543.31 221.61 543.31 222.48 543.1 223.35 542.95 223.693 542.907 224.033 542.847 224.37 542.77 224.37 542.77 224.7 542.77 224.76 542.77 224.82 542.77 225.42 543.04 225.84 542.98 226.984 542.725 228.179 543.064 229.02 543.88 229.18 544.02 229.362 544.132 229.56 544.21L230.64 543.7C230.884 543.499 231.236 543.499 231.48 543.7 232.17 544.36 232.8 545.02 233.46 545.74 233.538 545.922 233.538 546.128 233.46 546.31 233.28 547.09 233.76 547.78 233.76 548.53 233.76 548.74 233.94 548.98 234.06 549.16 234.18 549.34 234.48 549.52 234.54 549.73 234.81 550.75 235.71 551.32 236.25 552.13 236.79 552.94 237.06 552.43 237.27 551.92 237.749 550.851 237.749 549.629 237.27 548.56 236.881 547.324 236.42 546.112 235.89 544.93 234.995 543.315 235.111 541.328 236.19 539.83 236.4 539.47 236.61 539.14 237.03 539.05 237.626 538.895 238.161 538.56 238.56 538.09 239.14 537.217 240.012 536.579 241.02 536.29L241.02 536.29C241.609 535.624 242.365 535.127 243.21 534.85L243.21 533.98C244.08 533.65 244.08 533.65 244.41 533.11L243.51 532.66C243.93 532.39 244.26 532.15 244.26 531.58 244.26 531.01 243.72 531.07 243.51 530.68L243.51 528.52 243.51 528.52C243.51 527.95 243.51 527.35 243.51 526.78 243.51 526.21 243.51 526.27 244.08 526.42 244.1 526.69 244.1 526.96 244.08 527.23 244.046 527.93 244.389 528.594 244.98 528.97 245.76 527.98 245.76 527.98 245.34 526.99L245.34 526.69C245.334 526.58 245.334 526.47 245.34 526.36L246.24 526.36C247.086 525.774 247.546 524.774 247.44 523.75L248.1 523.15 248.1 523.15C248.43 522.28 249.24 522.19 249.96 522.16 250.986 522.012 251.992 521.75 252.96 521.38 252.96 521.38 252.96 521.38 253.23 521.11L253.26 520C253.26 519.7 253.26 519.46 253.26 519.22 253.437 518.117 254.211 517.204 255.27 516.85 255.794 516.59 256.279 516.256 256.71 515.86 257.79 515.86 259.11 515.86 259.71 514.45 260.758 514.411 261.784 514.133 262.71 513.64 263.01 513.48 263.37 513.48 263.67 513.64 263.97 514.09 264.6 513.64 265.05 514.18 264.81 514.33 264.66 514.54 264.51 514.54 263.458 514.514 262.448 514.953 261.75 515.74 261.41 515.978 261.217 516.375 261.24 516.79 261.24 517.33 261.66 517.51 262.11 517.69 262.472 517.569 262.816 517.397 263.13 517.18 263.64 516.76 264.03 516.25 264.48 515.8 265.797 515.567 267.077 515.163 268.29 514.6 268.644 514.436 268.945 514.176 269.16 513.85 269.476 513.244 269.941 512.728 270.51 512.35L270.51 511.78C270.51 511.51 270.75 511.15 270.36 511.03 269.97 510.91 269.85 511.3 269.7 511.51 269.55 511.72 268.98 512.8 268.59 513.49L267.33 513.49C266.641 513.431 265.958 513.311 265.29 513.13 264.726 512.938 264.213 512.62 263.79 512.2 263.471 511.765 263.209 511.291 263.01 510.79 262.925 510.649 262.824 510.518 262.71 510.4 262.71 509.95 263.22 509.65 262.98 509.23 261.9 509.23 261.9 509.23 261 508.39 261.24 508.39 261.45 508.21 261.57 508.39 262.187 508.654 262.902 508.511 263.37 508.03L264.06 507.52C264.16 506.915 263.751 506.344 263.146 506.244 263.101 506.237 263.056 506.232 263.01 506.23 262.136 505.99 261.214 505.99 260.34 506.23 259.26 506.62 258.21 507.07 257.16 507.55 256.379 507.896 255.706 508.445 255.21 509.14 254.831 509.608 254.42 510.05 253.98 510.46 253.98 510.46 253.65 510.82 253.35 510.67 253.05 510.52 253.35 510.46 253.35 510.4 253.447 510.164 253.59 509.95 253.77 509.77 254.344 509.298 254.831 508.73 255.21 508.09 256.007 506.745 257.358 505.823 258.9 505.57 259.018 505.455 259.119 505.324 259.2 505.18 259.517 504.188 260.472 503.543 261.51 503.62 263.458 503.515 265.411 503.515 267.36 503.62 268.359 503.681 269.361 503.681 270.36 503.62 271.002 503.597 271.617 503.354 272.1 502.93 272.423 502.686 272.734 502.426 273.03 502.15 273.436 501.635 274.029 501.3 274.68 501.22ZM218.7 471.22C218.421 471.388 218.092 471.452 217.77 471.4 218.07 471.04 218.4 471.19 218.7 471.31ZM174.99 464.74C174.73 465.122 174.499 465.523 174.3 465.94 173.967 466.093 173.583 466.093 173.25 465.94 172.5 465.64 172.5 465.67 171.72 466.12L171.9 466.81C171.101 467.549 170.116 468.058 169.05 468.28 169.05 467.8 169.38 467.83 169.56 467.62 169.74 467.41 170.1 467.2 170.34 466.93 170.41 466.809 170.41 466.661 170.34 466.54 170.253 466.413 170.103 466.344 169.95 466.36 169.397 466.428 168.914 466.765 168.66 467.26 168.478 467.811 167.884 468.11 167.334 467.928 167.326 467.926 167.318 467.923 167.31 467.92 166.8 467.92 166.23 467.92 165.69 467.5 165.96 467.23 166.38 467.05 166.47 466.75 166.56 466.45 167.04 466.24 167.31 465.85L167.13 465.1 168.54 465.1C168.72 464.68 168.54 464.59 168.24 464.5 167.678 464.243 167.032 464.243 166.47 464.5 166.107 464.643 165.72 464.715 165.33 464.71 164.55 464.71 163.74 464.53 163.05 465.19L162.69 464.56C162.69 464.56 162.84 464.32 162.93 464.32L166.86 463.42 168.87 462.82C169.62 462.58 170.4 462.37 171.15 462.19 171.588 462.041 172.069 462.248 172.26 462.67L170.97 463.63C171.6 464.26 172.35 463.9 172.98 464.02 173.61 464.14 174.21 463.42 174.87 463.24 175.31 463.535 175.428 464.131 175.133 464.572 175.092 464.633 175.044 464.69 174.99 464.74ZM188.61 473.98C188.08 474.56 187.353 474.924 186.57 475 186.229 475.068 185.916 475.235 185.67 475.48 185.19 475.9 184.77 476.41 184.26 476.8 183.93 477.103 183.507 477.283 183.06 477.31 182.28 477.31 182.04 477.73 181.8 478.33 180.87 478.51 180.09 478.72 179.28 478.81 178.792 478.87 178.298 478.87 177.81 478.81 177.411 478.711 177.099 478.399 177 478 177.21 477.55 177.63 478 178.05 477.7 178.243 477.348 178.497 477.034 178.8 476.77 179.186 476.561 179.6 476.41 180.03 476.32 179.64 475.42 178.83 474.97 178.14 474.22 178.41 474.22 178.59 474.22 178.68 474.22 179.67 474.76 180.84 474.94 181.68 475.54 182.474 476.125 183.556 476.125 184.35 475.54 184.721 475.289 185.054 474.986 185.34 474.64 185.985 473.777 187.085 473.387 188.13 473.65 188.61 473.65 189.15 473.65 189.51 474.13 189.21 474.07 189.21 474.07 188.61 473.98ZM209.43 500.65C209.22 500.02 208.89 499.63 208.23 499.93 207.274 499.045 206.544 497.945 206.1 496.72L206.4 495.73C206.814 495.476 207.336 495.476 207.75 495.73 208.171 495.888 208.508 496.214 208.68 496.63 209.04 497.44 209.34 498.28 209.7 499.09 210.06 499.9 210.21 500.05 210.45 500.53L210.45 500.53ZM224.13 510.76 224.55 509.8C224.339 509.875 224.137 509.976 223.95 510.1 223.174 510.656 222.313 511.081 221.4 511.36 220.56 511.63 220.53 511.63 219.69 511L218.13 511.24C218.13 511 218.13 510.82 218.31 510.76 219.174 509.906 220.192 509.224 221.31 508.75 221.807 508.624 222.231 508.298 222.48 507.85 222.623 507.653 222.807 507.489 223.02 507.37L224.43 506.47 226.71 506.8C227.07 506.8 227.46 506.8 227.55 507.31 227.82 508.45 228.69 508.6 229.68 508.63 229.95 509.41 230.22 510.13 230.46 510.88 230.546 511.102 230.546 511.348 230.46 511.57 230.275 511.745 229.985 511.745 229.8 511.57 229.111 511.269 228.329 511.269 227.64 511.57 227.257 511.664 226.865 511.714 226.47 511.72 226.223 511.734 225.978 511.659 225.78 511.51 225.34 511.066 224.753 510.8 224.13 510.76ZM231.75 517.48C231.42 517.21 231.75 516.94 231.75 516.73 232.53 516.07 232.38 515.23 232.14 514.24L230.07 513.19 229.32 514.15C229.05 514.51 228.93 515.08 228.27 515.02 228.09 515.02 227.79 515.29 227.73 515.47 227.257 516.398 227.161 517.473 227.46 518.47 227.841 519.377 227.653 520.423 226.98 521.14 226.779 521.359 226.533 521.533 226.26 521.65 225.929 521.839 225.508 521.724 225.318 521.394 225.299 521.36 225.283 521.326 225.27 521.29 225.122 520.874 225.032 520.44 225 520 224.853 518.995 224.935 517.969 225.24 517 225.39 516.55 225.51 516.07 225.66 515.56L224.76 515.56C225.159 514.789 225.642 514.065 226.2 513.4 226.259 513.316 226.343 513.253 226.44 513.22 227.58 513.22 228.6 512.38 229.8 512.68 230.22 512.68 231.15 512.5 231.12 512.68 231.09 512.86 231.75 512.26 232.05 512.29 233.496 512.355 234.932 512.556 236.34 512.89 236.621 512.98 236.878 513.134 237.09 513.34 237.453 513.751 237.794 514.182 238.11 514.63 238.47 515.11 238.32 515.53 237.93 516.01L236.19 515.44 235.95 515.44C235.95 515.59 235.95 515.77 235.95 515.86 235.514 516.473 235.283 517.208 235.29 517.96 235.29 518.53 235.29 518.59 234.12 519.01 233.972 518.718 233.842 518.417 233.73 518.11 233.4 516.97 233.37 516.94 232.41 517.57 232.2 517.48 231.99 517.66 231.75 517.48ZM234.21 519.97C233.85 519.97 233.7 520.24 233.61 520.21 233.52 520.18 233.61 520.03 233.37 519.91 233.13 519.79 233.58 519.73 233.7 519.73ZM238.23 520.6C237.27 521.02 236.34 521.47 235.38 521.83 234.548 522.224 233.57 522.156 232.8 521.65 232.8 521.65 232.53 521.32 232.56 521.2 232.59 521.08 232.8 520.9 232.98 520.81 233.16 520.72 233.28 520.81 233.4 520.81 233.98 520.673 234.536 520.451 235.05 520.15 235.539 519.73 236.177 519.525 236.82 519.58 237.107 519.563 237.391 519.503 237.66 519.4 238.401 519.192 239.178 519.141 239.94 519.25 239.507 519.851 238.915 520.319 238.23 520.6ZM244.23 517.93C243.795 518.246 243.266 518.404 242.73 518.38 242.55 518.38 242.46 518.38 242.37 518.38 241.464 518.08 240.486 518.08 239.58 518.38 239.381 518.41 239.179 518.41 238.98 518.38 238.8 518.38 238.71 518.05 238.8 517.87 239.075 517.438 239.504 517.127 240 517 240.581 516.844 241.172 516.734 241.77 516.67 242.412 516.729 243.06 516.636 243.66 516.4 243.995 516.258 244.383 516.414 244.525 516.749 244.527 516.753 244.529 516.756 244.53 516.76 244.739 517.192 244.559 517.713 244.126 517.922 244.121 517.925 244.115 517.928 244.11 517.93Z"/></g></svg>