<svg width="288" height="288" xmlns="http://www.w3.org/2000/svg" xmlns:xlink="http://www.w3.org/1999/xlink" xml:space="preserve" overflow="hidden"><defs><clipPath id="clip0"><rect x="489" y="352" width="288" height="288"/></clipPath></defs><g clip-path="url(#clip0)" transform="translate(-489 -352)"><path d="M497.46 502C500.7 498.79 499.02 497.8 497.46 494.05 496.571 492.328 496.462 490.308 497.16 488.5 497.578 486.36 497.859 484.196 498 482.02 499.92 482.98 499.14 482.98 500.55 482.02 501.51 481.33 501.99 480.34 503.07 479.68 504.15 479.02 506.07 477.7 507.6 476.68 509.88 475.27 511.86 475.87 514.29 475.21 516.72 474.55 518.64 473.2 521.01 472.63 523.266 472.367 525.47 471.771 527.55 470.86 529.306 469.459 530.755 467.713 531.81 465.73 533.34 463.57 532.08 462.73 532.95 460.63 533.287 459.804 533.918 459.131 534.72 458.74 536.55 458.2 536.67 459.46 537.72 460.96 539.25 459.61 539.1 458.71 538.86 456.7 539.43 456.7 541.86 457.27 542.28 456.94 542.7 456.61 542.28 453.94 542.76 453.25 543.24 452.56 544.38 452.26 544.89 451.6 545.4 450.94 545.49 449.92 546.21 449.29 548.186 447.914 550.39 446.898 552.72 446.29 555.54 446.29 556.35 450.28 558.39 450.79 559.815 450.955 561.255 450.955 562.68 450.79 564.12 450.37 563.52 450.25 563.61 448.99 563.7 447.73 563.25 447.91 563.61 446.89 563.97 445.87 565.05 445.09 565.59 444.13 566.73 442.24 567.27 440.56 569.67 439.66 571.32 439.03 573.78 439.9 575.31 438.82 575.88 438.43 575.88 437.53 576.33 437.14 577.35 436.27 575.91 436.54 577.41 436.39 578.134 436.517 578.833 436.76 579.48 437.11 582.306 437.952 585.195 438.564 588.12 438.94 589.023 439.265 589.945 439.535 590.88 439.75 591.63 439.75 591.99 438.7 592.8 439.27 594.54 440.47 590.07 443.56 589.8 444.28 589.53 445 589.53 446.53 589.08 447.52 588.63 448.51 587.49 449.26 588 450.52 588.93 452.68 593.22 454.51 595.17 455.62 597.12 456.73 599.7 457.87 601.86 459.1 604.02 460.33 606.21 463.48 609.03 462.37 613.95 460.45 613.56 450.37 613.65 446.26 613.764 443.486 614.259 440.74 615.12 438.1 615.72 436.18 616.29 432.49 618.33 435.1 619.734 437.526 620.747 440.158 621.33 442.9 621.552 444.197 621.853 445.479 622.23 446.74 622.23 447.04 622.47 448.51 622.74 448.66 623.01 448.81 624.9 448.12 625.74 448.3 628.74 449.08 628.95 452.59 629.43 454.93 629.91 457.27 631.68 459.61 632.43 462.19 633.18 464.77 632.79 467.02 634.71 468.79 636.63 470.56 640.23 471.37 642.42 473.32 643.934 475.036 645.151 476.993 646.02 479.11 646.307 480.143 646.689 481.147 647.16 482.11 648.03 483.19 649.53 482.86 650.7 483.58 651.87 484.3 651.6 484.63 652.14 486.31 652.526 487.512 653.282 488.562 654.3 489.31 656.741 491.184 658.903 493.397 660.72 495.88 661.398 497.844 661.624 499.936 661.38 502 661.59 505 663.27 507.79 663.12 510.79 662.631 514.299 661.889 517.768 660.9 521.17 660.61 524.08 659.402 526.823 657.45 529 653.627 533.438 650.804 538.645 649.17 544.27 648.39 546.46 649.17 550.51 647.28 552.22 645.39 553.93 641.79 552.73 639.57 553.72 637.35 554.71 636.21 557.38 633.57 557.74 630.93 558.1 628.83 555.7 627.57 553.51 625.02 555.61 623.07 558.37 619.62 557.2 616.633 556.499 613.688 555.627 610.8 554.59 608.146 553.415 606.447 550.772 606.48 547.87 606.193 546.429 605.577 545.074 604.68 543.91 603.3 541.69 603.33 541.93 600.75 542.59 601.409 540.41 600.701 538.047 598.95 536.59 598.05 538.48 597.84 540.67 595.26 540.58 595.26 539.62 596.43 539.95 596.58 539.2 596.626 538.041 596.766 536.887 597 535.75 597.42 534.58 600 530.8 597.84 530.26 597.06 530.05 594.54 533.56 593.79 534.13 592.025 535.61 590.407 537.258 588.96 539.05 587.834 536.596 586.51 534.238 585 532 583.44 530.26 582.54 527.74 580.44 526.69 579.243 526.31 578.003 526.079 576.75 526 574.89 525.58 573.42 524.71 571.68 524.17 568.549 523.475 565.297 523.547 562.2 524.38 559.248 525.425 556.244 526.316 553.2 527.05 550.077 527.262 547.023 528.067 544.2 529.42 542.897 529.888 541.695 530.601 540.66 531.52 540 532.21 539.73 533.59 538.95 534.16 537 535.66 531.99 534.67 529.68 534.58 526.878 534.265 524.05 534.887 521.64 536.35 519.696 537.739 517.627 538.944 515.46 539.95 512.64 541 501.54 538 503.4 534.07 503.73 533.41 504.99 532.9 505.44 532.12 505.956 530.545 506.14 528.88 505.98 527.23 505.98 524.05 504.12 521.98 503.28 519.04 502.965 516.296 502.331 513.597 501.39 511 499.83 508 498.84 505 497.46 502Z"/><path d="M582 397.51C584.46 400 586.5 403.51 589.77 400.51 590.661 399.407 591.667 398.401 592.77 397.51 593.31 397.18 594.15 397.24 594.69 396.88 595.23 396.52 595.74 395.23 596.7 394.87 599.37 393.88 605.01 397.27 607.71 398.11 611.97 399.4 616.14 400.87 620.31 402.37 623.31 403.45 628.11 404.98 630.09 407.74 631.47 409.63 630.57 410.14 632.7 411.31 634.11 412.09 637.05 412.33 638.1 413.65 639.15 414.97 638.97 415.03 638.1 415.81 637.23 416.59 635.46 415.81 636.39 418.21 636.84 419.44 638.25 420.13 639.18 421 640.11 421.87 640.98 424 642.18 425.11 643.38 426.22 643.8 425.65 644.55 426.16 645.3 426.67 646.32 427.99 647.13 428.65 647.94 429.31 650.13 430.9 650.13 431.65 650.13 433.03 649.08 431.86 648.39 431.65 645.301 431.334 642.271 430.587 639.39 429.43 636.39 427.72 635.19 424.51 632.85 422.32 631.491 421.326 629.953 420.603 628.32 420.19 626.25 419.38 625.5 418.75 623.64 420.19 622.373 421.083 621.189 422.087 620.1 423.19 619.92 423.73 621.03 424.78 620.82 425.32 620.43 426.4 618.03 426.4 617.31 426.43 614.403 426.987 611.408 426.078 609.3 424 608.348 422.789 607.017 421.933 605.52 421.57 603.39 421.27 601.47 423.16 599.52 422.68 597.57 422.2 598.41 420.49 599.79 419.47 601.74 418.06 602.43 418.84 601.56 415.9 600.582 411.938 597.523 408.822 593.58 407.77 591.18 406.99 588.6 406.42 586.26 405.46 585.24 405.04 581.28 402.07 580.26 402.31 578.85 402.7 579.15 405.31 577.26 403.9 577.26 403.9 576.9 401.98 576.9 401.98 576.338 401.139 575.638 400.398 574.83 399.79 576.39 399.28 578.07 399.01 579.51 398.59 580.95 398.17 581.67 398.62 582 397.51Z"/><path d="M745.11 570.19 748.71 569.62C748.98 571.96 749.19 572.62 747.96 574.57 746.73 576.52 745.23 577.57 744.24 579.34 743.46 579.76 743.19 580.3 743.43 580.99L743.61 582.1C742.95 583.03 742.95 582.85 741.33 583.39 739.687 583.764 738.236 584.724 737.25 586.09 735.12 589.33 734.97 592.81 731.76 595.57 727.86 598.9 724.86 596.05 720.63 595.24 719.01 594.94 717.9 595.24 717.99 593.17 718.08 591.1 720.09 589.51 720.99 588.4 723.951 585.747 727.213 583.451 730.71 581.56 732.588 580.458 734.33 579.139 735.9 577.63 736.901 576.099 737.823 574.517 738.66 572.89 739.221 572.305 739.742 571.684 740.22 571.03 740.61 570.37 740.67 568.93 741.18 568.42 742.95 566.83 744 568.87 745.11 570.19Z"/><path d="M752.55 549.43 753.42 549.67C754.05 550.15 754.5 550.06 754.8 549.4 755.4 549.4 755.01 548.68 755.52 548.95 756.03 549.22 756.36 551.14 756.81 551.8 759.54 555.79 763.11 553.39 766.5 552.49 766.977 554.475 766.411 556.565 765 558.04 764.301 558.693 763.487 559.212 762.6 559.57 760.53 560.56 761.37 559.93 760.89 561.64 760.375 563.984 759.35 566.186 757.89 568.09 757.23 568.93 756.57 570.34 755.52 570.82 754.47 571.3 752.52 571 752.52 569.65 752.52 567.55 754.83 566.65 753.42 564.43 752.46 562.78 747.75 562.18 748.59 560.08 748.86 559.39 750 559.33 750.51 558.82 751.133 558.052 751.538 557.129 751.68 556.15 752.25 553.99 751.53 550.99 752.55 549.43Z"/><path d="M627 568C629.13 568 630.6 569.29 632.58 569.65 634.56 570.01 636.96 568.45 639.27 568.48 643.26 568.48 640.83 575.35 639.27 577.48 636.69 581.29 632.88 582.85 630.12 578.47 629.359 576.712 628.707 574.909 628.17 573.07 627.33 571.3 626.37 570.13 627 568Z"/><path d="M582 397.42C580.41 395.74 576 397.66 574.23 396.34 573.36 395.74 573.45 394.69 572.37 394.12 571.29 393.55 569.64 394.12 568.62 392.68 572.88 392.05 574.26 389.05 578.88 390.67 583.5 392.29 582 393.79 582 397.42Z"/><path d="M642.36 411.25C645.367 411.423 648.385 411.272 651.36 410.8 652.524 410.462 653.566 409.795 654.36 408.88 655.65 407.62 655.65 407.86 655.8 405.7 660 406.75 657.09 410.17 654.63 411.7 650.43 413.86 646.17 414.76 642.36 411.25Z"/><path d="M752.64 549.34C750.24 549.34 750.15 546.55 748.62 545.08 747.93 544.45 744.87 541.63 745.32 540.58 746.19 538.54 749.52 541.57 750 542.41 751.26 544.54 750.87 547.72 752.64 549.34Z"/><path d="M706.08 472C711.724 475.208 716.794 479.334 721.08 484.21 716.73 482.74 706.23 477.58 706.08 472Z"/><path d="M669 411.46 672.6 415.57C672.48 416.32 667.89 413.41 669 411.46Z"/><path d="M570.87 436.33C569.49 437.32 568.08 437.77 566.85 436.09 568.146 435.492 569.655 435.582 570.87 436.33Z"/><path d="M582.9 416.41C582.724 414.613 583.123 412.806 584.04 411.25 585.42 413.32 584.25 414.43 582.9 416.41Z"/><path d="M596.79 544C595.779 544.718 594.485 544.907 593.31 544.51 595.05 542.83 595.38 542.8 596.79 544Z"/><path d="M660.18 404.62C661.23 405.28 661.41 405.97 660.6 406.99 659.846 406.541 659.598 405.565 660.047 404.81 660.086 404.744 660.131 404.68 660.18 404.62Z"/></g></svg>