<svg width="287" height="288" xmlns="http://www.w3.org/2000/svg" xmlns:xlink="http://www.w3.org/1999/xlink" xml:space="preserve" overflow="hidden"><defs><clipPath id="clip0"><rect x="898" y="352" width="287" height="288"/></clipPath></defs><g clip-path="url(#clip0)" transform="translate(-898 -352)"><path d="M222.634 81.7651C222.395 80.8682 222.186 79.9714 221.917 79.1044 221.229 76.9818 220.93 76.6529 218.628 76.6828 216.88 76.6846 215.186 76.0708 213.845 74.9489 213.037 74.3399 212.268 73.6807 211.543 72.9757 210.111 71.6522 208.501 70.535 206.76 69.6573 205.635 68.9326 204.261 68.7054 202.963 69.0295 200.945 69.4603 198.842 69.208 196.984 68.312 195.492 67.6836 193.819 67.6303 192.29 68.1625L189.928 69.0594C189.885 68.8223 189.885 68.5789 189.928 68.3419 190.229 67.4668 190.164 66.5078 189.749 65.6811 189.252 64.8943 188.377 64.4282 187.447 64.4554 187.178 64.4554 186.969 64.0668 186.699 63.9472 184.995 63.2596 183.291 62.5421 181.557 61.9442 179.946 61.0745 177.935 61.6604 177.043 63.2596 176.658 63.7098 176.249 64.1388 175.817 64.5451 175.65 63.8871 175.747 63.1896 176.086 62.6019 176.326 61.9741 176.445 61.2865 176.625 60.6287 175.655 60.0362 174.531 59.745 173.396 59.7917 172.708 59.7917 171.961 59.9411 171.453 59.2834 170.137 59.8359 168.724 60.1205 167.297 60.1205 167.766 59.0963 168.612 58.293 169.659 57.8783 169.838 57.8783 170.167 58.0577 170.436 58.1474 170.09 57.4957 170.212 56.6942 170.735 56.1743 171.46 55.4828 171.757 54.455 171.512 53.4836 169.495 52.4642 168.198 50.4214 168.134 48.1622 167.973 46.4276 167.026 44.8629 165.563 43.917 164.714 43.3579 163.914 42.728 163.171 42.0335 162.176 41.1654 161.017 40.505 159.763 40.0903 157.322 39.0556 154.646 38.7043 152.02 39.0739 149.679 39.4643 147.288 38.759 145.533 37.1605 144.684 36.466 143.785 35.8364 142.842 35.2771 142.424 33.5945 141.347 32.1509 139.853 31.271 138.138 30.3443 136.278 29.7174 134.352 29.4175 134.352 28.4608 134.352 27.5939 134.173 26.4279 133.061 25.9367 131.911 25.5367 130.734 25.2321 129.444 24.991 128.461 23.9359 128.313 22.6311 126.304 22.2117 124.211 22.6803 122.573 23.9167 120.857 25.1775 118.496 25.0781 116.893 23.6775 116.106 23.039 115.066 22.8065 114.082 23.0497 112.594 23.3635 111.057 23.3635 109.568 23.0497 109.353 22.8123 109.181 22.5391 109.06 22.2425 108.735 20.8638 107.487 19.9027 106.07 19.9405 103.385 19.8039 100.744 20.6665 98.6562 22.3621 98.6562 22.3621 98.6562 22.5415 98.4769 22.8703 98.8655 23.5878 99.3438 24.4847 99.7624 25.3816 100.137 26.0181 100.137 26.8078 99.7624 27.4444 99.3462 28.1574 98.4308 28.3981 97.7178 27.982 97.7017 27.9725 97.6855 27.9627 97.6697 27.9526L96.3842 25.5908 97.879 22.8105C97.5501 21.7044 97.2511 20.7776 96.9522 19.8209 97.548 19.4198 98.1172 18.9804 98.6562 18.5055 98.9137 18.2225 99.0243 17.8355 98.9552 17.4592 98.8045 17.0047 98.3139 16.7585 97.8592 16.9092 97.8039 16.9276 97.7504 16.9516 97.6996 16.9808 97.1017 17.3097 96.5635 17.8179 95.9656 18.1767 94.5387 19.1294 93.0391 19.9691 91.4812 20.6879 90.1347 21.0999 88.7542 21.3901 87.3556 21.5549 85.9993 21.7762 84.9314 22.8319 84.6949 24.1857 84.5454 24.9929 84.4258 25.8001 84.2764 26.6372 83.6841 27.0218 83.1152 27.4411 82.5723 27.8928 81.9744 28.4608 81.5259 29.1484 80.8981 29.6567 80.2703 30.1649 80.8981 31.1814 79.8518 31.3308 79.3136 30.8226 78.6858 30.3742 78.1477 29.8659 77.9244 31.4767 77.4715 33.0475 76.8024 34.5297 77.9492 35.7799 78.5979 37.4075 78.626 39.1037 78.7606 40.5157 78.7606 41.937 78.626 43.349 78.3815 44.3771 78.5767 45.4602 79.1642 46.3385 78.5528 47.4522 77.8637 48.5212 77.1014 49.5374 76.5931 50.1353 75.6962 50.3446 75.0684 50.8528 74.7438 51.2163 74.4992 51.6442 74.3509 52.1084 73.1252 54.9186 73.1551 54.9186 70.315 56.0846 70.0573 56.2493 69.8169 56.4397 69.5975 56.6526 69.5114 57.8801 69.0869 59.0595 68.3718 60.0607 67.1069 61.6631 66.5948 63.7334 66.9667 65.7409 67.0423 66.0046 67.0423 66.2844 66.9667 66.5481 67.6842 68.2821 69.0893 67.3254 69.9562 67.8037 70.3204 68.958 69.8199 70.2086 68.7604 70.7933 67.8635 71.4809 66.9966 72.1685 66.1595 72.886 65.2949 73.5133 64.9837 74.658 65.4121 75.6365 65.6214 76.2045 65.6512 76.9519 66.0399 77.3405 66.9069 78.2075 66.0399 79.0745 66.1894 80.0013 66.5481 80.2404 66.9667 80.5394 67.4151 80.7785 68.4609 81.2183 69.3694 81.9307 70.0459 82.8413 71.3016 84.9042 72.6469 86.9371 73.7829 89.0896 74.919 91.2421 75.8158 93.574 76.9519 95.7265 78.4168 98.4769 80.0909 101.167 81.6156 103.918 82.027 104.486 82.2656 105.161 82.3032 105.861 82.0488 107.279 82.5875 108.723 83.7083 109.628 85.0453 111.18 86.6695 112.459 88.4917 113.395 90.3452 114.232 92.139 115.189 93.9327 116.175 95.5073 116.874 96.9764 117.79 98.2975 118.896 99.1818 119.855 100.12 120.763 101.108 121.616 101.852 122.172 102.32 123.022 102.393 123.948 102.543 126.28 102.842 128.582 102.931 130.914 103.149 133.851 102.721 136.8 101.676 139.554 101.676 139.733 101.466 139.972 101.676 140.122 102.274 141.646 101.437 143.111 101.676 144.636 101.891 146.863 101.709 149.11 101.138 151.273 100.616 154.164 99.8458 157.005 98.8356 159.763 98.5908 160.429 98.5908 161.16 98.8356 161.826 99.3696 162.751 99.3696 163.891 98.8356 164.816 97.9071 166.409 97.7005 168.323 98.2676 170.077 98.685 172.17 98.685 174.323 98.2676 176.415 97.7893 178.598 96.8027 180.601 96.5037 182.813 96.3988 183.217 96.2484 183.609 96.0553 183.979 95.4275 185.474 94.8595 186.969 94.2018 188.463 93.5441 189.958 93.0657 191.931 91.2122 192.948 91.6307 195.22 91.9895 197.432 92.4678 199.614 92.672 200.516 92.5106 201.462 92.0194 202.245 90.5034 204.643 90.1413 207.594 91.0328 210.287 88.8205 211.812 89.7772 214.293 89.0298 216.266 90.5844 216.565 91.2122 216.266 91.2122 214.981 91.2122 214.293 90.7936 213.666 91.2122 212.888 91.5165 212.119 91.7273 211.316 91.84 210.497L92.7369 209.899 94.0523 209.121 95.1285 212.111C94.1934 214.042 93.5775 216.112 93.3049 218.24 93.1222 220.429 92.7112 222.593 92.0792 224.697 91.805 226.131 91.2014 227.482 90.3153 228.643L88.7308 226.969 85.3227 229.959C86.3392 230.467 86.9969 231.214 88.1628 231.125 89.3287 231.035 89.5978 231.782 89.2989 232.739 88.9999 233.696 88.2525 234.383 88.5216 235.729L91.1225 235.729 91.1225 237.074 88.6112 236.626C88.6112 237.612 88.6112 238.419 88.6112 239.197 88.6112 239.974 88.6112 240.034 87.9535 240.034 87.5051 239.226 87.0866 238.419 86.6381 237.642 86.6381 237.642 86.3093 237.642 86.1598 237.433L84.8743 239.047 86.2794 240.572 85.9505 243.382C86.5484 243.621 87.0268 243.92 86.5185 244.697L86.5185 244.697C86.967 244.996 87.4453 245.355 87.8041 244.697 88.1628 244.04 88.0432 243.711 88.2525 243.262 88.6953 242.85 89.1757 242.479 89.6875 242.156L88.4917 246.132C88.9476 247.077 89.2597 248.085 89.4184 249.122 89.4184 250.288 90.405 250.856 90.5844 251.872 90.9132 253.457 91.4215 253.846 93.2152 254.503 93.2152 255.639 91.6905 255.251 91.3318 256.267 91.541 256.985 91.541 258.151 92.1091 258.599 92.6771 259.047 93.4544 260.602 94.5007 261.26 95.278 259.137 97.1017 258.659 99.4036 258.27 99.0748 258.958 98.9851 259.406 98.7459 259.556 98.0541 259.93 97.3345 260.25 96.5934 260.512 96.0553 260.751 95.3976 260.751 95.1883 261.439 96.145 261.917 97.0718 262.426 98.1779 262.844 99.2841 263.263 99.9717 262.844 100.031 261.678 100.071 260.368 100.398 259.082 100.988 257.911 102.288 257.204 103.755 256.863 105.233 256.925 105.054 256.088 105.233 255.579 106.25 255.55 106.923 255.573 107.593 255.653 108.253 255.789 108.153 255.196 107.94 254.627 107.625 254.115 106.864 252.901 106.383 251.532 106.22 250.109 105.759 248.571 106.497 246.928 107.954 246.252 108.394 245.987 108.853 245.757 109.329 245.564 110.443 245.234 111.185 244.183 111.123 243.023 111.308 241.266 112.318 239.701 113.843 238.808 114.262 238.509 114.74 238.3 115.189 238.031 116.495 237.212 117.387 235.874 117.64 234.353 117.874 233.631 117.477 232.855 116.755 232.622 116.654 232.589 116.55 232.568 116.444 232.56 114.906 232.477 113.473 231.75 112.498 230.557 111.272 229.361 111.242 228.643 111.99 226.999 112.487 225.604 113.585 224.507 114.979 224.009L117.79 223.142C117.969 222.784 118.059 222.305 118.328 222.066 119.225 221.357 119.584 220.163 119.225 219.077 119.033 218.266 119.283 217.414 119.882 216.834 120.301 216.356 120.809 215.997 121.228 215.579 121.646 215.16 121.228 215.22 121.228 215.041L120.301 214.024 121.377 212.589C120.847 212.076 120.402 211.48 120.062 210.825 119.803 209.737 119.663 208.625 119.643 207.507 119.771 206.922 120.004 206.365 120.331 205.863L123.918 207.178C125.867 207.829 128.017 207.306 129.449 205.833 128.843 204.863 128.843 203.633 129.449 202.664 129.983 201.739 129.983 200.599 129.449 199.674 129.449 199.316 129.449 198.777 129.449 198.09 130.933 198.748 132.591 198.906 134.173 198.538 137.123 198.292 140.027 197.658 142.812 196.655 143.675 196.35 144.461 195.86 145.114 195.22 146.095 194.05 146.975 192.8 147.745 191.483 148.552 190.167 148.433 189.54 147.147 188.493 146.34 187.746 145.682 186.998 146.25 185.832 146.818 184.667 146.25 184.069 145.383 183.531 144.516 182.992 143.739 182.664 143.022 182.125 142.643 181.808 142.398 181.36 142.334 180.87 142.334 180.511 142.782 180.122 143.111 179.644 143.96 180.639 145.184 181.235 146.49 181.288 147.087 181.388 147.658 181.612 148.164 181.946 149.162 182.477 150.303 182.676 151.422 182.514 151.922 182.382 152.448 182.382 152.947 182.514 154.86 183.119 156.943 182.388 158.059 180.72 159.345 179.285 160.391 177.731 161.796 176.296 162.085 176.006 162.291 175.645 162.394 175.249 162.813 173.904 163.799 172.798 163.769 171.243 163.824 170.523 164.183 169.86 164.756 169.42 165.667 168.604 166.365 167.577 166.789 166.43 167.417 165.115 168.254 165.115 169.778 166.43 170.137 165.653 170.496 164.965 170.825 164.248 171.485 162.51 172.6 160.982 174.054 159.823 175.451 158.919 176.321 157.391 176.385 155.727 176.385 154.831 176.236 153.904 176.236 152.977 176.236 149.15 175.847 148.552 179.375 145.623 181.191 143.83 183.388 142.471 185.803 141.646 187.006 141.386 188.125 140.831 189.061 140.032 190.19 139.01 191.703 138.52 193.217 138.687 195.056 138.668 196.892 138.548 198.718 138.328 198.987 136.504 200.661 136.116 201.707 135.338 201.992 134.064 202.455 132.836 203.082 131.691 204.129 130.286 204.816 128.702 205.803 127.296 206.337 126.549 206.601 125.643 206.55 124.725 206.459 123.391 206.816 122.065 207.567 120.959 207.924 120.361 208.167 119.702 208.284 119.015 208.523 118.029 208.553 116.982 208.822 116.026 209.176 114.446 209.247 112.817 209.032 111.213 208.591 108.396 208.964 105.513 210.108 102.901 212.081 102.722 212.111 102.901 212.918 101.466 213.376 100.799 213.767 100.088 214.084 99.3438 214.79 97.8404 215.81 96.5049 217.074 95.4275 218.24 94.2915 219.376 93.0956 220.482 91.8998 222.985 89.1622 223.808 85.2835 222.634 81.7651ZM94.0822 257.523C95.577 256.626 95.577 256.626 97.7893 257.164 96.6416 257.704 95.3426 257.831 94.1121 257.523Z" transform="matrix(1 0 0 1.00348 898 352)"/><path d="M105.203 256.775C105.836 257.054 106.485 257.293 107.147 257.493 107.996 257.555 108.658 258.255 108.671 259.107 108.671 259.496 108.774 259.878 108.97 260.213 111.374 263.544 114.862 265.933 118.836 266.97 118.836 266.97 118.836 266.97 118.836 267.179 117.112 267.914 115.232 268.212 113.365 268.046L112.618 269.242 110.256 269.062 109.837 267.568C108.641 266.85 108.313 268.883 107.236 268.315L105.203 269.72C103.828 269.302 104.187 268.435 104.277 267.418L101.287 267.657 98.8655 265.923C100.091 265.206 101.167 265.923 102.214 265.744L105.203 265.415C105.203 264.638 104.426 264.668 104.037 264.369 102.722 263.382 102.722 262.964 104.187 261.947 104.546 261.708 104.845 261.379 105.562 260.751 104.716 260.801 103.867 260.801 103.021 260.751 102.642 260.735 102.29 260.548 102.064 260.243 102.034 259.865 102.152 259.49 102.393 259.197 102.744 258.846 103.124 258.526 103.529 258.24L105.054 256.805Z" transform="matrix(1 0 0 1.00348 898 352)"/><path d="M139.195 254.683C139.554 253.307 140.989 252.799 141.288 251.454L142.872 251.813C143.321 251.813 143.799 251.813 144.307 251.813 144.307 252.171 144.307 252.62 144.307 252.739 142.765 253.752 141.02 254.416 139.195 254.683Z" transform="matrix(1 0 0 1.00348 898 352)"/><path d="M95.1584 261.14C95.1584 261.887 95.7862 262.725 94.7399 263.502 93.843 262.994 92.408 263.502 91.9297 261.887 92.5874 260.662 93.9028 261.887 94.6801 261.17L95.2182 261.17Z" transform="matrix(1 0 0 1.00348 898 352)"/><path d="M138.806 252.381C138.328 253.965 136.893 254.294 135.338 254.982 135.817 254.204 136.205 253.666 136.504 253.098 137.162 251.872 137.162 251.842 138.806 252.381Z" transform="matrix(1 0 0 1.00348 898 352)"/><path d="M125.054 212.888C125.054 213.307 125.054 213.606 124.845 213.875 124.636 214.144 123.888 214.592 123.619 214.293 123.403 213.997 123.278 213.643 123.261 213.277 123.282 213.079 123.378 212.897 123.53 212.769 123.799 212.5 124.127 212.111 124.397 212.141 124.666 212.171 124.875 212.649 125.054 212.888Z" transform="matrix(1 0 0 1.00348 898 352)"/><path d="M101.795 263.083 101.287 264.369C100.659 264.189 100.779 263.771 100.898 263.442 101.018 263.113 101.257 263.053 101.437 262.844Z" transform="matrix(1 0 0 1.00348 898 352)"/><path d="M98.6562 264.488 96.8924 264.07C96.8924 263.173 97.4604 263.412 97.8491 263.681 98.1426 263.917 98.3953 264.2 98.5965 264.518Z" transform="matrix(1 0 0 1.00348 898 352)"/><path d="M108.193 268.823C108.402 269.332 108.612 269.571 108.612 269.81 108.612 270.049 108.223 270.139 107.984 270.169 107.745 270.199 107.625 269.959 107.625 269.9 107.786 269.527 107.976 269.167 108.193 268.823Z" transform="matrix(1 0 0 1.00348 898 352)"/></g></svg>